<svg xmlns="http://www.w3.org/2000/svg" xmlns:xlink="http://www.w3.org/1999/xlink" width="211.088" height="62.597" viewBox="0 0 211.088 62.597"><defs><clipPath id="a"><rect width="211.088" height="62.597" fill="none"/></clipPath></defs><g clip-path="url(#a)"><path d="M407.34,148.971c.1,5.809-3.446,11.685-11.488,11.685h-9.026V137.68h9.026c7.877,0,11.389,5.613,11.488,11.291m-16.214,7.516h4.726c5.219,0,7.287-3.807,7.188-7.549-.1-3.578-2.2-7.155-7.188-7.155h-4.726Z" transform="translate(-332.528 -118.354)" fill="#fff"/><rect width="4.3" height="22.975" transform="translate(78.717 19.326)" fill="#fff"/><path d="M636.533,139.272a8.8,8.8,0,0,0-5.842-2.3c-4.923,0-7.91,3.742-7.91,8.468,0,3.774,2.2,7.68,7.91,7.68a7.639,7.639,0,0,0,5.186-1.838v-4.07H630v-3.873h9.846v9.683a11.445,11.445,0,0,1-9.157,4.136c-8.632,0-12.144-5.678-12.144-11.718,0-6.466,4.037-12.439,12.144-12.439a12.135,12.135,0,0,1,8.534,3.512Z" transform="translate(-531.722 -114.334)" fill="#fff"/><rect width="4.3" height="22.975" transform="translate(112.36 19.326)" fill="#fff"/><path d="M863.952,139.489h-8.3v-1.575h18.38v1.575h-8.3v21.367h-1.772Z" transform="translate(-735.542 -118.555)" fill="#fff"/><path d="M1033.667,160.654h-2.33l-7.943-8.7h-6.269v8.7h-1.772V137.679h10.109a7.1,7.1,0,0,1,7.549,7.155c.033,3.742-2.429,7.024-7.451,7.024Zm-16.542-10.372h8.14c4,0,5.777-2.265,5.809-5.481a5.3,5.3,0,0,0-5.612-5.481h-8.337Z" transform="translate(-872.829 -118.353)" fill="#fff"/><rect width="1.739" height="22.975" transform="translate(164.481 19.326)" fill="#fff"/><path d="M1226.632,152.711v7.943h-1.772V137.679h10.076c9.978,0,9.978,15.032,0,15.032Zm0-13.391V151.1h8.3c7.648,0,7.648-11.783,0-11.783Z" transform="translate(-1052.928 -118.353)" fill="#fff"/><path d="M1388.314,140.1c-1.674-2.691-4.365-3.085-6.958-3.118-2.691,0-6.958.985-6.958,4.661,0,2.921,3.151,3.61,7.024,4.332,4.431.854,9.026,1.641,9.026,6.6-.033,5.186-5.252,6.433-9.092,6.433-3.578,0-7.647-1.477-9.42-4.989l1.576-.788c1.411,2.79,5.022,4.169,7.844,4.169s7.319-.788,7.319-4.858c.033-3.446-3.775-4.2-7.549-4.923-4.2-.821-8.5-1.674-8.5-5.908-.1-4.858,4.956-6.368,8.731-6.368,3.282,0,6.138.525,8.4,3.906Z" transform="translate(-1179.359 -116.343)" fill="#fff"/><path d="M92.734,420.581c1.546-.3,2.944.228,3.124,1.169s-.927,1.943-2.473,2.238-2.944-.228-3.124-1.169.927-1.943,2.473-2.238" transform="translate(-77.575 -361.474)" fill="#2c9acb" fill-rule="evenodd"/><path d="M156.093,396.25c2.01-.828,4-.63,4.439.442s-.83,2.612-2.84,3.44-4,.63-4.439-.442.83-2.612,2.84-3.44" transform="translate(-131.666 -340.19)" fill="#e64e21" fill-rule="evenodd"/><path d="M234.911,366.824c1.505-1.07,3.112-1.4,3.587-.727s-.359,2.079-1.864,3.15-3.112,1.4-3.587.727.359-2.079,1.864-3.15" transform="translate(-200.219 -314.41)" fill="#e64e21" fill-rule="evenodd"/><path d="M281.412,306.739c.69.169.963,1.477.609,2.92s-1.2,2.477-1.891,2.307-.963-1.477-.609-2.92,1.2-2.477,1.891-2.308" transform="translate(-240.152 -263.667)" fill="#e64e21" fill-rule="evenodd"/><path d="M313.542,247.874c.453.049.689,1.087.527,2.319s-.659,2.191-1.112,2.142-.689-1.087-.527-2.319.659-2.191,1.112-2.142" transform="translate(-268.531 -213.079)" fill="#e64e21" fill-rule="evenodd"/><path d="M104.621,344.658a2.849,2.849,0,1,1-2.849,2.849,2.849,2.849,0,0,1,2.849-2.849" transform="translate(-87.486 -296.279)" fill="#e64e21" fill-rule="evenodd"/><path d="M32.2,353.795c2.189,0,3.964,1.276,3.964,2.849s-1.775,2.849-3.964,2.849-3.964-1.276-3.964-2.849,1.775-2.849,3.964-2.849" transform="translate(-24.276 -304.133)" fill="#2c9acb" fill-rule="evenodd"/><path d="M311.763,193.175c.616,0,1.115,1,1.115,2.23s-.5,2.23-1.115,2.23-1.115-1-1.115-2.23.5-2.23,1.115-2.23" transform="translate(-267.043 -166.059)" fill="#2c9acb" fill-rule="evenodd"/><path d="M283.205,121.141c1.126-.249,2.415,1.248,2.879,3.343s-.074,4-1.2,4.246-2.415-1.248-2.879-3.343.074-4,1.2-4.245" transform="translate(-242.278 -104.113)" fill="#e64e21" fill-rule="evenodd"/><path d="M251.034,58.507c.864-.518,2.388.437,3.4,2.132s1.139,3.49.274,4.007-2.388-.437-3.4-2.132-1.139-3.49-.274-4.007" transform="translate(-215.302 -50.173)" fill="#2c9acb" fill-rule="evenodd"/><path d="M200.256,18.135c1.689.778,2.743,2.156,2.354,3.076s-2.074,1.036-3.763.257-2.743-2.156-2.354-3.076,2.074-1.036,3.763-.257" transform="translate(-168.842 -15.146)" fill="#e64e21" fill-rule="evenodd"/><path d="M128.995.053c1.967.262,3.436,1.409,3.283,2.562s-1.873,1.875-3.839,1.613S125,2.819,125.156,1.666s1.873-1.875,3.839-1.613" transform="translate(-107.578 0.001)" fill="#2c9acb" fill-rule="evenodd"/><path d="M7,53.737c1.916,0,3.469,1.054,3.469,2.354S8.914,58.444,7,58.444,3.53,57.391,3.53,56.091,5.083,53.737,7,53.737" transform="translate(-3.034 -46.194)" fill="#2c9acb" fill-rule="evenodd"/><path d="M89.708,51.972c1.779,0,3.221,1,3.221,2.23s-1.442,2.23-3.221,2.23-3.221-1-3.221-2.23,1.442-2.23,3.221-2.23" transform="translate(-74.347 -44.677)" fill="#e64e21" fill-rule="evenodd"/><path d="M153.583,55.25c1.61.321,2.742,1.452,2.528,2.526s-1.693,1.683-3.3,1.362-2.742-1.452-2.528-2.526,1.693-1.683,3.3-1.362" transform="translate(-129.163 -47.421)" fill="#2c9acb" fill-rule="evenodd"/><path d="M207.7,62.269c1.5.952,2.252,2.463,1.674,3.375s-2.264.879-3.767-.073-2.252-2.463-1.675-3.375,2.264-.879,3.767.073" transform="translate(-175.138 -52.896)" fill="#e64e21" fill-rule="evenodd"/><path d="M93.362,113.748a3.345,3.345,0,1,1-3.345,3.345,3.345,3.345,0,0,1,3.345-3.345" transform="translate(-77.381 -97.781)" fill="#e64e21" fill-rule="evenodd"/><path d="M176.32,184.35a3.877,3.877,0,1,1-3.345,3.84,3.618,3.618,0,0,1,3.345-3.84" transform="translate(-148.695 -158.473)" fill="#e64e21" fill-rule="evenodd"/><path d="M240.635,184.35c1.3,0,2.354,1.5,2.354,3.345s-1.054,3.345-2.354,3.345-2.354-1.5-2.354-3.345,1.054-3.345,2.354-3.345" transform="translate(-204.834 -158.473)" fill="#2c9acb" fill-rule="evenodd"/><path d="M282,193.175c.753,0,1.363,1,1.363,2.23s-.61,2.23-1.363,2.23-1.363-1-1.363-2.23.61-2.23,1.363-2.23" transform="translate(-241.249 -166.059)" fill="#e64e21" fill-rule="evenodd"/><path d="M99.153,274.368c2.121,0,3.84,1.442,3.84,3.221s-1.719,3.221-3.84,3.221-3.84-1.442-3.84-3.221,1.719-3.221,3.84-3.221" transform="translate(-81.934 -235.855)" fill="#e64e21" fill-rule="evenodd"/><path d="M174.608,258.392c1.515,0,2.7,1.5,2.646,3.438-.058,2.037-1.453,3.768-3.113,3.768s-2.831-1.731-2.624-3.768c.2-1.937,1.577-3.438,3.092-3.438" transform="translate(-147.42 -222.122)" fill="#e64e21" fill-rule="evenodd"/><path d="M232.58,248.275a2.74,2.74,0,0,1,2.782,3.366,3.48,3.48,0,0,1-3.252,3.017,2.715,2.715,0,0,1-2.654-2.852,3.518,3.518,0,0,1,3.124-3.531" transform="translate(-197.248 -213.42)" fill="#e64e21" fill-rule="evenodd"/><path d="M285.287,253.187c.616,0,1.115.887,1.115,1.982s-.5,1.982-1.115,1.982-1.115-.887-1.115-1.982.5-1.982,1.115-1.982" transform="translate(-244.283 -217.648)" fill="#2c9acb" fill-rule="evenodd"/><path d="M173.525,108.7a4.151,4.151,0,0,0-2.22-3.207,2.568,2.568,0,0,0-.594-.206,2.619,2.619,0,0,0-.32-.053,2.292,2.292,0,0,0-1.215.211c-.019.008-.361.214-.4.247a2.947,2.947,0,0,1-1.74.684,3.409,3.409,0,0,1-2.23-1.734,3.554,3.554,0,0,0-2.029-1.395l-.07-.017c-.092-.022-.179-.038-.259-.049l-.045-.006c-.05-.006-.264-.02-.323-.02-1.847,0-3.221,1.719-3.221,3.84a3.618,3.618,0,0,0,3.345,3.84,2.976,2.976,0,0,0,.718-.088,3.721,3.721,0,0,0,1.615-.938c1.6-1.243,3.432.275,4.233,1.274a3,3,0,0,0,1.993,1.068v0c.024,0,.047.008.071.01,1.749.139,2.947-1.479,2.7-3.457" transform="translate(-136.557 -88.678)" fill="#e64e21" fill-rule="evenodd"/><path d="M17.219,189.642H17.1a4.354,4.354,0,0,0-3.221,1.486,4.051,4.051,0,0,1-3.469,1.487,3.85,3.85,0,0,1-3.221-1.487,6.43,6.43,0,0,0-1.288-.966c-.042-.025-.086-.047-.129-.07a3.886,3.886,0,0,0-1.8-.451,4.09,4.09,0,0,0,0,8.176A3.847,3.847,0,0,0,6.781,196.6a6.382,6.382,0,0,1,3.873-1.76,8,8,0,0,1,4.293,1.693,3.338,3.338,0,0,0,1.867.759,3.4,3.4,0,0,0,.406.026,3.849,3.849,0,0,0,0-7.68" transform="translate(0 -163.021)" fill="#2c9acb" fill-rule="evenodd"/><path d="M176.287,302.282c-1.02,0-2.124.982-2.817,2.374-.113.2-.23.411-.362.644-1.01,1.774-3.279,1.2-3.964.743a3.239,3.239,0,0,0-1.933-.641,4.144,4.144,0,0,0-3.834,3.627c-.3,2.079.874,3.951,2.794,3.951a3.737,3.737,0,0,0,2.917-1.5,23.372,23.372,0,0,0,1.127-2.065c.791-1.249,2.116-.585,2.893.094a2.305,2.305,0,0,0,2.1.306c1.175-.389,2.192-1.911,2.615-3.707.5-2.115-.191-3.83-1.539-3.83" transform="translate(-140.404 -259.851)" fill="#2c9acb" fill-rule="evenodd"/></g></svg>