<svg xmlns="http://www.w3.org/2000/svg" viewBox="0 0 319.2 224.73">
  <g>
    <g>
      <path d="M46.68,63.62a27.17,27.17,0,0,1,5.41-.2c1.83.07,5.3.88,6.43-1,.86-1.42.68-3.4.87-5a12,12,0,0,1,1.75-5.09c4.29-6.79,12.89-8.15,20.17-9.09,5.08-.66,10.34-1.43,14.58-4.52a20.87,20.87,0,0,0,7.8-11.53c.21-.77,1.56-.53,1.41.28A20.78,20.78,0,0,1,91.72,43.06c-7.64,2.76-16.29,1.63-23.54,5.6-3.07,1.68-5.88,4.3-6.66,7.84-.6,2.71.1,6.56-2.61,8.32-1.29.85-2.85.74-4.33.68a45.92,45.92,0,0,0-6.53-.09c-4.21.4-7.28,2.81-7.88,7.12C39,81.26,46.7,93.1,56.58,89.29c1.19-.46,2.07,1.34.87,1.8-8,3-15.55-2.73-18.14-10.14C36.86,74,38.12,65,46.68,63.62Z" fill="#202448"/>
      <path d="M42.56,79.54a35.63,35.63,0,0,0,3.53,8.71c3,5.23,8.22,7.59,14.16,7.25,3.23-.18,7-2,10.06-.58,2.63,1.22,4.66,3.62,7.08,5.21a42.17,42.17,0,0,0,16.51,6.12,78.58,78.58,0,0,0,18.26.56,63.28,63.28,0,0,0,10.77-1.65,50,50,0,0,1,10.64-1.81c6.4-.21,12.52-.3,18.08-3.88a18.1,18.1,0,0,0,8.39-13,15.37,15.37,0,0,0-5.37-13.68c-2-1.69-4.18-3-6.1-4.79a10.84,10.84,0,0,1-2.47-3,6.33,6.33,0,0,1-.62-1.72c-.08-.38.11-3,1-2.07-.17.57.17,1.31.9,1.12A36.81,36.81,0,0,0,156,59.18c4.82-2.72,8.5-7.82,7.36-13.55-.66-3.22-2.43-6.15-4-9A52.42,52.42,0,0,0,154,28.53,39.89,39.89,0,0,0,124,14.42a25.34,25.34,0,0,0-9,1.36,22,22,0,0,0-7.5,5.35c-2.34,2.35-4.64,4.73-6.78,7.25a61.4,61.4,0,0,0-5.57,8.18c-6.45,10.62-20.61,8.62-29.36,16.25a13.9,13.9,0,0,0-4.17,6c-.52,1.52-.61,3.38-2.14,4.28a11.15,11.15,0,0,1-4,.94c-4.73.7-10,3-12.3,7.38A11.09,11.09,0,0,0,42.56,79.54Z" fill="#202448"/>
      <path d="M69.08,82.78c4.11,3.29,6.5,8.13,11.25,10.76s10.33,4,15.67,4.88c10.2,1.75,20.84,5.11,31,3.67,5.19-.72,10.32-5.38,15.17-7.45a38.82,38.82,0,0,0,11.21-7.49,48.83,48.83,0,0,0,8.72-10.71A32.1,32.1,0,0,0,165,70.16c.48-1.52,1.47-4,.48-5.52-1.1-1.67-3.22-.88-4.75-.42q-3.48,1.07-6.83,2.45a76.08,76.08,0,0,0-8.24,4.09,45.38,45.38,0,0,0,3.25-6,68.59,68.59,0,0,0,4.79-13.13,23.38,23.38,0,0,0-6.9-22.23,1,1,0,0,0-1.2-.11,1.07,1.07,0,0,0-1,.35c-3.4,4-6.86,8-11.11,11.19A29.31,29.31,0,0,1,118,46.43a1.19,1.19,0,0,0-1,.89c-.75-1.9-1.74-2.41-3.53-3.4a4.8,4.8,0,0,0-6.15.81c-3.86,3.9-2.09,8.35,1.1,11.73,1,1.13,2.2,2.14,3.29,3.23.74.7,2.69,2.19,2,3.16-.85,1.26-2.58,2.39-3.72,3.4s-2.34,2-3.57,3a16.1,16.1,0,0,1-8.84,3.6,73.58,73.58,0,0,0-9.76,1.72c-6.4,1.62-12.43,4.16-18.67,6.28C68.34,81.16,68.51,82.31,69.08,82.78Z" fill="#fff"/>
      <path d="M26.71,203.75a27.93,27.93,0,0,0,20.81,6,.8.8,0,0,0,1.28,0,92,92,0,0,0,10.64-19c14.62-18.38,24.8-26.21,37.43-37.52,12.48-11.15,31.39-11.35,45.67-20.33a71.94,71.94,0,0,1,23.93-9.82c9.24-1.86,18.7-2.1,28.09-2.7,4.76-.3,9.5-.69,14.21-1.36,5-.69,9.71-1.09,14.7-.24A79.93,79.93,0,0,0,237,120.42a53.15,53.15,0,0,0,13-1.65c7.33-1.89,16.24-5.34,20.12-12.32a18.15,18.15,0,0,0,.15-17.27c.91.39,1.77-1.05.87-1.81a48.28,48.28,0,0,0-10.92-7,79.78,79.78,0,0,0-13.9-4.45c-17.21-4.48-34.48-8.91-52.05-11.76-8.49-1.37-17.34-2.91-26-2.25-1.18.1-2.34.25-3.5.45q-.9.15-1.8.36c-.17.72-.39,1.44-.62,2.15a58.06,58.06,0,0,1-10.87,19.84,37.53,37.53,0,0,1-23,12.75c-9.63,1.59-19.44,0-28.62-3.07A128.86,128.86,0,0,1,71.37,80.76c-.59-.37-1.17-.75-1.74-1.13-.15.07-.29.15-.43.23-.47.27-.92.56-1.37.86C59.75,86,55,94.1,50.14,102.3q-8,13.42-16,26.85c-5,8.32-10,16.69-13.57,25.72C14.38,170.55,12.16,191.87,26.71,203.75Z" fill="#3da0da"/>
      <path d="M124.31,69.1a14.81,14.81,0,0,0,23.85-3.7A54.5,54.5,0,0,0,153,50c.85-5.24.75-11.11-2.49-15.57-.56-.78.51-1.74,1.15-1,3.91,4.52,4.22,11,3.39,16.69a56.34,56.34,0,0,1-2.21,9,44.17,44.17,0,0,1-3.4,8.55c-5.58,9.75-19.26,11.06-26.83,2.92C121.63,69.5,123.31,68.08,124.31,69.1Z" fill="#202448"/>
      <path d="M128.16,83.08a14.77,14.77,0,0,1,1.65-4.26c.37-.79.74-1.58,1.14-2.37a4.6,4.6,0,0,1,1.36-2,.75.75,0,0,1,1.06.53,3.64,3.64,0,0,1-.52,1.91c-.29.69-.58,1.37-.89,2a29.86,29.86,0,0,0-1.68,3.8,3.44,3.44,0,0,0,.37,2.73,3.56,3.56,0,0,0,.92,1c.48.36,1,.5,1.32,1s-.14,1.11-.63,1.26c-1.2.37-2.6-1.17-3.18-2A5.47,5.47,0,0,1,128.16,83.08Z" fill="#202448"/>
      <path d="M104.19,49.73c.26-2.62,1.39-5.66,3.87-6.93a7.16,7.16,0,0,1,7.17.67,7.89,7.89,0,0,1,3.42,7,.77.77,0,0,1-1.53-.1c0-3.58-3.57-6.92-7.18-6.09-2.15.49-3.06,2.59-3.53,4.55a6.37,6.37,0,0,0,0,3.3A6.1,6.1,0,0,0,108,54.6a18.76,18.76,0,0,0,2.78,2.33,2.51,2.51,0,0,0,3,.28c1-.59,1.79.88,1.06,1.61-2.24,2.21-5.38-.27-7.14-1.79A11.84,11.84,0,0,1,105,54,7.16,7.16,0,0,1,104.19,49.73Z" fill="#202448"/>
      <path d="M110.89,46.1a.86.86,0,0,1,.8-.16c.63.13,1.11.81,1.53,1.28s.75.87,1.11,1.32a18.41,18.41,0,0,1,2,3c.39.76-.74,1.54-1.27.83-.68-.91-1.35-1.83-2.08-2.7-.36-.42-.74-.84-1.13-1.25-.19-.19-.38-.39-.58-.58a2,2,0,0,1-.61-1A.81.81,0,0,1,110.89,46.1Z" fill="#202448"/>
      <path d="M111.77,51.34a3.82,3.82,0,0,1,1.2-1.78.78.78,0,0,1,1,0,.74.74,0,0,1,.13,1,3.59,3.59,0,0,0-.25.33,1.4,1.4,0,0,0-.1.16,2.58,2.58,0,0,0-.18.41c0,.13-.09.27-.13.4a4.19,4.19,0,0,0-.06.63v.39a1.92,1.92,0,0,1-.05.6.82.82,0,0,1-1.38.27,2.14,2.14,0,0,1-.37-1.35A4.42,4.42,0,0,1,111.77,51.34Z" fill="#202448"/>
      <path d="M142.75,62c.43-.18.83-.24,1.09-.67a3.16,3.16,0,0,0,.3-1.52c0-1.15,0-2.3.06-3.45a12.21,12.21,0,0,1,1.59-5.79A16.72,16.72,0,0,1,154.4,44a.74.74,0,0,1,.64,1.34c-3.25,2-6.91,3.81-8.33,7.61-.82,2.19-.64,4.55-.7,6.84,0,1.67-.94,4.41-3.16,3.79A.86.86,0,0,1,142.75,62Z" fill="#202448"/>
      <path d="M125.64,41.1a10.91,10.91,0,0,1,4-.91,20,20,0,0,1,4.3.07,18,18,0,0,1,7.88,2.88c1,.67,0,2-1,1.48a21.2,21.2,0,0,0-7.14-2.3,19.78,19.78,0,0,0-3.77-.09c-1.26.11-2.47.47-3.73.59A.92.92,0,0,1,125.64,41.1Z" fill="#202448"/>
      <path d="M129.49,48.76a3,3,0,0,1,2.2-1,6.11,6.11,0,0,1,2.33.21,5.17,5.17,0,0,1,3.38,2.87.77.77,0,0,1-1.38.66,3.5,3.5,0,0,0-.49-.63l-.15-.15c-.16-.14-.28-.25-.4-.34a4.83,4.83,0,0,0-.72-.45l-.32-.13-.44-.14-.2-.06-.53-.07-.46,0a4.39,4.39,0,0,0-.72.1l-.21.05s-.26.08-.09,0c-.18.07-.36.12-.54.18.22-.07-.39.11-.23.08l-.24,0A.78.78,0,0,1,129.49,48.76Z" fill="#202448"/>
      <path d="M133.83,51.19a2.69,2.69,0,0,1,.65-.77,3.63,3.63,0,0,1,.47-.33l.17-.09a.9.9,0,0,1,.7-.06.71.71,0,0,1,.87.37,2.81,2.81,0,0,1,.19,1,2.7,2.7,0,0,1-.15.84,2.63,2.63,0,0,1-1.15,1.45,1.51,1.51,0,0,1-1.87-.21A2,2,0,0,1,133.83,51.19Z" fill="#202448"/>
      <path d="M145.22,53.71a.8.8,0,0,0,.94.83c.4-.09.67-.45,1-.68l.16-.1.19-.1a3.76,3.76,0,0,1,.46-.2,1.76,1.76,0,0,1,.35-.09,2.44,2.44,0,0,1,.46-.07h.41l.21,0a3.12,3.12,0,0,1,.6.16l.18.07c.5.38,1.06.55,1.48.18a.9.9,0,0,0,0-1.28.71.71,0,0,0-.72-.22l-.29-.16a3.79,3.79,0,0,0-.71-.26,5,5,0,0,0-1.77-.1,4.54,4.54,0,0,0-1.6.51C146,52.53,145.28,53.06,145.22,53.71Z" fill="#202448"/>
      <path d="M147.55,55.84a.76.76,0,0,0,.34.69.81.81,0,0,0,.77.06,4.73,4.73,0,0,0,1.86-1.42,4.48,4.48,0,0,0,.74-1.5.75.75,0,0,0,.1-.33c0-.1.07-.2.08-.3a.7.7,0,0,0-.58-.75.76.76,0,0,0-.45.05.72.72,0,0,0-.28.27,3.34,3.34,0,0,0-.69.26,4.11,4.11,0,0,0-1,.85A3.6,3.6,0,0,0,147.55,55.84Z" fill="#202448"/>
      <path d="M134,62.32a.78.78,0,0,1,1-.48c.4.1.56.5.75.83l.4.54a6.57,6.57,0,0,0,.48.57l.28.27a1.54,1.54,0,0,1,.18.16c.2.15.4.3.61.43l.33.2a6.68,6.68,0,0,0,1.7.61.7.7,0,0,1,.47.81.71.71,0,0,1-.74.58,7.48,7.48,0,0,1-4.58-2.54,5.22,5.22,0,0,1-.57-.82C134.12,63.13,133.86,62.74,134,62.32Z" fill="#202448"/>
      <path d="M145.18,28a.93.93,0,0,1,1.27-.24,23.68,23.68,0,0,1,7.17,8.39c.33.69-.71,1.44-1.17.76a31.7,31.7,0,0,0-7-7.64A.94.94,0,0,1,145.18,28Z" fill="#202448"/>
      <path d="M117.65,45.53a30,30,0,0,0,15.43-6.3,64.27,64.27,0,0,0,6.2-5.35c1-1,2-2,3-3s2.34-2,2.74-3.47c.23-.86,1.44-.52,1.45.28a4.45,4.45,0,0,1-1.47,3c-1,1.16-2.13,2.29-3.24,3.39a71.23,71.23,0,0,1-7.24,6.43c-4.82,3.64-10.41,6.39-16.5,6.88C116.8,47.51,116.42,45.63,117.65,45.53Z" fill="#202448"/>
      <path d="M94.5,127.74a19,19,0,0,1,5-.15q2.67,0,5.34,0c3.46,0,6.91,0,10.37,0l10.36-.14c1.78,0,3.56-.1,5.34-.08,1,0,1.75,0,2.31,1a1,1,0,0,1-.07,1,1.2,1.2,0,0,1-1.71.32,4.32,4.32,0,0,0-.67-.13l-1.34,0-2,.08c-1.56.06-3.12.12-4.68.16-3.23.09-6.47.12-9.7.14s-6.24,0-9.36,0L99,130a16.77,16.77,0,0,1-4.59-.28A1,1,0,0,1,94.5,127.74Z" fill="#3da0da"/>
      <path d="M122,134.75a62.28,62.28,0,0,1,8.85-.38c1.18,0,1.05,1.83-.12,1.83a77.6,77.6,0,0,0-8.35.47,1,1,0,0,1-1.15-.77A1,1,0,0,1,122,134.75Z" fill="#3da0da"/>
      <path d="M93.51,134.71a24.08,24.08,0,0,1,5.23.06l5.44.19c3.62.12,7.25.28,10.87.47A.78.78,0,0,1,115,137q-5.45-.07-10.88-.24l-5.44-.17a24.51,24.51,0,0,1-5.22-.3A.81.81,0,0,1,93.51,134.71Z" fill="#3da0da"/>
      <path d="M145.33,71.43a85.93,85.93,0,0,1,17-6.54c.23-.71.45-1.43.62-2.15-6.43,1.41-12.42,4.33-18.31,7.35A.75.75,0,0,0,145.33,71.43Z" fill="#202448"/>
      <path d="M69.63,79.63c.57.38,1.15.76,1.74,1.13q1-.53,1.95-1c7.19-3.42,15.08-5,22.84-6.49a1,1,0,0,0-.38-1.91C86.84,73.17,77.64,75.07,69.63,79.63Z" fill="#fff"/>
      <path d="M87.58,73c1.36,1.07,2.85,1.92,4.13,3.09a44.9,44.9,0,0,1,3.17,3.3c2.11,2.31,4.29,4.58,7.17,5.92a9.25,9.25,0,0,0,8,.22,10.75,10.75,0,0,0,5.07-6,18.87,18.87,0,0,0,.5-9.41,70.29,70.29,0,0,0-2.14-10.24.84.84,0,0,0-.06-.75c-.85-1.45-2.47-1.06-3.9-.9-2,.23-3.9.52-5.83.86A93.9,93.9,0,0,0,91.76,62c-2.59.82-6.47,1.46-7.15,4.58C84.05,69.21,85.66,71.44,87.58,73Z" fill="#202448"/>
      <rect x="77.75" y="100.18" width="176.33" height="118.02" rx="12" fill="#fff" stroke="#202346" stroke-miterlimit="10" stroke-width="2"/>
      <g>
        <path d="M236.1,170.43c.81,2.3,3.63,3,5.11.9a15.29,15.29,0,0,0,.92-1.6.92.92,0,0,0,.47-.18,21.64,21.64,0,0,0,5.24-5.39,4.76,4.76,0,0,1,4.18.22,16.55,16.55,0,0,1,.17,3.58c0,1.23,0,2.45.05,3.69l.12,7.7a1.5,1.5,0,0,0,0,.24,62.72,62.72,0,0,0-.54,6.95,65,65,0,0,1-2.63,8.34.83.83,0,0,0,.39,1.08c-.53,1.29-1.11,2.54-1.7,3.8a.78.78,0,0,0,0,.68c-.7,1.86-1.07,4.17.69,4.93,2.33,1,5-2.62,6-4.29a1,1,0,0,0,0-1,22.15,22.15,0,0,0,1.69-2.82,3.55,3.55,0,0,0,2.11-.08c.48-.15,1.66-1,2.74-1.43a3.38,3.38,0,0,0,3.16,1,1,1,0,0,0,.78-.93,5.45,5.45,0,0,0,2.64-1.36c1-1,1.35-1.92,2.78-2.41a9.19,9.19,0,0,0,2.71-1.26c4.48-3.23,4.36-9.41,4.6-14.34q.94-19.17,1.84-38.35c.18-.76.36-1.53.57-2.29a.8.8,0,0,0-.77-1,6.69,6.69,0,0,0-1.34-5.44c-2.34-3.07-6.41-4.41-10-5.34-3.24-.83-6.67-1.63-10.05-1.2-2.67.34-6.21,1.88-6.72,4.88-.3,1.81.34,3.83.41,5.65a31,31,0,0,1-4.43,17.07c-2.11,3.57-4.52,6.95-6.81,10.4-1.24,1.86-2.63,3.7-3.7,5.68A4.83,4.83,0,0,0,236.1,170.43Z" fill="#fff"/>
        <path d="M270.37,194c8.73-2.28,8.56-13,9-20.16q1-17.78,2-35.55c-.65-.29-1.31-.58-2-.83l-.6,10.16q-.72,12.36-1.44,24.72c-.37,6.27.47,17.48-7.37,19.62C268.68,192.26,269.06,194.29,270.37,194Z" fill="#202448"/>
        <path d="M262,196.14c4.95.88,6.89-4.79,7.71-8.56,1-4.5,1.53-9.08,3.48-13.3.38-.82,1.71-.41,1.35.45-2,4.88-2.28,10.21-3.63,15.27-1.08,4.09-4.13,8.78-9,7.94C260.78,197.75,260.9,195.94,262,196.14Z" fill="#202448"/>
        <path d="M258,196.88c3.65-.78,5-5.18,6-8.26,1.48-4.37,2.72-8.81,3.8-13.29.19-.8,1.57-.54,1.43.28a90.06,90.06,0,0,1-4,15c-1.21,3.41-3.07,7.26-6.95,8.09A.92.92,0,0,1,258,196.88Z" fill="#202448"/>
        <path d="M245.55,201.86c.3-2.66,1.9-5.2,2.7-7.74a54.84,54.84,0,0,0,2-9.22,102.28,102.28,0,0,0,.77-10.35c0-1.63.08-3.26.1-4.89,0-1.28.47-4.11-1.07-4.7-1.08-.4-.51-2.09.57-1.69,1.65.62,2.18,2.18,2.29,3.83.18,2.59,0,5.27-.1,7.87A83.57,83.57,0,0,1,251,191.21a46.69,46.69,0,0,1-2.5,7.75c-.51,1.21-1.22,2.61-1,4,.31,2.31,2.44,2.25,3.94,1,3.7-3.11,5.19-9,6.22-13.52,1.25-5.45,2-11,3.92-16.27a.82.82,0,0,1,1.56.52c-1.75,5.14-2.46,10.53-3.61,15.81-1.06,4.81-2.56,10-5.84,13.86-1.33,1.54-3.44,3-5.57,2.26A4.35,4.35,0,0,1,245.55,201.86Z" fill="#202448"/>
        <path d="M256.25,88.91c4.55-2,9.48-2.32,13.88-.07a31.68,31.68,0,0,0-5.47-3.92c-.83-.48,0-1.65.82-1.23a31.89,31.89,0,0,1,13.61,13.76,26,26,0,0,1,1.43,3.27,36,36,0,0,1,2,11.7c.07,2.25,0,4.52-.13,6.83-.31,5.62-.64,11.25-.95,16.87-.05.71-.09,1.41-.13,2.12-.65-.29-1.31-.58-2-.83-1.14-.48-2.3-.95-3.47-1.38a116.76,116.76,0,0,0-12.28-3.9,104.53,104.53,0,0,0-11.09-2.2c-.61-.11-1.22-.19-1.85-.28,0-.66-.11-1.33-.16-2-.11-1.38-.22-2.75-.34-4.13q-1-12.31-2.59-24.57C246.16,93.92,252.51,90.5,256.25,88.91Z" fill="#3da0da"/>
        <path d="M235,171.38c.64,2.48,2.57,4.11,5,2.64,4-2.44,5.57-8.67,10.69-9.36a.75.75,0,0,0-.09-1.47c-5.35.07-7.28,5.93-10.94,8.82-1.29,1-2.4.61-2.83-1a6,6,0,0,1-.17-2,11.11,11.11,0,0,1,1.62-4.55,98.58,98.58,0,0,1,5.78-8c2-2.76,3.9-5.56,5.69-8.44a18.55,18.55,0,0,0,3.18-8.13,59,59,0,0,0-.4-9.94c-.61-.11-1.22-.19-1.85-.28.15,1.9.27,3.79.4,5.68A17.38,17.38,0,0,1,248.83,146c-1.81,3.06-3.84,6-5.91,8.87s-4.38,5.51-6.14,8.53C235.39,165.79,234.33,168.6,235,171.38Z" fill="#202448"/>
      </g>
      <g>
        <path d="M52.18,155.14a8.44,8.44,0,0,0,2.35,3.18c2.25,2.09,5.1,3.44,7.71,5,3,1.84,5.9,3.91,8.88,5.83a28.29,28.29,0,0,0,4.34,2.33c.87.35,2.16,1,3.12.51s1.26-2.42,1.56-3.44c.49-1.61,1.07-3.19,1.68-4.76,2.29-5.73,5.26-11.3,6-17.48.57-.16,1.13-.34,1.69-.55a11.35,11.35,0,0,0,4.19-3.14,21,21,0,0,0,5-9.18,1.82,1.82,0,0,0,0-.33c.86-2,1.65-4.07,2.66-6,.72-1.44,1.5-2.86,2.27-4.28s1.34-2.78,2.86-3.4c3-1.23,6.58-.34,9.57.3,1.5.32,3,.65,4.46,1.1a10.52,10.52,0,0,0,4,.82c1.85-.19,3.55-1.86,2.89-3.8a8.14,8.14,0,0,0-3.48-3.7.62.62,0,0,0-.34-.39,30.43,30.43,0,0,0-7.84-2.9,1.1,1.1,0,0,0-.44,0c-.41-.17-.9-.4-1.23-.54a15.86,15.86,0,0,1,5.06-1,32.59,32.59,0,0,1,5.26.94c1.48.25,3.72.36,4.51-1.24a5.75,5.75,0,0,0-.09-4.35,2.66,2.66,0,0,0,.54-2.41,4.64,4.64,0,0,0-2.62-2.78c-1-.71-1.44-1.91-2.15-2.77a8.72,8.72,0,0,0-3-2.3c-2.62-1.22-5.65-1.25-8.49-1.33-5-.13-10.24.35-14.57,2.86a.65.65,0,0,0-.39,0c-7,2.59-13.07,7.76-16,14.68a48.69,48.69,0,0,1-2.73,5.92,50.66,50.66,0,0,0-2.56,4.76c-.85,1.88-1.09,4.06-2.5,5.64a9.53,9.53,0,0,0-1.63,2.18c-1.91,1.71-2.79,4.45-4.33,6.47a50.08,50.08,0,0,1-4.3,4.32c-1.4,1.37-2.76,2.79-4.08,4.23Q56.52,148,53.35,152C52.57,153,51.75,153.81,52.18,155.14Z" fill="#fff"/>
        <g>
          <path d="M82.61,146.34c6.3.45,11.32-4.3,14.07-9.52a56.62,56.62,0,0,0,3.58-9.19c.83-2.56,1.54-5.43,3.56-7.36,4.2-4,10.42-1.8,15.19-.36,2,.6,8.93,2.4,7.76-2.08-.77-2.91-5.11-4.23-7.62-5a29.09,29.09,0,0,0-20.68,1.43.8.8,0,0,1-.69-1.44,29.47,29.47,0,0,1,19.56-2.51,22.4,22.4,0,0,1,9,3.71c2.06,1.6,3.5,4.62,1.78,7s-5,1.93-7.42,1.4c-3.44-.77-6.72-2.44-10.3-2.46a7.58,7.58,0,0,0-4.92,1.48c-1.55,1.28-2.2,3.28-2.8,5.13a78.53,78.53,0,0,1-3.84,10.29c-3.07,6.25-8.85,12-16.34,11.3A.91.91,0,0,1,82.61,146.34Z" fill="#202448"/>
          <path d="M97.32,106.17c4.42-3,9.77-4.29,15-4.89,4.46-.5,9.83-1.22,14,.81a7.1,7.1,0,0,1,3.87,4.17,4.2,4.2,0,0,1-1.4,4.86c-2,1.3-4.32.31-6.4-.14a14.74,14.74,0,0,0-8.65.42c-1.06.38-2.54-1-1.46-1.36a20.59,20.59,0,0,1,12.33-.42c1.07.25,2.7.62,3.51-.41a2.85,2.85,0,0,0,.13-2.73c-.75-1.89-2.81-2.9-4.67-3.35-4-1-8.51-.36-12.47.19a38.89,38.89,0,0,0-13,4.09C97.4,107.79,96.61,106.65,97.32,106.17Z" fill="#202448"/>
          <path d="M97.2,102.52A31.3,31.3,0,0,1,105.43,99a33.26,33.26,0,0,1,8.62-.73,61.32,61.32,0,0,1,8.46.93c.91.15,1.85.3,2.75.51.29.07.56.15.83.23l.32.15c.91.5,3,2,1.83,3.49-.63.77-.28,2.07.63,1.89,2.88-.57,1.26-5.38-.31-6.38a8.83,8.83,0,0,0-1.68-.85,15.7,15.7,0,0,0-1.94-.58c-2-.45-4.13-.6-6-.83a41.16,41.16,0,0,0-11.73,0,27.94,27.94,0,0,0-10.71,4.35C95.76,101.67,96.34,103,97.2,102.52Z" fill="#202448"/>
          <path d="M52.82,151c.45.41.89.8,1.36,1.2l3-3.37c5.55-6.17,11.36-12.22,16.09-19A57,57,0,0,0,79,119.27c1.6-3.84,3-7.75,5.34-11.22a32.26,32.26,0,0,1,18.37-13.18A33.1,33.1,0,0,1,115.11,94c2.17.26,8.25,1,9.83,3.59a2.54,2.54,0,0,1,.34,1.88,1.92,1.92,0,0,0,.81.4l.32.15a.59.59,0,0,0,.23-.29,3.18,3.18,0,0,0,.24-1.56c-.24-3-4.85-4.51-7.26-5.15a34.45,34.45,0,0,0-14.26-.6,34,34,0,0,0-19.77,11.05c-5.9,6.69-7.64,15.54-12.33,23-5,7.93-11.68,14.73-17.92,21.67Z" fill="#202448"/>
          <path d="M34.08,199.68a34.56,34.56,0,0,0,4.55,6.47,9.18,9.18,0,0,0,2.4,1.71,14.2,14.2,0,0,0,3.79,1.26c1.12.21,2.23.38,3.35.49a27.12,27.12,0,0,0,6-1.72,32,32,0,0,0,13.22-10.63c4.73-6.34,7.66-13.85,10.42-21.21.44-1.15.88-2.33,1.33-3.48.2-.56.4-1.11.61-1.67-.59-.26-1.16-.53-1.73-.84a50.55,50.55,0,0,1-5.55-3.43c-3.7-2.63-7.31-5.43-10.87-8.25-2.54-2-5-4.1-7.46-6.22-.47-.4-.91-.79-1.36-1.2l-1.42,1.58C40.1,165.13,23.12,181.55,34.08,199.68Z" fill="#3da0da"/>
          <path d="M78.75,170.06c.58.31,1.15.58,1.73.84,3-8,6-15.94,8.86-24,.37-1-1.17-1.51-1.57-.53C84.65,154.24,81.72,162.16,78.75,170.06Z" fill="#202448"/>
          <path d="M30.75,173.52q5.1-5.85,10.47-11.47c1.75-1.83,3.55-3.63,5.36-5.42a76.09,76.09,0,0,1,5.86-5.5c.71-.56,1.9.36,1.25,1.11-1.63,1.86-3.49,3.53-5.23,5.28s-3.66,3.74-5.47,5.63q-5.41,5.63-10.55,11.51C31.59,175.64,29.88,174.51,30.75,173.52Z" fill="#fff"/>
        </g>
      </g>
    </g>
    <g>
      <path d="M129.19,136.16c2.55-2,5.33-3.83,7.7-6,1.58-1.45,3-3.94,1.65-6-1.61-2.45-4.74-1.7-6.72-.21-5.8,4.36-11.28,9.23-16.91,13.82a14.86,14.86,0,0,0-1.57,1.28,2,2,0,0,0-.21.18l.65-.28h-.14a2.06,2.06,0,0,0-.61,0l-6.58-.13a1,1,0,0,0-.91.7l-.92,3.44a1,1,0,0,0,.66,1.17l6.91,1.09-.22-1.73-2.18,1.62a1,1,0,0,0-.19,1.48l2.37,2.91a1,1,0,0,0,1.34,0l10.2-8.45c.93-.78-.41-2.11-1.34-1.34L112,148.15h1.34l-2.37-2.91-.19,1.49,2.17-1.62c.57-.42.67-1.59-.22-1.73l-6.92-1.09.66,1.16.92-3.44-.91.69,5.34.11c1.07,0,2,.23,2.89-.42,2.82-2.1,5.48-4.47,8.21-6.7s5.36-4.35,8-6.54c.76-.63,1.54-1.37,2.3-1.88,1.07-.72,3.19-1.54,3.88.14.47,1.12-.56,2.4-1.29,3.15a34.06,34.06,0,0,1-3.44,2.76l-4.51,3.5c-1,.75.39,2.08,1.34,1.34Z" fill="#ec662f"/>
      <path d="M118.3,135.21l-9-3.4.66.66c0,.07,0,.26,0,0v-.25c0-.05,0-.3,0-.15.06-.36.13-.56.48-.71a3.58,3.58,0,0,1,1.46,0l1.61.16c2.55.29,5.09.64,7.63,1l2,.29a1,1,0,0,0,1.17-.66,1,1,0,0,0-.66-1.16c-4-.59-8.05-1.27-12.09-1.54a3,3,0,0,0-3.13,1.34,3.14,3.14,0,0,0-.29,2.19c.19.64,1.11.83,1.67,1l2.77,1,5.25,2c1.14.43,1.63-1.4.5-1.82Z" fill="#ec662f"/>
      <path d="M121.44,138.12c.7,4.47,1.24,9,2.12,13.46.15.75.72,1,1.43,1.13a2.67,2.67,0,0,0,3.09-2.14,25.3,25.3,0,0,0,.43-4.44c.15-1.77.31-3.54.47-5.31.24-2.7.49-5.39.74-8.09.12-1.21-1.78-1.2-1.89,0-.52,5.46-1,10.92-1.44,16.39,0,.61-.08,1.61-.81,1.77a1.36,1.36,0,0,1-.45-.08c-.06,0-.17-.09-.23-.08s.21.1.09,0l.43.56-2.16-13.71c-.18-1.2-2-.69-1.82.5Z" fill="#ec662f"/>
    </g>
    <g>
      <path d="M162.07,127.46h17.25l-.81-.47,5.33,9.47a10.88,10.88,0,0,0,1,1.77c.29.32-.1.25,0-.21a4.71,4.71,0,0,0,0,.84v5.45l.95-.95H155.84l.95.95V139c0-.58.21-.65-.13-.15.08-.11.12-.24.19-.35.39-.62.69-1.31,1-1.95l5-9.51c.57-1.08-1.06-2-1.63-1l-5.18,9.83a6.7,6.7,0,0,0-1.18,2.91c0,1.85,0,3.69,0,5.54a1,1,0,0,0,.94.94h29.94a1,1,0,0,0,.95-.94v-5.55a5.5,5.5,0,0,0-1.09-2.95l-5.5-9.78a1,1,0,0,0-.82-.46H162.07A1,1,0,0,0,162.07,127.46Z" fill="#ec662f"/>
      <path d="M159.08,131.24c-1.23,0-3-.37-4.14.39a2.34,2.34,0,0,0,1.16,4.2,67.62,67.62,0,0,0,7.26,0c7.33,0,14.7.19,22,0a2.19,2.19,0,0,0,2.19-2.56c-.27-2.55-3-2.06-4.88-2.05a1,1,0,0,0,0,1.89h1.84c.14,0,.75-.09.87,0s.09,1.09.35.84c-.17.16-1.25,0-1.47,0h-7.88c-6.22,0-12.43,0-18.65,0-.33,0-1.4.18-1.68,0-.47-.35.18-.87,0-.81a2.42,2.42,0,0,1,.76,0h2.22a1,1,0,0,0,0-1.89Z" fill="#ec662f"/>
      <path d="M154.9,144.55v2.86a4.15,4.15,0,0,0,0,.93,1.94,1.94,0,0,0,2,1.42c1.26,0,2.52,0,3.78,0,.43,0,.88,0,1.31,0a2,2,0,0,0,1.47-.86,4.62,4.62,0,0,0,.33-2.61c0-.58,0-1.16,0-1.74a1,1,0,0,0-1.89,0c0,1,0,2.1,0,3.15v.1c0,.14,0,0,0,0s-.07.15,0,0,0,0,0,0,.1-.11,0,0,.16-.08,0,0a.54.54,0,0,0-.13.07c-.06,0,.23-.07.1,0s.28,0,.18,0a1,1,0,0,0-.35,0h-4.88c.12,0,0,0,0,0s-.12,0,0,0,.06,0,0,0c.12.08.07.08,0,0,.07.1.08.13,0,0l0,0s0-.07,0-.11,0,.26,0,.17v-3.4a1,1,0,0,0-1.89,0Z" fill="#ec662f"/>
      <path d="M177.82,144.55v2.86a3.64,3.64,0,0,0,.06.93,1.94,1.94,0,0,0,2,1.42c1.26,0,2.52,0,3.77,0,.44,0,.88,0,1.32,0a2,2,0,0,0,1.46-.86,4.54,4.54,0,0,0,.33-2.61c0-.58,0-1.16,0-1.74a1,1,0,0,0-1.9,0q0,1.57,0,3.15v.1c0,.14,0,0,0,0s-.06.15,0,0,0,0,0,0,.1-.11,0,0,.15-.08,0,0l-.13.07s.23-.07.11,0,.28,0,.18,0a1.09,1.09,0,0,0-.36,0h-4.88c.13,0,0,0,0,0s-.12,0,0,0,.06,0,0,0c.13.08.07.08,0,0,.07.1.08.13,0,0s.09.21,0,0,0-.07,0-.11,0,.26,0,.17,0,0,0,0,0-.27,0-.41v-2.94a1,1,0,0,0-1.89,0Z" fill="#ec662f"/>
      <path d="M165.89,140.63h10a1,1,0,0,0,0-1.89h-10a1,1,0,0,0,0,1.89Z" fill="#ec662f"/>
      <path d="M162.14,139.68a1,1,0,0,1,0,.17c0,.15,0-.08,0-.09a1,1,0,0,0-.06.25.44.44,0,0,0-.05.15s.1-.21,0-.08l-.16.26c-.1.15.13-.13,0-.05l-.09.09-.07.07c-.07.07-.18.1,0,0l-.21.14-.09,0c-.15.09.22-.06,0,0l-.25.07c-.1,0-.14,0,.07,0a.32.32,0,0,0-.14,0h-.27c-.13,0,.25.05.06,0l-.15,0-.15,0c-.09,0,0-.07.08,0-.06-.05-.15-.08-.22-.13l-.11-.07c-.1-.06.18.16.06,0a1.52,1.52,0,0,0-.22-.22c.13.09.11.15.06.07l-.09-.13a.41.41,0,0,0,0-.09c-.05-.09,0-.18,0,0,0-.08-.06-.17-.08-.25s0-.07,0-.1c0-.18,0,.24,0,0a1,1,0,0,1,0-.24c0-.09.06-.22,0,0,0,0,0-.07,0-.1s.05-.17.07-.25-.1.2,0,0l.07-.13.07-.11c.06-.09.11-.05,0,0,.06,0,.12-.13.18-.18s.15-.12,0,0l0,0c.08-.05.2-.08.26-.15s-.22.08-.08,0l.15,0c.05,0,.31-.06.13,0s0,0,0,0h.27c.19,0-.21-.05,0,0l.31.09c.17.05-.16-.09-.06,0a.75.75,0,0,0,.15.09l.09.05c.21.14-.1-.1,0,0l.18.18c.13.13-.12-.19,0,0a.57.57,0,0,1,.08.13l.08.13c.08.15-.07-.21,0,0s.06.2.09.3,0,.1,0-.09a1.41,1.41,0,0,0,0,.21.95.95,0,1,0,1.89,0,3,3,0,0,0-1.95-2.74,2.91,2.91,0,0,0-3.14.84,2.9,2.9,0,0,0,2.79,4.74,2.91,2.91,0,0,0,2.3-2.84.95.95,0,0,0-1.89,0Z" fill="#ec662f"/>
      <path d="M181.54,139.68c0,.06,0,.11,0,.17s0-.08,0-.09a1,1,0,0,0-.06.25.94.94,0,0,0-.06.15l0-.08-.16.26c-.1.15.13-.13,0-.05l-.09.09a.46.46,0,0,1-.07.07c-.07.07-.18.1,0,0l-.21.14-.09,0c-.16.09.22-.06,0,0l-.25.07c-.11,0-.14,0,.06,0a.29.29,0,0,0-.13,0h-.27c-.13,0,.25.05.06,0l-.15,0-.15,0c-.09,0,0-.07.08,0-.06-.05-.15-.08-.22-.13l-.11-.07c-.1-.06.18.16.05,0a1.47,1.47,0,0,0-.21-.22c.12.09.11.15.05.07l-.08-.13,0-.09c-.05-.09,0-.18,0,0,0-.08-.06-.17-.08-.25a.36.36,0,0,1,0-.1c-.05-.18,0,.24,0,0a1,1,0,0,1,0-.24c0-.09.06-.22,0,0,0,0,0-.07,0-.1a1.82,1.82,0,0,1,.07-.25c.06-.18-.11.2,0,0a.83.83,0,0,1,.07-.13l.07-.11c.06-.09.1-.05,0,0a1.45,1.45,0,0,0,.17-.18s.16-.12,0,0,0,0,0,0,.21-.08.27-.15-.22.08-.08,0l.15,0c.05,0,.31-.06.13,0s0,0,0,0h.27c.19,0-.21-.05,0,0l.3.09c.18.05-.16-.09-.06,0a1.29,1.29,0,0,0,.16.09l.09.05c.21.14-.1-.1,0,0l.18.18c.13.13-.12-.19,0,0a.57.57,0,0,1,.08.13l.08.13c.08.15-.07-.21,0,0l.09.3c0,.09,0,.1,0-.09a1.41,1.41,0,0,0,0,.21.95.95,0,1,0,1.89,0,3,3,0,0,0-2-2.74,2.91,2.91,0,0,0-3.14.84,2.9,2.9,0,1,0,5.09,1.9.95.95,0,0,0-1.89,0Z" fill="#ec662f"/>
    </g>
    <g>
      <path d="M106.48,179.11v-4.67c0-1.28-.42-3.3,1.29-3.6a13.34,13.34,0,0,1,2.19,0h17.36c2.68,0,5.41-.14,8.09,0,1.83.09,1.72,1.21,1.72,2.62V179a1,1,0,0,0,1.89,0v-5.49c0-1.71,0-3.53-1.94-4.24a7.72,7.72,0,0,0-2.75-.27H115.72c-2.64,0-5.33-.15-8,0-2.43.13-3.16,2.1-3.16,4.19v6a1,1,0,0,0,1.89,0Z" fill="#ec662f"/>
      <path d="M110.06,178.75v-1.13c0-.19,0,.13,0,0a3.84,3.84,0,0,1,.11-.46,1.23,1.23,0,0,1,.51-.71,1.5,1.5,0,0,1,.42-.15c.18,0-.06,0,.16,0h5.67a3.65,3.65,0,0,1,.57,0,1.64,1.64,0,0,1,.82.31,1.13,1.13,0,0,1,.25.47c0,.08.08.51.06.26,0,.41,0,.81,0,1.22a1,1,0,0,0,1.89,0c0-1.33,0-2.78-1.27-3.61a5.2,5.2,0,0,0-2.91-.59h-3.72a6.25,6.25,0,0,0-2.72.33c-1.61.76-1.74,2.5-1.74,4a1,1,0,0,0,1.9,0Z" fill="#ec662f"/>
      <path d="M124.87,178.75v-1.13c0-.19,0,.13,0,0a3.84,3.84,0,0,1,.11-.46,1.23,1.23,0,0,1,.51-.71,1.5,1.5,0,0,1,.42-.15c.18,0-.06,0,.16,0h5.67a3.65,3.65,0,0,1,.57,0,1.64,1.64,0,0,1,.82.31,1.13,1.13,0,0,1,.25.47c0,.08.08.51.06.26,0,.41,0,.81,0,1.22a1,1,0,0,0,1.89,0c0-1.33,0-2.78-1.27-3.61a5.2,5.2,0,0,0-2.91-.59h-3.72a6.25,6.25,0,0,0-2.72.33c-1.61.76-1.74,2.5-1.74,4a1,1,0,0,0,1.9,0Z" fill="#ec662f"/>
      <path d="M141.35,190.49v-6.14c0-1.72.43-4.21-1.09-5.44-1-.84-2.4-.74-3.64-.74H114.51c-3,0-6.13-.21-9.15,0s-3.09,2.93-3.09,5.22v7.26a1,1,0,0,0,.94.95l32.57-.14,4.62,0a1,1,0,0,0,0-1.89l-32.56.14-4.63,0,1,.94v-5.4c0-1.38-.66-4.82,1.24-5.19a11.65,11.65,0,0,1,2.21,0h20.92c3.07,0,6.2-.18,9.27,0,.88.05,1.5.31,1.66,1.26a17.9,17.9,0,0,1,0,2.74v6.43A1,1,0,0,0,141.35,190.49Z" fill="#ec662f"/>
      <path d="M103.3,185h37a1,1,0,0,0,0-1.89H103.3a1,1,0,0,0,0,1.89Z" fill="#ec662f"/>
    </g>
    <g>
      <path d="M165.28,187.46a3.15,3.15,0,1,1-2.62-3.11,3.17,3.17,0,0,1,2.62,3.11,1,1,0,0,0,1.89,0,5.12,5.12,0,0,0-3.32-4.74,5,5,0,0,0-5.57,1.49,5,5,0,1,0,8.89,3.25A1,1,0,0,0,165.28,187.46Z" fill="#ec662f"/>
      <path d="M181.81,187.46a3.15,3.15,0,1,1-2.62-3.11,3.19,3.19,0,0,1,2.62,3.11,1,1,0,0,0,1.89,0,5.12,5.12,0,0,0-3.32-4.74,5.06,5.06,0,0,0-5.58,1.49,5,5,0,1,0,8.9,3.25A1,1,0,0,0,181.81,187.46Z" fill="#ec662f"/>
      <path d="M166.23,188.4h8.33a1,1,0,0,0,0-1.89h-8.33a1,1,0,0,0,0,1.89Z" fill="#ec662f"/>
      <path d="M182.75,188.4a8,8,0,0,0,3.85-.41c1.62-.78,2-2.49,2-4.11a55.15,55.15,0,0,0,0-8.23c-.21-1.57-1.35-2.72-2.3-3.92s-1.81-2.76-3.25-3.33c-1.63-.65-4-.32-5.73-.33H159.83a23,23,0,0,0-4.07.08c-3.09.61-2.95,3.75-3,6.21q0,4.68,0,9.36a6.46,6.46,0,0,0,.41,2.54c.79,1.81,3,2.33,4.79,2.13,1.2-.12,1.21-2,0-1.89-1.63.17-3.13-.24-3.29-2,0-.43,0-.88,0-1.32,0-2.44,0-4.88,0-7.32,0-1.74-.67-5.65,1.79-5.87,1-.09,2,0,2.92,0l14.8,0H180a8.15,8.15,0,0,1,2,.1c1.31.36,2.13,2,2.92,3,1,1.27,1.77,2.12,1.8,3.61s0,3.05,0,4.57c0,1.18.25,3-.18,4.11-.57,1.46-2.53,1.26-3.82,1.16s-1.21,1.81,0,1.89Z" fill="#ec662f"/>
      <path d="M187.69,180.7h-1.57a3,3,0,0,0-1.48.37,1.92,1.92,0,0,0-.94,1.29,2.1,2.1,0,0,0,.52,1.84,2.72,2.72,0,0,0,1.84.73c.53,0,1.07,0,1.6,0a.95.95,0,1,0,0-1.89l-1.07,0a5.25,5.25,0,0,1-.69,0l.25,0a2.38,2.38,0,0,1-.54-.14l.23.09-.2-.09-.09-.06c-.12-.07.21.18.09.07l-.08-.07c-.08-.08-.07-.16.06.08a2.39,2.39,0,0,1-.12-.22l.09.23a2.5,2.5,0,0,1-.07-.26l0,.25a.91.91,0,0,1,0-.33l0,.25a2.33,2.33,0,0,1,.07-.25l-.09.23a1.62,1.62,0,0,1,.1-.18c-.13.24-.14.17-.06.09l.07-.07c.12-.11-.21.14-.09.07l.08-.05.17-.09-.22.1a2,2,0,0,1,.54-.14l-.26,0a6.62,6.62,0,0,1,.77,0h1.09a.95.95,0,1,0,0-1.89Z" fill="#ec662f"/>
      <path d="M156.58,180.16H154a1,1,0,0,0,0,1.9h2.59a.95.95,0,1,0,0-1.9Z" fill="#ec662f"/>
      <path d="M155.71,182.41H154a1,1,0,0,0-.67.28,1,1,0,0,0-.27.67,1,1,0,0,0,.27.67,1,1,0,0,0,.67.28h1.72a1,1,0,0,0,.66-.28.93.93,0,0,0,.28-.67,1,1,0,0,0-.28-.67,1,1,0,0,0-.66-.28Z" fill="#ec662f"/>
      <path d="M187.5,176.9l-23.38.08c-1.19,0-2.39.07-3.57,0a1.53,1.53,0,0,1-1.64-2,5,5,0,0,1,.81-2.37,1.56,1.56,0,0,1,.95-.26c1.5-.15,3.09,0,4.6,0h7.53l12,0a1,1,0,0,0,0-1.89l-11.38,0c-4.27,0-8.63-.24-12.9,0a2.93,2.93,0,0,0-2.71,1.73c-.64,1.39-1.22,3.44-.47,4.9s2.43,1.75,4,1.74l13.83,0,12.36,0a1,1,0,0,0,0-1.89Z" fill="#ec662f"/>
      <path d="M164.43,171.55v6.28a.95.95,0,0,0,1.89,0v-6.28a.95.95,0,0,0-1.89,0Z" fill="#ec662f"/>
      <path d="M179.49,171.55v6.28a.95.95,0,0,0,1.89,0v-6.28a.95.95,0,0,0-1.89,0Z" fill="#ec662f"/>
    </g>
    <g>
      <path d="M226.21,147.6H203a4.63,4.63,0,0,1-4.58-4.67v-14.8a4.63,4.63,0,0,1,4.58-4.68h23.2a4.63,4.63,0,0,1,4.57,4.68v14.8A4.63,4.63,0,0,1,226.21,147.6ZM203,125.41a2.7,2.7,0,0,0-2.67,2.72v14.8a2.7,2.7,0,0,0,2.67,2.71h23.2a2.69,2.69,0,0,0,2.66-2.71v-14.8a2.69,2.69,0,0,0-2.66-2.72Z" fill="#ec662f"/>
      <path d="M227.85,144.39H201.59V126.58h26.26Zm-24.43-1.83H226V128.41h-22.6Z" fill="#ec662f"/>
      <rect x="202.5" y="131.28" width="24.43" height="1.83" fill="#ec662f"/>
      <polygon points="226.94 135.63 209.17 135.63 206.88 132.57 208.34 131.48 210.08 133.8 226.94 133.8 226.94 135.63" fill="#ec662f"/>
      <path d="M207.19,151.87l-.08-1.83c1.53-.13,2.22-1,2.25-2.8a1,1,0,0,1,.64-1.06l.57,1.74-.28-.87.9.11a5.55,5.55,0,0,1-.72,2.88h9.2a5.25,5.25,0,0,1-.77-3.17l1.83.08c-.1,2.37,1.35,3.09,1.7,3.09h1v1.83c-.39,0-.79,0-1.06,0H207.19Z" fill="#ec662f"/>
      <circle cx="205.32" cy="129.7" r="0.92" fill="#ec662f"/>
      <circle cx="207.99" cy="129.7" r="0.92" fill="#ec662f"/>
      <circle cx="210.78" cy="129.7" r="0.92" fill="#ec662f"/>
    </g>
    <g>
      <path d="M218.94,195.11h-8.66a3.84,3.84,0,0,1-3.84-3.84V169.21a3.84,3.84,0,0,1,3.84-3.83h8.66a3.84,3.84,0,0,1,3.83,3.83v22.06A3.84,3.84,0,0,1,218.94,195.11Zm-8.66-27.73a1.83,1.83,0,0,0-1.84,1.83v22.06a1.84,1.84,0,0,0,1.84,1.84h8.66a1.84,1.84,0,0,0,1.83-1.84V169.21a1.83,1.83,0,0,0-1.83-1.83Z" fill="#ec662f"/>
      <rect x="207.59" y="169.45" width="14.03" height="2" fill="#ec662f"/>
      <rect x="207.44" y="188.11" width="14.33" height="2" fill="#ec662f"/>
      <circle cx="214.61" cy="191.66" r="1.13" fill="#ec662f"/>
    </g>
    <g>
      <path d="M198.52,73.61a90.49,90.49,0,0,1-10.29,10q-2.35,2-4.74,4c-1.44,1.2-2.93,2.75-4.84,3.17-3.36.73-5.08-2.93-3.88-5.69a10.58,10.58,0,0,1,3.35-3.75c1.72-1.38,3.46-2.75,5.19-4.11,3.31-2.63,6.56-5.41,10.05-7.79a.86.86,0,0,1,.5-.35,2.83,2.83,0,0,1,.28-.2c.65-.43,1.5.45,1,1a15.12,15.12,0,0,0,3.1,2.36A.9.9,0,0,1,198.52,73.61Z" fill="#202448"/>
      <path d="M207.9,78.92A20.69,20.69,0,0,1,192.45,72c-7-7.81-6.45-20.53,1.21-28.36a19.65,19.65,0,0,1,15.71-5.78,21,21,0,0,1,15.5,8.8c.45.65.88,1.34,1.27,2a22,22,0,0,1,2,15.75h0c-1.21,4.8-4.55,8.76-9.93,11.76A21.08,21.08,0,0,1,207.9,78.92Zm-.24-37.14a15.33,15.33,0,0,0-11.14,4.64c-6.22,6.36-6.71,16.63-1.09,22.9a16.79,16.79,0,0,0,20.83,3.39c4.45-2.48,7.07-5.5,8-9.24h0a18,18,0,0,0-1.64-12.86,17.66,17.66,0,0,0-1-1.66,16.94,16.94,0,0,0-12.55-7.11C208.58,41.8,208.12,41.78,207.66,41.78Z" fill="#202448"/>
    </g>
    <path d="M213.49,57.53c-3.93.44-5,5.06-5.64,8.22a.68.68,0,0,1-1.34-.08,10.33,10.33,0,0,0-1.21-4.84,9.52,9.52,0,0,0-1.46-2.1,3,3,0,0,0-2.07-1.26.57.57,0,0,1-.45-.19.57.57,0,0,1,.24-1.11c1.69.31,3.29-1.64,4.23-2.8a15.54,15.54,0,0,0,2.57-4.49c.28-.73,1.3-.27,1.22.41a6.53,6.53,0,0,0,1,4.37,6,6,0,0,0,1.37,1.44,11.86,11.86,0,0,0,1.77.91.6.6,0,0,1,.35.54A.7.7,0,0,1,213.49,57.53Z" fill="#ec662f"/>
    <path d="M69,9c-3.92.43-5,5.05-5.63,8.21-.16.74-1.34.7-1.35-.08a10.48,10.48,0,0,0-1.2-4.84,9.91,9.91,0,0,0-1.47-2.1A3,3,0,0,0,57.29,9a.59.59,0,0,1-.45-.19.57.57,0,0,1,.25-1.11C58.77,8,60.37,6,61.32,4.87A15.7,15.7,0,0,0,63.88.37c.28-.73,1.3-.26,1.22.41a6.48,6.48,0,0,0,1,4.37,5.81,5.81,0,0,0,1.36,1.44,12.5,12.5,0,0,0,1.78.92.59.59,0,0,1,.34.54A.7.7,0,0,1,69,9Z" fill="#ec662f"/>
    <path d="M318.59,185.52c-3.93.44-5,5.06-5.64,8.22-.15.74-1.34.7-1.35-.08a10.34,10.34,0,0,0-2.67-6.95,3,3,0,0,0-2.07-1.25.67.67,0,0,1-.2-1.3c1.68.31,3.28-1.65,4.23-2.8a15.54,15.54,0,0,0,2.57-4.49c.27-.74,1.29-.27,1.21.41a6.56,6.56,0,0,0,1,4.37,6,6,0,0,0,1.37,1.44,12.88,12.88,0,0,0,1.77.91.61.61,0,0,1,.35.54A.7.7,0,0,1,318.59,185.52Z" fill="#ec662f"/>
    <path d="M252.1,40.11a.72.72,0,0,0-.66-.8,157.14,157.14,0,0,0-19.16-1,1,1,0,0,0-.85,1.5l5.86,9.56q1.46,2.38,2.94,4.76l1.38,2.19a6.71,6.71,0,0,0,1.66,2.23.81.81,0,0,0,1.27-.75,1.47,1.47,0,0,0-.08-.3,7.31,7.31,0,0,0,1-2c.3-.75.61-1.49.93-2.24.59-1.39,1.19-2.78,1.81-4.17,1.26-2.85,2.67-5.66,3.86-8.55A.79.79,0,0,0,252.1,40.11Zm-5.63,8.25c-.62,1.39-1.22,2.77-1.81,4.17-.32.74-.63,1.49-.94,2.23-.1.25-.21.49-.33.75L242,53.3C241,51.65,240,50,239,48.36l-5.1-8.18c5.42,0,10.82.24,16.21.61C248.74,43.24,247.6,45.82,246.47,48.36Z" fill="#3da0da"/>
    <path d="M19.92,106a.73.73,0,0,0,.22-1A158.69,158.69,0,0,0,8.91,89.38a1,1,0,0,0-1.7.28q-1.9,5.27-3.79,10.54c-.62,1.76-1.25,3.52-1.87,5.29l-.84,2.44a6.8,6.8,0,0,0-.7,2.69.81.81,0,0,0,1.38.52c.07-.08.12-.17.19-.25a7.06,7.06,0,0,0,2.2-.52l2.33-.67q2.19-.63,4.38-1.2c3-.8,6.09-1.47,9.09-2.35A.74.74,0,0,0,19.92,106Zm-10,.77q-2.19.58-4.38,1.2l-2.33.67-.79.21c.3-.83.58-1.64.87-2.45q1-2.74,1.93-5.49,1.57-4.55,3.19-9.1c3.39,4.22,6.58,8.58,9.67,13C15.37,105.3,12.65,106,10,106.73Z" fill="#3da0da"/>
    <path d="M184.92,17.21a1.14,1.14,0,0,1-1.49,1.16c-.74-.17-1.47-.46-2.21-.67L179,17l-1.16-.35a1,1,0,0,1-.7-.94,2.68,2.68,0,0,1,1-1.87q1.56-1.77,3.18-3.49a.58.58,0,0,1,.41-.22l.27-.53c.28-.55,1.28-.61,1.43.09.37,1.74.74,3.47,1.1,5.21A18.51,18.51,0,0,1,184.92,17.21Z" fill="#3da0da"/>
    <path d="M224.18,13.49a3.48,3.48,0,0,1-2.54,3.42,3.41,3.41,0,0,1-3.88-1.34,2.84,2.84,0,0,1,.66-3.71.52.52,0,0,1,.16-.07,3.33,3.33,0,0,1,2.88-1.25A3.23,3.23,0,0,1,224.18,13.49Z" fill="#3da0da"/>
    <path d="M59.83,221.16a3.45,3.45,0,0,1-2.54,3.42,3.39,3.39,0,0,1-3.88-1.33,2.85,2.85,0,0,1,.66-3.72.52.52,0,0,1,.16-.07,3.37,3.37,0,0,1,2.88-1.25A3.23,3.23,0,0,1,59.83,221.16Z" fill="#3da0da"/>
    <path d="M176,6.65a2.72,2.72,0,0,0-2.19-2.32,2.77,2.77,0,0,0-2.86,1.55,2,2,0,0,0-.58,1.39A2.35,2.35,0,0,0,171,8.94a2.92,2.92,0,0,0,3.27.59A2.75,2.75,0,0,0,176,6.65Zm-1.52.72a2.19,2.19,0,0,1-.34.5L174,8l-.17.11-.25.1a1.09,1.09,0,0,1-.24.07l-.23,0h-.21l-.22,0-.16,0-.32-.15L172,7.93c-.27-.57-.27-.66-.27-.74a.85.85,0,0,0,.39-.41,2.39,2.39,0,0,1,.13-.28,2,2,0,0,1,.22-.29,2.67,2.67,0,0,1,.32-.25,2.43,2.43,0,0,1,.39-.14l.16,0a1.35,1.35,0,0,1,.36,0,1.72,1.72,0,0,1,.47.31c.11.14.15.22.2.29a1,1,0,0,1,.06.16,1.5,1.5,0,0,1,.07.2A1.23,1.23,0,0,1,174.45,7.37Z" fill="#3da0da"/>
  </g>
</svg>
