<svg xmlns="http://www.w3.org/2000/svg" viewBox="0 0 308.41 460.54">
  <polygon points="308.41 294.08 308.41 349.82 173.38 209.58 172.57 208.74 153.08 188.51 152.9 188.32 136.62 171.4 34.39 65.24 35.18 144.75 0.35 144.21 0 144.2 0.35 0 149.88 1.24 150.37 38.43 67.82 36.74 308.41 294.08" fill="#2c9acb"/>
  <polygon points="308.41 460.54 67.83 235.79 68.62 315.3 33.44 314.74 33.79 170.55 136.62 171.4 183.32 171.79 183.32 172.03 183.8 208.97 172.57 208.74 172.02 208.73 101.25 207.29 308.41 405.34 308.41 460.54" fill="#e64e22"/>
  <path d="M188.13,209.88l-15.32-.31-35.52-37.92,50.35.42Z" fill="#e397c1"/>
</svg>
