<svg xmlns="http://www.w3.org/2000/svg" xmlns:xlink="http://www.w3.org/1999/xlink" width="101.27" height="101.459" viewBox="0 0 101.27 101.459"><defs><clipPath id="a"><path d="M60.529,50.613A50.611,50.611,0,1,0,111.14,0,50.612,50.612,0,0,0,60.529,50.613" transform="translate(-60.529 -0.002)" fill="none"/></clipPath><clipPath id="b"><path d="M60.564,50.8A50.611,50.611,0,1,0,111.175.186,50.612,50.612,0,0,0,60.564,50.8" transform="translate(-60.564 -0.186)" fill="none"/></clipPath></defs><g transform="translate(-7209.526 -727)"><path d="M161.606,46.772A50.612,50.612,0,1,1,107.3.149a50.612,50.612,0,0,1,54.308,46.623" transform="translate(7149 727)" fill="#e297c1"/><path d="M112.633,23.854c-.574-.037-1.155-.033-1.722-.119a8.75,8.75,0,0,1-5.016-2.574,8.9,8.9,0,0,1-2.322-4.191c-.057-.231-.091-.467-.135-.7-.005-.029-.005-.058-.01-.126a6.668,6.668,0,0,0,5.712,1.648,6.454,6.454,0,0,0,4.1-2.463,6.477,6.477,0,0,0,1.369-4.887A6.862,6.862,0,0,0,112.2,5.956c.333.018.668.019,1,.057a8.829,8.829,0,0,1,5.854,3.071,8.6,8.6,0,0,1,2,4.209c.039.215.081.43.122.645l.034.452c-.005.086-.013.173-.016.259-.01.369,0,.741-.034,1.108a8.924,8.924,0,0,1-7.284,7.929c-.289.053-.58.093-.871.138l-.376.029" transform="translate(7160.569 728.606)" fill="#fff"/><g transform="translate(7209.53 727.003)"><g transform="translate(0 0)" clip-path="url(#a)"><path d="M171.484,26.251v7.02s-.736-10.161,0-10.161H157.746v7.015h-7.653v6.005H146.93V27.849h-7.638v8.282h-7.317s-.868-11.694,0-12.077-10.28,0-10.28,0-.02.587-.055,1.593h-6.379v7.019s-.736-17.8,0-17.8l-13.738-.02v14.68H93.869v6H90.707V27.244H83.068v8.281H75.751s-.868-11.694,0-12.076-10.28,0-10.28,0-1.112,21.075,0,21.731l-6.441.041.4-18.358L0,55.53,41.449,97.885l78.178,8.6,63.4,5.5,46.147-65.122L187.2,20.075l-.708,17.751h-5.967l-.193,4.04-.272-15.614Z" transform="translate(-76.851 3.999)" fill="#e64e20"/></g></g><g transform="translate(7209.574 727.236)"><g transform="translate(0 0)" clip-path="url(#b)"><path d="M161.544,96.729a50.612,50.612,0,1,1-101.223,0c0-6.5,22.66-28.021,50.611-28.021s50.612,15.869,50.612,28.021" transform="translate(-60.63 18.291)" fill="#1b90d2"/></g></g><path d="M96.228,66.033a6.827,6.827,0,1,1-5.59-6.719,6.9,6.9,0,0,1,5.59,6.719.953.953,0,0,0,1.9,0,8.735,8.735,0,1,0-7.092,8.574,8.855,8.855,0,0,0,7.092-8.574.953.953,0,0,0-1.9,0" transform="translate(7154.436 742.453)" fill="#fff"/><path d="M120.941,66.033a6.827,6.827,0,1,1-5.59-6.719,6.9,6.9,0,0,1,5.59,6.719.953.953,0,0,0,1.9,0,8.735,8.735,0,1,0-7.092,8.574,8.855,8.855,0,0,0,7.092-8.574.953.953,0,0,0-1.9,0" transform="translate(7161.1 742.453)" fill="#fff"/><path d="M93.872,65.334h15.816a.953.953,0,0,0,0-1.9H93.872a.953.953,0,0,0,0,1.9" transform="translate(7157.744 744.104)" fill="#fff"/><path d="M130.29,72.79c2.221.166,4.893.235,6.955-.715,2.921-1.347,3.29-4.575,3.316-7.4.027-2.727.088-5.453.118-8.18a53.726,53.726,0,0,0-.067-6.917c-.395-3.286-3.236-5.848-5.174-8.321-1.719-2.2-3.273-4.708-6.223-5.176-3.332-.528-6.945-.2-10.3-.206Q103,35.864,87.087,35.9c-2.331,0-4.759-.176-7.086.014-3.5.287-5.421,2.939-5.663,6.259-.118,1.628-.069,3.28-.072,4.911-.015,5.341.018,10.683.055,16.024.027,3.975.142,8.164,4.827,9.359a11.825,11.825,0,0,0,4.205.325c1.2-.141,1.216-2.047,0-1.9a10.072,10.072,0,0,1-4.228-.406,4.029,4.029,0,0,1-2.819-3.745,21.067,21.067,0,0,1-.074-2.565q-.05-6.961-.065-13.922c0-2.128-.006-4.257.025-6.384.033-2.2.124-4.775,2.518-5.744,1.816-.735,4.841-.312,6.771-.315q14.4-.021,28.795-.025c3.692,0,7.384,0,11.076.017,1.491.008,3.227-.166,4.6.423a6.316,6.316,0,0,1,2.194,1.943c1.306,1.571,2.528,3.21,3.806,4.8,1.1,1.37,2.388,2.755,2.727,4.536a17.322,17.322,0,0,1,.11,2.31c.032,3.034-.03,6.07-.079,9.1-.038,2.4.519,6.027-.833,8.093-1.539,2.351-5.11,2.064-7.59,1.879-1.223-.091-1.216,1.813,0,1.9" transform="translate(7152.703 736.648)" fill="#fff"/><path d="M127.222,54.736h-2.985a4.658,4.658,0,0,0-2.381.59,2.827,2.827,0,0,0-1.4,1.943,3.085,3.085,0,0,0,.78,2.668,4.331,4.331,0,0,0,2.881,1.154c1.013.042,2.031.03,3.046.046a.952.952,0,1,0,0-1.9L124.4,59.19c-.183,0-.358-.013-.54-.027.342.025.105.014-.03-.011-.118-.023-.235-.051-.35-.083s-.227-.075-.34-.112c-.145-.048.213.105-.006,0-.062-.032-.124-.062-.185-.1s-.121-.072-.18-.11c-.011-.006-.088-.061-.088-.061s.184.161.065.05c-.047-.043-.1-.084-.141-.13-.025-.025-.05-.053-.075-.08-.136-.137.011.042.025.042-.024,0-.112-.173-.123-.193s-.036-.07-.055-.1c-.069-.128.047.051.025.061,0,0-.062-.206-.063-.211-.01-.043-.015-.088-.028-.13-.032-.1.006.2,0,.014,0-.1-.008-.19,0-.286a.691.691,0,0,1,.01-.135c.013-.009-.046.2-.01.093.025-.075.039-.16.062-.236.01-.036.053-.165,0-.023s.01-.013.025-.039.077-.171.118-.185c.018-.006-.145.156-.066.086a.829.829,0,0,0,.071-.079c.05-.051.1-.1.154-.145.149-.137-.174.105.036-.022.108-.066.217-.126.33-.184.178-.093-.175.058-.025.009.066-.023.131-.05.2-.071a4.564,4.564,0,0,1,.608-.147c.258-.048-.231.014-.041.005.032,0,.063-.008.1-.009.085,0,.171,0,.256,0h3.09a.952.952,0,0,0,0-1.9" transform="translate(7165.148 741.76)" fill="#fff"/><path d="M80.5,53.938H75.586a.952.952,0,0,0,0,1.9H80.5a.952.952,0,1,0,0-1.9" transform="translate(7152.804 741.545)" fill="#fff"/><path d="M78.838,57.3H75.586a.952.952,0,0,0,0,1.9h3.252a.952.952,0,1,0,0-1.9" transform="translate(7152.804 742.452)" fill="#fff"/><path d="M137.616,51.658l-45.13.151c-2.061.006-4.144.1-6.2.02a6.957,6.957,0,0,1-1.456-.207c-2.184-.56-2.65-2.638-2.285-4.623.263-1.428.674-3.711,1.718-4.8a3.08,3.08,0,0,1,2.226-.771c7.59-.362,15.273-.037,22.869-.028q11.549.011,23.1.039a.953.953,0,0,0,0-1.9q-10.416-.025-20.833-.037c-8.318-.01-16.664-.209-24.98.023-1.99.056-3.721.748-4.605,2.651-1.235,2.659-2.471,6.765-.554,9.383,1.7,2.32,4.479,2.175,7.033,2.167l26.411-.089,22.691-.076a.953.953,0,0,0,0-1.9" transform="translate(7154.383 737.628)" fill="#fff"/><path d="M91.653,40.594V52.506a.953.953,0,0,0,1.9,0V40.594a.953.953,0,0,0-1.9,0" transform="translate(7157.394 737.698)" fill="#fff"/><path d="M114.173,40.594V52.506a.953.953,0,0,0,1.9,0V40.594a.953.953,0,0,0-1.9,0" transform="translate(7163.466 737.698)" fill="#fff"/></g></svg>