<svg xmlns="http://www.w3.org/2000/svg" xmlns:xlink="http://www.w3.org/1999/xlink" width="101.421" height="101.275" viewBox="0 0 101.421 101.275"><defs><clipPath id="a"><path d="M54.96,0A50.636,50.636,0,1,0,105.6,50.637,50.636,50.636,0,0,0,54.96,0Z" transform="translate(-4.324 -0.001)" fill="none"/></clipPath></defs><g transform="translate(-7217.324 -916)"><path d="M105.6,50.637A50.637,50.637,0,1,1,54.96,0,50.638,50.638,0,0,1,105.6,50.637" transform="translate(7213 916)" fill="#1b90d2"/><g transform="translate(7217.472 916.003)" clip-path="url(#a)"><path d="M6.033,38.158c1.172-1.59,17.413-18.845,20.059-22.494s4.193-5.334,4.612-3.788a6.594,6.594,0,0,0,1.963,2.814s.6,2.671,1.776,2.251,2.647-1.261,3.384-.277S39.851,18.492,41.1,19.9s18.02,7.5,19.566,7.506,10.992-5.462,12.116-5.465S76.569,27.846,76.991,27s5.978-4.626,6.4-3.924,9.335,4.861,9.76,3.317,14.245-1.761,16.068.49,20.739,36.419,20.739,36.419-11.392,33.215-23.637,35.476-79.554,11.1-89.093,1.064S0,62.969,0,62.969Z" transform="translate(-5.493 3.054)" fill="#005da9"/><path d="M74.74,23.156A12.363,12.363,0,1,1,62.378,10.794,12.362,12.362,0,0,1,74.74,23.156" transform="translate(8.025 2.916)" fill="#e297c1"/><path d="M91.068,83.868c.34-.358-8.973-10.651-16.271-18.541-1.052-1.137-6.373-.8-6.373-.8l-.285-7.3H37.909l-.577,7.545-6.566.168L11.523,85.722s38.316,41.357,79.545-1.853" transform="translate(-2.378 15.466)" fill="#123552"/></g><path d="M33.859,31.416H66.624l-.823-.471,7.436,13.208q2.075,3.683,4.147,7.366a9.957,9.957,0,0,0,.5.888c.286.4-.005.379.05-.136a28.583,28.583,0,0,0,0,2.951v9.042l.953-.953H22.023l.953.953V56.432c0-.876.338-2.556,0-3.378-.072-.178-.315.47-.044.179a3.634,3.634,0,0,0,.391-.743q4.276-8.109,8.55-16.219,1.4-2.664,2.81-5.328c.57-1.085-1.073-2.049-1.646-.963Q29.418,36.849,25.8,43.716L21.845,51.21a10.522,10.522,0,0,0-.645,1.225,8.039,8.039,0,0,0-.13,2.621v9.208a.966.966,0,0,0,.953.953H78.887a.966.966,0,0,0,.953-.953V56.234c0-1.575.381-3.528-.4-4.95-2.913-5.3-5.937-10.546-8.906-15.818l-3.088-5.485a.954.954,0,0,0-.822-.471H33.859a.953.953,0,0,0,0,1.905" transform="translate(7217.515 923.975)" fill="#fff"/><path d="M28.531,38.024h-4.49a4.593,4.593,0,0,0-2.961.641,3.86,3.86,0,0,0-.478,5.419,3.572,3.572,0,0,0,2.582.979c4.715.212,9.481.03,14.2.032q20.22,0,40.441-.039c1.756,0,3.312-.255,3.9-2.33a3.59,3.59,0,0,0-2.976-4.764c-1.758-.145-3.581.006-5.345.015a.953.953,0,0,0,0,1.905q2.193-.011,4.385-.02A2.4,2.4,0,0,1,79.5,40.2a2.008,2.008,0,0,1-.268,2.875c-.292.244-.018.071-.051.077a1.981,1.981,0,0,1-.4,0c-.54-.014-1.082,0-1.622,0q-7.565.011-15.129.02c-12.149.014-24.3.051-36.448,0-1.321-.005-3.68.459-3.911-1.311-.253-1.935,1.084-1.935,2.365-1.935h4.49a.953.953,0,0,0,0-1.905" transform="translate(7217.158 926.244)" fill="#fff"/><path d="M21.062,57.424v5.444a6.66,6.66,0,0,0,.076,1.526,2.829,2.829,0,0,0,2.891,2.082c2.388.051,4.781,0,7.169,0,1.668,0,3.431.337,4.553-1.217a3.506,3.506,0,0,0,.522-2.236c-.011-.761-.011-1.522-.01-2.283q0-1.66.022-3.317a.953.953,0,0,0-1.905,0c-.022,2-.028,3.993,0,5.988a1.1,1.1,0,0,1-.493,1.035,2.475,2.475,0,0,1-.243.131c-.03.015.1.025-.01,0-.215-.046.283.047.127-.009a2.457,2.457,0,0,0-.676,0H24.807a4.821,4.821,0,0,1-1.241-.047.8.8,0,0,1-.438-.264A.9.9,0,0,1,23,63.992c-.019-.065-.028-.132-.044-.2-.027-.1.008.235.011.084,0-.029,0-.06,0-.09.013-.258,0-.521,0-.78V57.424a.953.953,0,0,0-1.905,0" transform="translate(7217.522 931.272)" fill="#fff"/><path d="M55.343,57.424v5.444a6.66,6.66,0,0,0,.076,1.526,2.829,2.829,0,0,0,2.891,2.082c2.388.051,4.781,0,7.169,0,1.668,0,3.431.337,4.553-1.217a3.506,3.506,0,0,0,.522-2.236c-.011-.761-.011-1.522-.01-2.283q0-1.66.022-3.317a.953.953,0,0,0-1.905,0c-.022,2-.028,3.993,0,5.988a1.1,1.1,0,0,1-.493,1.035,2.476,2.476,0,0,1-.243.131c-.03.015.1.025-.01,0-.215-.046.283.047.127-.009a2.457,2.457,0,0,0-.676,0H59.088a4.821,4.821,0,0,1-1.241-.047.8.8,0,0,1-.438-.264.9.9,0,0,1-.126-.267c-.019-.065-.028-.132-.044-.2-.027-.1.008.235.011.084,0-.029,0-.06,0-.09.013-.258,0-.521,0-.78V57.424a.953.953,0,0,0-1.905,0" transform="translate(7226.788 931.272)" fill="#fff"/><path d="M37.029,51.111H56.006a.953.953,0,0,0,0-1.905H37.029a.953.953,0,0,0,0,1.905" transform="translate(7221.591 929.3)" fill="#fff"/><path d="M33.476,50.95a2.771,2.771,0,0,1-4.954,1.707c.084.1-.018-.023-.028-.038-.057-.079-.109-.161-.159-.244-.034-.056-.066-.113-.1-.17,0,0-.135-.286-.069-.128a3.4,3.4,0,0,1-.152-.471c-.017-.065-.028-.131-.043-.2-.019-.117-.023-.133-.011-.048-.006-.051-.01-.1-.014-.152a2.837,2.837,0,0,1,.046-.817,4.2,4.2,0,0,1,.141-.478,2.448,2.448,0,0,1,.2-.39,2.166,2.166,0,0,1,.521-.633,3.029,3.029,0,0,1,.772-.5c-.039.018-.138.047.046-.017.093-.033.187-.066.282-.093.065-.018.13-.033.194-.048-.028.006.293-.052.171-.036s.21-.015.179-.013c.086-.005.173-.006.259-.005s.171.006.258.011c.2.013-.032-.02.15.022a2.822,2.822,0,0,1,1.663.953c.2.226-.085-.136.091.112.057.079.109.161.159.244s.1.17.141.258c.083.165-.008-.058.06.132a5.681,5.681,0,0,1,.16.575c0,.018.029.184.011.048a3.423,3.423,0,0,1,.023.412.953.953,0,0,0,1.905,0A4.746,4.746,0,0,0,32.3,46.558a4.678,4.678,0,0,0-5.151,1.376,4.67,4.67,0,1,0,8.237,3.017.953.953,0,0,0-1.905,0" transform="translate(7218.871 928.508)" fill="#fff"/><path d="M62.481,50.95a2.771,2.771,0,0,1-4.954,1.707c.084.1-.018-.023-.028-.038-.056-.079-.109-.161-.159-.244-.034-.056-.066-.113-.1-.17,0,0-.135-.286-.069-.128a3.4,3.4,0,0,1-.152-.471c-.017-.065-.028-.131-.043-.2-.019-.117-.023-.133-.011-.048-.006-.051-.01-.1-.014-.152A2.838,2.838,0,0,1,57,50.393a4.2,4.2,0,0,1,.141-.478,2.447,2.447,0,0,1,.2-.39,2.166,2.166,0,0,1,.521-.633,3.028,3.028,0,0,1,.772-.5c-.039.018-.138.047.046-.017.093-.033.187-.066.282-.093.065-.018.13-.033.194-.048-.028.006.293-.052.171-.036s.21-.015.179-.013c.086-.005.173-.006.259-.005s.171.006.258.011c.2.013-.032-.02.15.022a2.822,2.822,0,0,1,1.663.953c.2.226-.085-.136.091.112.057.079.109.161.159.244s.1.17.141.258c.083.165-.008-.058.06.132a5.682,5.682,0,0,1,.16.575c0,.018.029.184.011.048a3.424,3.424,0,0,1,.023.412.953.953,0,0,0,1.905,0A4.746,4.746,0,0,0,61.3,46.558a4.678,4.678,0,0,0-5.151,1.376,4.67,4.67,0,1,0,8.237,3.017.953.953,0,0,0-1.905,0" transform="translate(7226.71 928.508)" fill="#fff"/></g></svg>