<svg xmlns="http://www.w3.org/2000/svg" width="387" height="328.944" viewBox="0 0 387 328.944"><g transform="translate(-5063 -3440.882)"><g transform="translate(5118.038 3440.882)"><path d="M352.563,1544.869c6.078,85.929-58.185,160.482-143.536,166.519S49.559,1652.661,43.481,1566.732s58.185-160.482,143.536-166.519,159.468,58.727,165.547,144.656" transform="translate(-42.387 -1399.127)" fill="#44a8d3"/><path d="M284.034,1445.063c-.57.983,1.54,4.006,5.294,3.74s5.587-1.028,7.44,2.955.644,18,3.191,22.88,6.523,7.768,9.138,4.735,1.767-10.57,5.075-12.7,15.286-10.577,15.466-16.92-4.533-10.758-15.572-11.243-25.83-.705-30.032,6.556" transform="translate(-166.4 -1418.938)" fill="#005ea9"/><path d="M186.146,1726.166a4.4,4.4,0,0,0-2.246,4.262c.621,5.265-.67,18.585-5.042,23.12-5.567,5.774-2.693,15.267-2.511,19.169.371,7.924,1.468,11.382,11.179,14.494s13.424,3.064,14.658,10.574,4.388,36.632,7.721,43.993,10.148,19.223,13.5,21.835,10.8,3.667,5.5-6.719-8.459-15.228-3.636-21.583,12.587-20.831,12.908-26.235,3.246-8.775,6-9.6,8.566-3.138,10.181-5.152-2.261-7.12-3.645-11.77-1.584-7.485,6.893-11.883,3.522-14.809-8.57-16.8-19.86-7.459-18.885-13.541-8.423-4.785-14.22-7.224-5.943-6.9-12.322-8.584c-8.621-2.273-14.411-.161-17.46,1.651" transform="translate(-110.537 -1565.793)" fill="#005ea9"/><path d="M495.627,1553.519c-2.918-3.795-3.034-10.122,2.946-19.212,4.7-7.142-3.21-13.391-6.819-15.744a.871.871,0,0,1,.327-1.586c4.21-.784,14.157-.045,20.048,21.706,7.62,28.133,9.222,18.017,11.953,14.49s-3.256-9.33,1.84-16.133c3.211-4.288,4.57-10.308,5.132-15.178a156.083,156.083,0,0,0-90.035-96.717c.411,4.963.445,22.353-20.191,16.64,0,0-12.944-5.086-8.265,18.922s13.063-2.59,14.97-3.726,7.085-2.835,5.928,13.583c0,0,.069,5.663-10.216,5.391s-11.91,4.843-11.723,7.5,1.669,9.55-3.581,14.923-2.687,18.194,4.587,13.345,11.584-18.823,18.41-20.64,13.72,6.7,20.146,3.909,2.663-13.858,5.958-14.091,10.684,5.912,10.047,10.958-10.687,8.091-7.629,13.876,8.52,3.4,10.449,7.263-7.628,9.208-15.889,4.791-9.062,2.975-13.251-.063-5.011-9.981-10.449-7.262-8.4,7.6-15.419,11.426-12.641,8.563-12.312,13.207,3.316,9.435,2.515,16.827-1.7,27.459,21.743,21.8,21.346,6.825,21.44,8.152.985,18.6,3.5,21.424,8.4,11.075,1.619,22.89-2.032,36.819,4.653,33.012,12.69-17.234,20.788-24.476,17.919-36.942,12.342-45.549,5.77-16.745,7-22.834.355-9.027-2.563-12.821" transform="translate(-227.483 -1412.164)" fill="#005ea9"/><path d="M96.141,1491.812c.53,5.517,11.116.685,7.967,6.572-9.5,17.765-8.556,26.244-8.389,43.324s25.852,45.394,31.945,48.129,6.469-4.822,6.046-10.805-3.439-12.984-7.382-19.668-4.256-11.094-3.42-14,4.913-4.145,7.875-1.506,9.782,4.684,12.847,2.687c3.768-2.455,1.638-10.871,2.819-13.8s8.644-5.359,11.329-11.562,7.687-9.09,13.7-12.364,11.452-4.925,12.354-6.887-.791-6.276.579-11.436,5.091-11.438,3.186-13.836-7.374-6.125-16.6.858-11.642,7.154-14.738,2.625,1.905-17.227,13.991-18.082,14.237-4.8,14.382-7.664-3.877-5.74-8.066-6.077-4.723,1.917-21.544,9.437c-11.227,5.02-22.1,3.419-27.651,2.685-7.472,5.841-24.954,24.494-31.237,31.379" transform="translate(-69.435 -1424.075)" fill="#005ea9"/><path d="M632.452,1757.636c-2.372-.357-1.446,5.352-4.486,6.617s-4.225,2.924-3.041,8.615.424,13.356-2.486,16.45-7.173,5.494-6.933,12.564-5.766,14.32-9.491,16.946-9.433,6.7-9.008,12.712c.273,3.869.521,8.82,1.684,12.56a156.03,156.03,0,0,0,37.315-77.956c-.881-3.812-2.2-8.3-3.554-8.508" transform="translate(-327.578 -1583.348)" fill="#005ea9"/><path d="M429.617,1688.084a.7.7,0,0,1-.033-1.2,155.224,155.224,0,0,0,72.157-142.706c-5.97-84.4-76.383-147.768-160.3-144.264l-4.509.254c-.661.047-1.333.1-2,.157a.7.7,0,1,1-.119-1.388q1.017-.087,2.035-.16l4.53-.255A154.27,154.27,0,0,1,451.436,1438.2a157.309,157.309,0,0,1-21.112,249.867.694.694,0,0,1-.708.02" transform="translate(-192.26 -1398.388)" fill="#1d8ed1"/><path d="M169.107,1439.292a.7.7,0,0,1-.081-1.167,166.069,166.069,0,0,1,46.643-24.817.7.7,0,1,1,.439,1.322,164.689,164.689,0,0,0-46.245,24.609.7.7,0,0,1-.755.052" transform="translate(-107.089 -1406.052)" fill="#1d8ed1"/><path d="M113.068,1491.332a.7.7,0,0,1-.11-.075.7.7,0,0,1-.09-.981,162.242,162.242,0,0,1,27.3-25.922.7.7,0,1,1,.836,1.114,160.819,160.819,0,0,0-27.068,25.7.7.7,0,0,1-.872.164" transform="translate(-78.235 -1432.28)" fill="#1d8ed1"/><path d="M339.566,1998.457c-4.414-7.255-5.945-27.139,1.935-33.4,5.341-4.242,14.33-6.578,19.14-2.953,4.72,3.557,2.829,10.906,6.659,12.434,3.375,1.347,5.993-5.375,11.487-6.386,8.621-1.586,21.8,10.676,20.136,18.289-.563,2.57-2.129,6.263-5.9,7.635-13.849,5.038-28.966,8.712-43.193,7.571-3.067-.246-8.78-.759-10.262-3.194" transform="translate(-193.163 -1687.711)" fill="#005ea9"/><path d="M45.972,1724.459a.693.693,0,0,1-.342-.455,159.105,159.105,0,0,1-1.156-65.178.7.7,0,1,1,1.368.264,157.732,157.732,0,0,0,1.145,64.6.7.7,0,0,1-1.015.765" transform="translate(-41.649 -1532.19)" fill="#1d8ed1"/><path d="M370.525,2039.279a.7.7,0,0,1,.316-1.306c2.171-.062,4.373-.171,6.543-.325a155.21,155.21,0,0,0,20.314-2.795.7.7,0,0,1,.281,1.365,156.8,156.8,0,0,1-20.5,2.82c-2.189.155-4.411.265-6.6.327a.694.694,0,0,1-.356-.087" transform="translate(-210.794 -1726.081)" fill="#1d8ed1"/></g><g transform="translate(5328.363 3576.117)"><path d="M4708.689,1454.562l-4.6.34-85.723-.34a6.536,6.536,0,0,1-6.578-7.094l11.724-177.417a7.666,7.666,0,0,1,7.517-7.094l85.729-1.012c9.848,0,11.432,4.188,11.173,8.106l-11.725,177.417a7.666,7.666,0,0,1-7.516,7.094" transform="translate(-4606.319 -1261.823)" fill="#214464"/><path d="M4684.161,1456.248h-90.323a6.554,6.554,0,0,1-6.579-7.127l11.707-178.239a7.679,7.679,0,0,1,7.516-7.127H4696.8a6.555,6.555,0,0,1,6.58,7.127l-11.708,178.239a7.68,7.68,0,0,1-7.516,7.127" transform="translate(-4587.243 -1263.231)" fill="#1d8ed1"/><path d="M4610.518,1497.563l11.178-170.187a1.773,1.773,0,0,1,1.736-1.646h90.809a1.514,1.514,0,0,1,1.519,1.646l-11.178,170.188a1.773,1.773,0,0,1-1.735,1.645h-90.809a1.513,1.513,0,0,1-1.519-1.645" transform="translate(-4605.341 -1311.427)" fill="#fff"/><path d="M4865.6,1285.854a2.455,2.455,0,0,1-2.464-2.67,2.877,2.877,0,0,1,2.815-2.67,2.456,2.456,0,0,1,2.465,2.67,2.877,2.877,0,0,1-2.816,2.67" transform="translate(-4801.799 -1276.264)" fill="#0c1a2a"/><path d="M4657.772,1455.1c-22.6,0-47.3-.163-47.666-.166a.525.525,0,0,1,0-1.05h0c.544,0,54.732.363,76.023.014,5.27-.087,5.479-6.36,5.484-6.628l7.657-111.875,4.051-66.383a6.168,6.168,0,0,0-1.623-4.682,6,6,0,0,0-4.432-1.887h-90.323a7.155,7.155,0,0,0-6.992,6.636L4588.9,1440.452a.532.532,0,0,1-.558.49.524.524,0,0,1-.49-.558l11.064-171.372a8.221,8.221,0,0,1,8.039-7.618h90.323a7.034,7.034,0,0,1,5.2,2.22,7.207,7.207,0,0,1,1.906,5.467l-4.052,66.385-7.656,111.855c0,.051-.233,7.526-6.516,7.63-6.957.114-17.424.152-28.382.152" transform="translate(-4587.712 -1261.394)" fill="#005ea9"/><path d="M4679.706,1497.9H4610.2a2.02,2.02,0,0,1-1.495-.641,2.061,2.061,0,0,1-.549-1.564l11.179-170.187a2.308,2.308,0,0,1,2.258-2.136h90.81a2.022,2.022,0,0,1,1.495.64,2.061,2.061,0,0,1,.548,1.564l-9.518,144.9a.525.525,0,0,1-1.048-.069l9.519-144.9a1.027,1.027,0,0,0-.266-.778.986.986,0,0,0-.729-.308h-90.81a1.241,1.241,0,0,0-1.21,1.154L4609.2,1495.762a1.024,1.024,0,0,0,.268.778.983.983,0,0,0,.728.308h69.505a.525.525,0,1,1,0,1.05" transform="translate(-4603.503 -1309.592)" fill="#194a98"/><path d="M4762.632,1964.733h-46.509a4.181,4.181,0,0,1-4.243-4.225l.188-10.4a4.366,4.366,0,0,1,4.395-4.225h46.508a4.181,4.181,0,0,1,4.243,4.225l-.187,10.4a4.368,4.368,0,0,1-4.4,4.225" transform="translate(-4684.171 -1793.712)" fill="#005ea9"/><path d="M4733.438,1558.068h-80.354a1.34,1.34,0,0,1-1.383-1.461l4.644-89.349a2.1,2.1,0,0,1,2-1.909H4738.7a1.339,1.339,0,0,1,1.383,1.461l-4.643,89.349a2.1,2.1,0,0,1-2,1.909" transform="translate(-4637.369 -1420.007)" fill="#214464"/><path d="M4797.837,1576.862l-2.294-.341-.924-2.126a.6.6,0,0,0-1.087,0l-1.145,2.126-2.331.341a.637.637,0,0,0-.39,1.049l1.587,1.655-.517,2.337a.581.581,0,0,0,.846.649l2.125-1.1,2.011,1.1a.637.637,0,0,0,.913-.649l-.273-2.337,1.759-1.655a.6.6,0,0,0-.282-1.049" transform="translate(-4744.539 -1504.543)" fill="#e54e20"/><path d="M4845.858,1576.862l-2.294-.341-.924-2.126a.6.6,0,0,0-1.087,0l-1.144,2.126-2.33.341a.637.637,0,0,0-.391,1.049l1.587,1.655-.516,2.337a.581.581,0,0,0,.845.649l2.126-1.1,2.011,1.1a.637.637,0,0,0,.913-.649l-.273-2.337,1.759-1.655a.6.6,0,0,0-.282-1.049" transform="translate(-4781.884 -1504.543)" fill="#e54e20"/><path d="M4893.879,1576.862l-2.294-.341-.924-2.126a.6.6,0,0,0-1.087,0l-1.145,2.126-2.33.341a.637.637,0,0,0-.39,1.049l1.587,1.655-.517,2.337a.581.581,0,0,0,.846.649l2.125-1.1,2.011,1.1a.638.638,0,0,0,.913-.649l-.274-2.337,1.759-1.655a.6.6,0,0,0-.282-1.049" transform="translate(-4819.23 -1504.543)" fill="#e54e20"/><path d="M4941.9,1576.862l-2.294-.341-.923-2.126a.6.6,0,0,0-1.087,0l-1.144,2.126-2.331.341a.637.637,0,0,0-.391,1.049l1.587,1.655-.516,2.337a.581.581,0,0,0,.845.649l2.125-1.1,2.011,1.1a.637.637,0,0,0,.913-.649l-.273-2.337,1.759-1.655a.6.6,0,0,0-.282-1.049" transform="translate(-4856.574 -1504.543)" fill="#e54e20"/><path d="M4989.92,1576.862l-2.294-.341-.924-2.126a.6.6,0,0,0-1.087,0l-1.145,2.126-2.331.341a.637.637,0,0,0-.39,1.049l1.588,1.655-.517,2.337a.581.581,0,0,0,.846.649l2.125-1.1,2.011,1.1a.637.637,0,0,0,.913-.649l-.273-2.337,1.76-1.655a.6.6,0,0,0-.282-1.049" transform="translate(-4893.92 -1504.543)" fill="#e54e20"/><path d="M4767.6,1674.9l-62.153.056-.418-18.263a4.279,4.279,0,0,1,4.2-4.046h57.253a3.774,3.774,0,0,1,3.776,4.046Z" transform="translate(-4678.839 -1565.668)" fill="#1d8ed1"/><path d="M4703.092,1673.645l-.431-18.8v-.02a4.817,4.817,0,0,1,4.722-4.544h57.252a4.25,4.25,0,0,1,3.116,1.325,4.371,4.371,0,0,1,1.185,3.273l0,.048-2.722,18.655Zm.621-18.78.405,17.729,61.187-.056,2.584-17.733a3.33,3.33,0,0,0-.9-2.472,3.213,3.213,0,0,0-2.355-1h-57.252a3.751,3.751,0,0,0-3.671,3.53" transform="translate(-4677.001 -1563.83)" fill="#133653"/><path d="M4752.972,1741.373l-72.8-.337,5.738-8.766,62.887.225Z" transform="translate(-4659.516 -1627.587)" fill="#005ea9"/><path d="M4750.763,1711.714H4730a1.808,1.808,0,0,1-1.809-1.938l.149-2.866a2.05,2.05,0,0,1,2.011-1.939h20.763a1.809,1.809,0,0,1,1.81,1.939l-.148,2.866a2.05,2.05,0,0,1-2.011,1.938" transform="translate(-4696.853 -1606.358)" fill="#0c1a2a"/><path d="M4883.012,1711.713h-20.763a1.809,1.809,0,0,1-1.81-1.939l.149-2.866a2.049,2.049,0,0,1,2.01-1.939h20.764a1.808,1.808,0,0,1,1.809,1.939l-.148,2.866a2.051,2.051,0,0,1-2.011,1.939" transform="translate(-4799.702 -1606.357)" fill="#0c1a2a"/><path d="M4683.32,1738.04a.525.525,0,0,1-.439-.812l4.632-7.081a.525.525,0,0,1,.878.575l-4.632,7.08a.524.524,0,0,1-.439.237" transform="translate(-4661.552 -1625.752)" fill="#133653"/><path d="M4990.2,1740a.523.523,0,0,1-.487-.332l-3.182-8.035a.525.525,0,1,1,.977-.386l3.182,8.036a.525.525,0,0,1-.3.681.515.515,0,0,1-.193.037" transform="translate(-4897.738 -1626.536)" fill="#133653"/><path d="M4685.434,1744.068l2.7-4.046,66.034-.168,1.758,4.552Z" transform="translate(-4663.604 -1633.485)" fill="#0c1a2a"/><path d="M4744.855,1771.2h-66.608a3.932,3.932,0,0,1-3.934-4.215l.482-9.272a4.457,4.457,0,0,1,4.372-4.214h66.608a3.932,3.932,0,0,1,3.934,4.214l-.481,9.272a4.458,4.458,0,0,1-4.372,4.215" transform="translate(-4654.951 -1644.1)" fill="#1d8ed1"/><path d="M4743.019,1769.892H4676.41a4.406,4.406,0,0,1-3.23-1.374,4.531,4.531,0,0,1-1.227-3.393l.481-9.272a5,5,0,0,1,4.9-4.712h66.609a4.407,4.407,0,0,1,3.23,1.374,4.536,4.536,0,0,1,1.228,3.393l-.481,9.272a5,5,0,0,1-4.9,4.712m-65.689-17.7a3.933,3.933,0,0,0-3.848,3.717l-.48,9.272a3.491,3.491,0,0,0,.94,2.616,3.366,3.366,0,0,0,2.468,1.046h66.609a3.932,3.932,0,0,0,3.848-3.717l.481-9.272a3.49,3.49,0,0,0-.941-2.616,3.365,3.365,0,0,0-2.468-1.047Z" transform="translate(-4653.115 -1642.264)" fill="#133653"/><path d="M4834.66,1538.991h-51.492a1.1,1.1,0,0,1-1.1-1.18l.157-3.035a1.249,1.249,0,0,1,1.225-1.18h51.492a1.1,1.1,0,0,1,1.1,1.18l-.157,3.035a1.248,1.248,0,0,1-1.224,1.18" transform="translate(-4738.753 -1473.082)" fill="#005ea9"/><path d="M4891.582,1501.081h-36.211a1.1,1.1,0,0,1-1.1-1.18l.158-3.034a1.248,1.248,0,0,1,1.223-1.18h36.211a1.1,1.1,0,0,1,1.1,1.18l-.158,3.034a1.248,1.248,0,0,1-1.224,1.18" transform="translate(-4794.905 -1443.6)" fill="#005ea9"/><path d="M4788.616,1389.685h-62.374a.911.911,0,0,1-.834-1.06l.367-4.954a1.09,1.09,0,0,1,.991-1.06h62.375a.911.911,0,0,1,.833,1.06l-.368,4.954a1.089,1.089,0,0,1-.99,1.06" transform="translate(-4694.689 -1355.663)" fill="#005ea9"/></g><g transform="translate(5063 3469.312)"><path d="M293.811,1058.781l-4.88,23.112-10.731.775,4.572-25.448Z" transform="translate(-216.484 -793.473)" fill="#fff"/><path d="M293.811,1058.781l-4.88,23.112-10.731.775,4.572-25.448Z" transform="translate(-216.484 -793.473)" fill="none" stroke="#141c38" stroke-miterlimit="10" stroke-width="5"/><path d="M213.223,1133.56a84.956,84.956,0,0,1,.86,10.06,4.582,4.582,0,0,1-4,4.583,178.678,178.678,0,0,1-33.722.609,3.24,3.24,0,0,1-2.8-2.861c-1.418-7.232,11.092-9,24.808-14.251a1.475,1.475,0,0,1,1.558.319l1.479,1.44a5.1,5.1,0,0,0,5.57,1.037l4.5-1.93a1.264,1.264,0,0,1,1.749.993" transform="translate(-137.867 -849.298)" fill="#e54e20"/><path d="M214.182,1177.545s.008.376.01.557a4.583,4.583,0,0,1-4,4.583,178.678,178.678,0,0,1-33.722.609,3.24,3.24,0,0,1-2.8-2.861,9.518,9.518,0,0,1-.05-1.851l.889.044a258.058,258.058,0,0,0,37.965-.914Z" transform="translate(-137.975 -883.78)" fill="#0c1a2a"/><path d="M243.76,1147.075a.822.822,0,0,1-.586-.244l-4.813-4.842a.827.827,0,0,1,1.172-1.166l4.813,4.842a.826.826,0,0,1-.586,1.409" transform="translate(-186.404 -856.036)" fill="#fff"/><path d="M227.721,1151.568a.827.827,0,0,1-.6-.255l-3.845-4.019a.827.827,0,1,1,1.195-1.143l3.845,4.018a.827.827,0,0,1-.6,1.4" transform="translate(-175.091 -860.026)" fill="#fff"/><path d="M529.675,1039.521l2.887,20.383h6.248l.348-20.046Z" transform="translate(-405.223 -780.188)" fill="#fff"/><path d="M529.675,1039.521l2.887,20.383h6.248l.348-20.046Z" transform="translate(-405.223 -780.188)" fill="none" stroke="#141c38" stroke-miterlimit="10" stroke-width="5"/><path d="M540.108,1128.651c3.709-.614,5.8-3.293,5.913-5.6.34-6.859-1.462-13.379-4.839-17.8a.872.872,0,0,0-1.43.073l-.089.081a1.534,1.534,0,0,1-2.049-.016,2.846,2.846,0,0,0-1.809-.684l-.944-.013a3.165,3.165,0,0,0-2.659,1.468.738.738,0,0,1-1.173.072l-.534-.6a.58.58,0,0,0-.984.4l-.579,18.766c.282,3.674,6.322,4.661,11.177,3.858" transform="translate(-404.664 -829.098)" fill="#e54e20"/><path d="M529.086,1164.262a3.46,3.46,0,0,0,.523,1.149c.835,1.171,3.114,3.464,7.985,3.065a11.464,11.464,0,0,0,8.411-4.512,32.965,32.965,0,0,1,.016,3.576c-.114,2.307-2.2,4.986-5.913,5.6-4.855.8-10.9-.184-11.177-3.858Z" transform="translate(-404.664 -873.587)" fill="#0c1a2a"/><path d="M549.7,1142.632H543a.827.827,0,1,1,0-1.653h6.7a.827.827,0,0,1,0,1.653" transform="translate(-414.6 -856.336)" fill="#fff"/><path d="M546.913,1129.009h-6.7a.827.827,0,1,1,0-1.653h6.7a.827.827,0,0,1,0,1.653" transform="translate(-412.511 -846.111)" fill="#fff"/><path d="M296.2,496.449s-9.581,62.236-9.962,77.1-4.071,69.6-4.071,69.6a63.452,63.452,0,0,0,14.982,1.748s27.757-90.264,29.87-114.679-4.953-35.592-4.953-35.592Z" transform="translate(-219.463 -371.225)" fill="#e3edf4"/><path d="M375.984,479.76S412.566,588.215,413.1,628.755c0,0,2.228,1.473,12.516-.217,0,0,7.416-119.81-11.6-150.992Z" transform="translate(-289.873 -358.411)" fill="#e3edf4"/><path d="M297.2,186.783c-2.818-15.813-22.861-28.109-23.624-28.572-9.456-6.409-15.894-8.5-23.043-11.091-12.888-4.667-25.393-4.268-29.172-3.736-8.763.9-45.3,4.61-59.372,29.966-10.646,19.18,35.941,17.581,35.941,17.581a5.155,5.155,0,0,0,3.51-1.584c.759,2.942.922,6.282.412,11.123-1.316,12.5-3.614,38.569-4.074,43.809a.84.84,0,0,0,.855.913l62.72-1.106a1.187,1.187,0,0,0,1.161-1.286c-.264-3.25-1.008-12.368-1.874-22.677L268,226.261a5.694,5.694,0,0,0,7.2.067c7.857-6.28,25.078-22.253,22-39.545m-29.834,10.46-7.434,14.514c-.512-6-1.034-11.985-1.5-17.108a32.64,32.64,0,0,1,.445-8.812,2.191,2.191,0,0,1,.556-.932c1.96-1.885,5.605,1.266,5.605,1.266,2.954,2.467,3.771,7.708,2.328,11.073" transform="translate(-128.078 -107.38)" fill="#e54e20"/><path d="M485.26,234.9a7.223,7.223,0,0,0,1.109-1.03c.34-.323.674-.647,1.017-.967q1.135-1.078,2.275-2.151c1.461-1.385,2.922-2.776,4.4-4.151a.3.3,0,0,0-.04-.48,39.089,39.089,0,0,0,3.507-4.989c.668-1.111,1.3-2.241,1.92-3.374a9.4,9.4,0,0,0,1.2-2.639,8.443,8.443,0,0,0,1.537-6.5,11.233,11.233,0,0,0,.171-3.408,1.273,1.273,0,0,0-.838-1.1.988.988,0,0,0-.536-.009c-.016-.793.217-1.7-.588-2.159-.9-.509-1.6.172-2.03.933a1.12,1.12,0,0,0-.7-.6.921.921,0,0,0-.881.2.263.263,0,0,0-.307.215c-.043.245-.084.488-.127.733a8.273,8.273,0,0,0-.893,3.194,12.219,12.219,0,0,1-1.562,3.918,3.264,3.264,0,0,1-1.608,1.529,1.4,1.4,0,0,1-1.706-.654,5.61,5.61,0,0,1-.555-1.986c-.1-.64-.2-1.287-.309-1.924-.14-.8-.626-1.975-1.656-1.615a1.668,1.668,0,0,0-.788,2.12,15.345,15.345,0,0,1,.45,1.522,5.958,5.958,0,0,1,.033,1.41c-.072.934-.293,1.844-.455,2.764a8.526,8.526,0,0,0-.156,2.645,9.7,9.7,0,0,0,1.043,2.59c-2.351,1.833-4.728,3.536-7.194,5.122a.357.357,0,0,0,.029.61,7.822,7.822,0,0,0-1.048.967c-.569.363-1.376.7-1.214,1.509a7.258,7.258,0,0,0,1.264,2.225c.54.815,1.114,1.6,1.709,2.377s1.237,1.531,1.9,2.254c.409.448.931,1.324,1.632.906" transform="translate(-366.988 -151.429)" fill="#fff"/><path d="M512.259,229.765c-.088-.2-.17-.414-.25-.627-.057-.155-.111-.312-.159-.47a11.779,11.779,0,0,1-.571-4.1c.059-1.516.621-2.955.526-4.476-.043-.737-.173-1.473-.144-2.214a2.663,2.663,0,0,1,.266-1.226c.336-.573.934-.255,1.194.2.826,1.422.589,3.206,1.149,4.7.377,1.017,1.8,1.8,2.605.739.218-.284-.24-.575-.464-.3-.38.461-1.077.12-1.338-.284a3.477,3.477,0,0,1-.4-1.407,18.924,18.924,0,0,0-.64-2.96,2.308,2.308,0,0,0-1.1-1.562,1.211,1.211,0,0,0-1.6.58c-.724,1.329-.134,2.991-.176,4.408a20.357,20.357,0,0,1-.418,2.43,12.207,12.207,0,0,0-.124,2.331,12.6,12.6,0,0,0,.673,3.57q.086.26.19.519c.054.151.12.3.183.451.174.4.769.093.6-.3" transform="translate(-390.909 -161.864)" fill="#141c39"/><path d="M473.152,278.46c.137.214.267.439.385.67,3.321-2.462,6.632-4.933,9.84-7.524.183-.151.372-.3.555-.451-.049-.157-.1-.318-.135-.477-.195.132-.392.266-.584.4-3.422,2.365-6.747,4.866-10.061,7.381" transform="translate(-362.801 -203.15)" fill="#141c39"/><path d="M503.45,252.777c.594-.553,1.182-1.118,1.761-1.686,1.277-1.246,2.531-2.52,3.8-3.76.7-.688,1.439-1.363,2.165-2.063a68.189,68.189,0,0,0,4.113-5.654q1.551-2.381,2.908-4.883a27.034,27.034,0,0,0,2.215-5.038,9.544,9.544,0,0,0,.333-5.111c-.078-.272-.54-.281-.526.037a15.679,15.679,0,0,1-.062,2.976,14.637,14.637,0,0,1-.746,2.835,33.362,33.362,0,0,1-2.42,5c-1.058,1.882-2.207,3.706-3.43,5.481q-1.269,1.856-2.666,3.625-1.635,1.6-3.27,3.2c-1.543,1.507-3.061,3.063-4.641,4.539.154.168.308.337.465.5" transform="translate(-385.191 -168.402)" fill="#141c39"/><path d="M530.025,211.281c.808-.062,1.327-.829,1.769-1.434a9.862,9.862,0,0,0,1.284-2.379c.6-1.613.526-3.395,1.163-4.988a1.958,1.958,0,0,1,1.253-1.291,1.245,1.245,0,0,1,1.422.693,5.134,5.134,0,0,1,.333,2.141,14.276,14.276,0,0,1-.136,2.389,14.133,14.133,0,0,1-1.569,4.93.234.234,0,0,1-.415-.2,17.444,17.444,0,0,0,1.4-5.387,14.578,14.578,0,0,0-.022-2.744c-.057-.49-.191-1.318-.878-1.155-.545.13-.759.825-.9,1.29-.282.937-.36,1.918-.547,2.876a10.512,10.512,0,0,1-2.419,4.947c-.432.492-1.055,1.158-1.776.875-.24-.095-.278-.537.033-.561" transform="translate(-405.318 -150.97)" fill="#141c39"/><path d="M557.882,210.027a13.147,13.147,0,0,0,1.116-2.97,28.22,28.22,0,0,0,.491-3.1,9.4,9.4,0,0,0,.068-2.981c-.1-.482-.314-1.145-.915-1.13a.652.652,0,0,0-.535.305c-.129.2-.086.439-.177.653a.287.287,0,0,1-.48.1,1.1,1.1,0,0,1,.266-1.385,1.4,1.4,0,0,1,1.4-.31c1.238.407,1.3,2.211,1.236,3.275a29.371,29.371,0,0,1-.553,4.013,9.351,9.351,0,0,1-1.5,3.8.247.247,0,0,1-.412-.27" transform="translate(-425.953 -149.46)" fill="#141c39"/><path d="M564.181,218.116a13.681,13.681,0,0,0,1.75-4.473,12.842,12.842,0,0,0,.252-2.349c.006-.4.119-2.359-.559-2.165-.351.1-.523-.434-.21-.595a.841.841,0,0,1,.992.2,2.084,2.084,0,0,1,.387,1.323,13.227,13.227,0,0,1-.092,2.906,12.966,12.966,0,0,1-2.107,5.425.247.247,0,0,1-.412-.271" transform="translate(-431.091 -156.444)" fill="#141c39"/><path d="M107.3,147.85a23.335,23.335,0,0,0,8.963-1.369,92.142,92.142,0,0,1,9.954-2.673,80.873,80.873,0,0,1,10.469-1.123c2.842-.168,5.965-.467,8.383-2.133a7.875,7.875,0,0,0,3.505-5.894,5.348,5.348,0,0,0-.877-3.132c-.725-1.108-1.838-1.98-2.409-3.181-.642-1.358.593-2.572.569-3.971a6.586,6.586,0,0,0-1.5-3.682c-.914-1.2-2.147-2.328-2.592-3.808-.348-1.147-.039-2.723,1.256-3.078a.586.586,0,0,0,.446-.639,4.666,4.666,0,0,0,1.058-1.857c1.47-4.955-2.989-9.251-7.29-10.657-5.915-1.93-12.248.8-17.466,3.468a17.917,17.917,0,0,0-6.094,4.555,10.852,10.852,0,0,0-2.029,6.6c-.108,2.582-.02,5.331-2.406,6.931a9.1,9.1,0,0,0-2.759,2.271,7.641,7.641,0,0,0-1.08,3.044c-.435,2.438-.431,4.837-2.819,6.2a8.641,8.641,0,0,0-2.967,2.223,6.067,6.067,0,0,0-1.107,2.938c-.576,5.234,4.051,8.538,8.794,8.971" transform="translate(-81.581 -75.052)" fill="#141c39"/><path d="M94.481,163.964c1.225-.925,3.136-1.247,3.971-2.624.81-1.336.356-3.122.436-4.6.166-3.069,2.479-4.22,4.706-5.837a7.75,7.75,0,0,0,2.861-4.589c.547-2.068.969-4.176,1.447-6.261a.406.406,0,0,1,.792.175c-.332,1.75-.637,3.508-1,5.252a13.45,13.45,0,0,1-1.36,4.034,8.568,8.568,0,0,1-2.692,2.713,10.524,10.524,0,0,0-3.02,2.467c-1.556,2.32.363,5.511-1.587,7.741-.892,1.021-2.229,1.405-3.359,2.079a5.662,5.662,0,0,0-1.015,9.01A11.49,11.49,0,0,0,99.7,175.88c.7.19.456,1.29-.244,1.1-3-.814-6.055-2.042-7.253-5.162a6.847,6.847,0,0,1,2.275-7.854" transform="translate(-76.561 -104.885)" fill="#141c39"/><path d="M172.677,140.556a36.3,36.3,0,0,1,4.775-.278c.159-.033.318-.061.479-.1.3-.068.594-.159.886-.255a6.069,6.069,0,0,0,.792-.32c.082-.041.162-.086.242-.13a18.022,18.022,0,0,0,1.339-6.955c-.476-.815-1.041-2.328-1.985-2.556a7.676,7.676,0,0,1-1.819-.478,4.472,4.472,0,0,1-2.46-3.222c-.166-1.346,1.083-2.358,2.283-2.649a3.782,3.782,0,0,1,1.874.036c.431-2.04,2.24-3.346,3.113-5.183a8.142,8.142,0,0,0,.489-1.337.552.552,0,0,1-.5-.563,16.829,16.829,0,0,1,.358-4.642.542.542,0,0,1,.554-.44.675.675,0,0,1,.417-1.065c2.672-.368,5.463-.5,7.971.676a7.019,7.019,0,0,1,2.59,2.024,4.461,4.461,0,0,1,.308.482.553.553,0,0,1,.708.431c1.124,4.291,4.654,7.976,4.12,12.652a6.422,6.422,0,0,1-2.3,4.365,8.722,8.722,0,0,1-4.215,1.4,7.506,7.506,0,0,0-.321,2.028,4.51,4.51,0,0,1-.1.637c-.047.2-.089.418-.122.617-.128.707-.14.805-.267,1.512.6.064.76.006,1.328.033a30.338,30.338,0,0,1,6.235.567c.5.093.508,1.4.336,1.833a11.121,11.121,0,0,1-1.488,2.65c-.374,2.135-2.016,3.111-3.859,3.587a5.322,5.322,0,0,1-3.346.7,24.05,24.05,0,0,1-3.167.039c-.051.473-.446.943-.972.757-.575-.2-1.148-.393-1.722-.589a.522.522,0,0,1-.444.148,1.239,1.239,0,0,1-.166-.021,13.668,13.668,0,0,1-4.737-1.252c-2.811-.723-4.79-3.007-7.448-4.058-.585-.227-.255-1.009.237-1.077" transform="translate(-136.874 -82.677)" fill="#fff"/><path d="M254.863,129.356a4.078,4.078,0,0,0-.277,1.213c-.023.517.668.568.894.209a6.059,6.059,0,0,0,.55-1.507.523.523,0,0,0-.156-.513c-1.225-.9-2.617-1.912-2.977-3.471a2.107,2.107,0,0,1,.433-1.947,1.807,1.807,0,0,1,1-.558,1.491,1.491,0,0,1,.6.037.374.374,0,0,0,.469-.205c-.159-.248-.324-.488-.5-.726a2.147,2.147,0,0,0-1.208.073,2.489,2.489,0,0,0-.891.484,2.967,2.967,0,0,0-1.027,2.368c.028,2.03,1.577,3.417,3.083,4.543" transform="translate(-196.654 -91.438)" fill="#141c39"/><path d="M227.647,137.778c-.14-.508.03-.945.812-.73.492.135,1.226,1.09.87,1.57-.6.806-1.476-.093-1.682-.839" transform="translate(-178.509 -102.815)" fill="#141c39"/><path d="M212.566,123.359a6.457,6.457,0,0,1,4.109.11.46.46,0,0,1-.2.9,7.156,7.156,0,0,0-3.437-.049,2.859,2.859,0,0,0-1.056.646,3.631,3.631,0,0,0-.686,1.087.476.476,0,0,1-.889-.2,3.024,3.024,0,0,1,2.158-2.491" transform="translate(-165.604 -92.365)" fill="#141c39"/><path d="M253.745,132.267a1.3,1.3,0,0,1,.246-.318,1.349,1.349,0,0,1,.8-.363,1.366,1.366,0,0,1,.521-.134,1.2,1.2,0,0,1,.934.418,1.686,1.686,0,0,1,.457.928.662.662,0,0,1-.306.612.636.636,0,0,1-.466.07.939.939,0,0,1-.377-.209c-.134-.108-.262-.225-.385-.345q-.092-.09-.182-.184a.906.906,0,0,1-.149-.186.389.389,0,0,1-.136-.024.814.814,0,0,0-.194.27l.04-.109c-.017.05-.035.1-.056.148a.462.462,0,0,1-.47.341.438.438,0,0,1-.4-.418,1.029,1.029,0,0,1,.126-.5" transform="translate(-198.035 -98.657)" fill="#141c39"/><path d="M218.523,135.913a2.2,2.2,0,0,1,1.277-1.007,1.953,1.953,0,0,1,1.816.309.42.42,0,0,1,.017.591.431.431,0,0,1-.59.017c.1.073-.056-.029-.086-.045a1.276,1.276,0,0,0-.249-.082,1.536,1.536,0,0,0-.264-.013.678.678,0,0,0-.237.039,1.839,1.839,0,0,0-.2.066,1.961,1.961,0,0,0-.214.115c-.01.006-.087.064-.125.09a1.069,1.069,0,0,0-.105.094c-.034.035-.067.071-.1.109a1.53,1.53,0,0,0-.135.211,1.254,1.254,0,0,0-.075.239c-.008.076-.013.126-.022.176a.471.471,0,0,1-.906.036,1.4,1.4,0,0,1,.2-.945" transform="translate(-171.528 -101.176)" fill="#141c39"/><path d="M249.509,165.1a.515.515,0,0,1,.406.02,4.771,4.771,0,0,0,.463.154,5.978,5.978,0,0,0,.732.146,4.709,4.709,0,0,0,1.382-.034.449.449,0,0,1,.544.289.44.44,0,0,1-.288.544,5.35,5.35,0,0,1-1.722.145,4.792,4.792,0,0,1-.883-.152c-.145-.04-.288-.088-.429-.14a2.293,2.293,0,0,1-.229-.088.566.566,0,0,1-.273-.326.456.456,0,0,1,.3-.56" transform="translate(-194.708 -123.885)" fill="#141c39"/><path d="M168.942,198.1c.336.307.58.808.929,1.091a77.438,77.438,0,0,1,8.2-1.02c.394-.026,1.2-1.387,1.061-1.653.8-1.6.193-3.536.284-5.329.074-1.5-1.269-3.1-2.5-4.081-.469-.379-1.115.289-.652.685a4.071,4.071,0,0,1,1.107,3.615,12.845,12.845,0,0,1-1.338,4.512v0a.517.517,0,0,1-.435.315c-2.334.118-4.306,1.319-6.652,1.862" transform="translate(-134.483 -140.347)" fill="#fff"/><path d="M241.208,133.159a9.156,9.156,0,0,0,4.761-.137,8.591,8.591,0,0,0,3.484-1.825,7.37,7.37,0,0,0,2.171-7.241c-.6-3.03-2.239-5.84-3.588-8.588a14.154,14.154,0,0,0-.827-1.486c-.159-.248-.324-.487-.5-.726a7.446,7.446,0,0,0-4.534-2.948.412.412,0,0,0-.172.805,6.927,6.927,0,0,1,3.5,2.216,7.254,7.254,0,0,1,.632.821,13.46,13.46,0,0,1,1.052,1.844,45.791,45.791,0,0,1,3.193,7.281c.72,2.534.544,5.217-1.477,7.1a7.535,7.535,0,0,1-3.421,1.757,25.236,25.236,0,0,1-4.193.21.468.468,0,0,0-.082.92" transform="translate(-188.459 -82.705)" fill="#141c39"/><path d="M181.237,163.7a3,3,0,0,1,2.948-2.184c1.1.017,3.228.239,3.233,1.74,0,.5-.752.67-.887.152-.2-.777-1.4-.8-2.04-.833a2.273,2.273,0,0,0-1.5.337,2.131,2.131,0,0,0-.707.971c-.7,1.882,1.178,3.922,2.93,4.3a2.158,2.158,0,0,0,2.495-1.129c.267-.614,1.184-.124.92.488a3.113,3.113,0,0,1-3.03,1.743,5.006,5.006,0,0,1-3.456-1.891,4,4,0,0,1-.909-3.7" transform="translate(-143.597 -121.218)" fill="#141c39"/><path d="M190.462,172.63a4.889,4.889,0,0,1,2.023-.1,7.583,7.583,0,0,1,1.914.49.455.455,0,0,1-.311.844,6.956,6.956,0,0,0-1.718-.392c-.588-.054-1.176.009-1.763.01a.438.438,0,0,1-.146-.852" transform="translate(-150.41 -129.444)" fill="#141c39"/><path d="M195.335,174.418a.31.31,0,0,1,.07-.148.391.391,0,0,1,.211-.156.421.421,0,0,1,.471.177,4.4,4.4,0,0,1,.3.637l.116.287a1.958,1.958,0,0,1,.094.294.466.466,0,0,1-.258.567.45.45,0,0,1-.3.035.464.464,0,0,1-.3-.213,2.645,2.645,0,0,1-.157-.375l-.1-.305c-.03-.1-.066-.2-.091-.295-.032-.13-.053-.264-.073-.4,0-.035.006-.071.009-.106" transform="translate(-154.285 -130.665)" fill="#141c39"/><path d="M194.835,121.082c3.854-3.009,4.088-7.91,4.177-12.433a.534.534,0,0,1,.5-.542,27.7,27.7,0,0,1,4.847-.211,17.7,17.7,0,0,1,4.6,1.055c.492.181.336.986-.181.816a19.06,19.06,0,0,0-4.506-.9,14.508,14.508,0,0,0-4.218.185c-.031,4.548-.384,10.255-4.653,12.937-.593.373-1.09-.493-.561-.906" transform="translate(-153.747 -80.943)" fill="#141c39"/><path d="M342.074,1031.44l4.531,17.179a27.787,27.787,0,0,1,.7,10.533l-.907,7.257,22.883-3.734-2.957-2.178a26.949,26.949,0,0,1-10.235-15.467l-3.938-16.574Z" transform="translate(-264.423 -771.885)" fill="#fff"/><path d="M342.074,1031.44l4.531,17.179a27.787,27.787,0,0,1,.7,10.533l-.907,7.257,22.883-3.734-2.957-2.178a26.949,26.949,0,0,1-10.235-15.467l-3.938-16.574Z" transform="translate(-264.423 -771.885)" fill="none" stroke="#141c38" stroke-miterlimit="10" stroke-width="5"/><path d="M350.265,1152.23c-.172-3.033-.214-9.072,1.763-12.859a1.486,1.486,0,0,1,1.871-.681l5.236,2.094a1.238,1.238,0,0,0,1.7-1.149v-.357a.953.953,0,0,1,.9-.952l4.51-.236a10.619,10.619,0,0,1,4.9.919c4.664,2.091,14.57,7.029,16.938,12.192a1.843,1.843,0,0,1-1.626,2.573c-4.089.183-14.435.508-34.215.339a2,2,0,0,1-1.976-1.883" transform="translate(-270.514 -854.157)" fill="#141c38"/><path d="M376.223,1185.378c-4.114,0-9.155-.1-15.163-.371a.825.825,0,0,1-.788-.863.836.836,0,0,1,.863-.788c19.739.9,28.926-.13,29.017-.141a.827.827,0,0,1,.192,1.643,140.619,140.619,0,0,1-14.12.521" transform="translate(-278.081 -888.03)" fill="#e54e20"/><path d="M418.935,1152.073a.82.82,0,0,1-.453-.136l-7.786-5.106a.826.826,0,0,1,.906-1.382l7.786,5.107a.826.826,0,0,1-.453,1.517" transform="translate(-315.645 -859.589)" fill="#e54e20"/><path d="M126.786,1052.049l-2.767,19.426h-7l.681-19.105Z" transform="translate(-95.51 -789.592)" fill="#fff"/><path d="M126.786,1052.049l-2.767,19.426h-7l.681-19.105Z" transform="translate(-95.51 -789.592)" fill="none" stroke="#141c38" stroke-miterlimit="10" stroke-width="5"/><path d="M247.464,534.458s9.184,59.316,9.549,73.481,6.258,57.026,6.258,57.026a31.4,31.4,0,0,1-16.215.845s-27.107-75.9-29.133-99.173,4.748-33.922,4.748-33.922Z" transform="translate(-170.96 -399.816)" fill="#141c39"/><path d="M152.794,518.553S121.666,613.6,121.157,652.242a46.984,46.984,0,0,1-16.721,0s-6.323-106.08,11.9-135.8Z" transform="translate(-85.273 -387.604)" fill="#141c39"/><path d="M97.173,1134.636a42.1,42.1,0,0,1-13.02.058,3.05,3.05,0,0,1-2.434-3.843c1.3-4.613,4.013-13.128,7.451-17.59a.514.514,0,0,1,.891.151l.122.8a.493.493,0,0,0,.933.136l.757-1.6a1.089,1.089,0,0,1,.831-.523l2.659-.1a1.088,1.088,0,0,1,1.172.894l.092,1.265a.493.493,0,0,0,.925.2L98.7,1113.3a.4.4,0,0,1,.722.248l-.136,5.048a54.986,54.986,0,0,0,.79,10.889l.314,1.807c.164,1.667-1.548,3.162-3.213,3.34" transform="translate(-68.932 -834.674)" fill="#141c38"/><path d="M99.406,1186.039a24.573,24.573,0,0,1-6.252-.829.827.827,0,0,1,.42-1.6,19.779,19.779,0,0,0,11.036.027.827.827,0,0,1,.588,1.545,17.451,17.451,0,0,1-5.792.856" transform="translate(-77.139 -888.312)" fill="#e54e20"/><path d="M110.988,1159.986h-6.422a.826.826,0,1,1,0-1.653h6.422a.826.826,0,1,1,0,1.653" transform="translate(-85.546 -869.36)" fill="#e54e20"/><path d="M391.568,270.043l-28.555-22.274s-3.261,4.961-8.605,5.5-19.625-13.777-19.625-13.777l-.089,32.779s22.871,29.4,56.874-2.225" transform="translate(-258.884 -179.742)" fill="#005ea9"/><path d="M166.958,221.341a18.2,18.2,0,0,0-5.806-.7,9.325,9.325,0,0,1-2.258,4.781c-3.7,4.378-10.216,3.791-12.748,3.562a20.769,20.769,0,0,1-12.784-5.833c-1.852,3.817-4.218,7.154-6.07,10.972,0,0,4.635,20.525,2.784,30.223-3.384,17.735-7.266,23.536-9.2,38.08,0,0,6.708-1.576,11.578-1.261l40.952,1.388a5.864,5.864,0,0,0,6.062-5.183c.48-4.262-.1-11.745-1.271-25.053-1.573-17.845,4.449-28.808-.355-42.586-2.524-7.241-10.881-8.386-10.881-8.386" transform="translate(-98.405 -165.593)" fill="#005ea9"/><path d="M375.893,39.741a11.6,11.6,0,0,0,.053,1.355c.211,1.974.895,4.243,2.71,5.256.059.1.119.2.184.3.664,1,1.828,2,2.151,3.164s-.059,2.4.046,3.585a4.667,4.667,0,0,0,1.546,2.677,23.943,23.943,0,0,0,2.644,2.454,9.294,9.294,0,0,0,3.171,1.829,3.6,3.6,0,0,0,2.44-.151.532.532,0,0,0,.283-.316,12.475,12.475,0,0,0,1.263-.454.52.52,0,0,0,.171-.8c-.039-.039-.079-.072-.118-.105a.826.826,0,0,0,.27-.434,7.719,7.719,0,0,0,.6-2.184,18.515,18.515,0,0,0,.27-3.243c.053-.237.1-.473.151-.71.112-.513.237-1.033.368-1.546a3.2,3.2,0,0,1,.073-.368,4.984,4.984,0,0,0,3.17-.612.515.515,0,0,0,.191-.184,8.037,8.037,0,0,0,1.092-.276c.875-.3,2.736-1.25,2.6-2.421a.577.577,0,0,0-.046-.184c1.21-2.486.421-5.381-.263-7.907a45.842,45.842,0,0,0-2.828-8.511,12.1,12.1,0,0,0-2.013-2.934.608.608,0,0,0-.2-.23,8.632,8.632,0,0,0-2.973-1.934.342.342,0,0,0-.474.3,12.218,12.218,0,0,0-4.315-.506A10.623,10.623,0,0,0,381.6,27.21a10.449,10.449,0,0,0-1.98,3.131c-.625,1.21-1.513,2.263-2.171,3.453a.557.557,0,0,0-.75.026c-1.513,1.579-1.27,3.907-.8,5.92" transform="translate(-289.538 -18.478)" fill="#fff"/><path d="M428.325,66.488l.055-.111a.347.347,0,0,1,.133-.126.494.494,0,0,1,.282-.078,1.06,1.06,0,0,1,.535.158,1.213,1.213,0,0,1,.223.178.85.85,0,0,1,.114.131,1.3,1.3,0,0,1,.229.513,1.165,1.165,0,0,1,.017.279,1.894,1.894,0,0,1-.038.361l-.053.108a.341.341,0,0,1-.129.122.421.421,0,0,1-.273.076,1.277,1.277,0,0,1-.536-.193,1.231,1.231,0,0,1-.34-.327,1.426,1.426,0,0,1-.235-.52,1.28,1.28,0,0,1,.017-.571" transform="translate(-329.125 -49.663)" fill="#141c39"/><path d="M418.466,65.965a2.662,2.662,0,0,1,1.828-1.66,2.509,2.509,0,0,1,2.362.492.351.351,0,0,1-.006.465.358.358,0,0,1-.461.06,1.955,1.955,0,0,0-1.678-.192,2.225,2.225,0,0,0-.756.424q-.046.041-.09.084a1.87,1.87,0,0,0-.185.228q-.035.051-.066.1a2.215,2.215,0,0,0-.119.273.437.437,0,0,1-.828-.278" transform="translate(-321.738 -48.187)" fill="#141c39"/><path d="M414.325,52.95a5.13,5.13,0,0,1,1.725-.591,4.717,4.717,0,0,1,3.519.724c.337.254.086.885-.347.7a5.128,5.128,0,0,0-2.973-.411,4.835,4.835,0,0,0-1.391.488,3.857,3.857,0,0,0-.606.4,1.574,1.574,0,0,1-.745.462.421.421,0,0,1-.5-.435c.056-.632.807-1.061,1.315-1.345" transform="translate(-317.662 -39.245)" fill="#141c39"/><path d="M436.195,22.185a20.017,20.017,0,0,1,6.194,3.888c1.945,1.858,2.788,4.25,3.508,6.778,1.264,4.439,4.229,11.264-.7,14.553-2.619,1.748-5.851,1.543-8.842,1.25a.535.535,0,0,1,.068-1.067c2.515.223,5.2.487,7.532-.7s3.112-3.5,2.848-5.978a43.127,43.127,0,0,0-1.774-7.106c-.674-2.367-1.32-4.71-3.026-6.566-1.732-1.885-4.047-2.968-6.158-4.344-.366-.239-.073-.877.347-.7" transform="translate(-334.678 -16.627)" fill="#141c39"/><path d="M379.214,85.2a3.448,3.448,0,0,1,2.185-2.7,2.857,2.857,0,0,1,3.438,1.031c.212.374-.332.685-.606.4a2.331,2.331,0,0,0-3.067-.272,2.465,2.465,0,0,0-.97,1.443,5.417,5.417,0,0,0-.144,2.182,3.1,3.1,0,0,0,2.265,2.422,3.882,3.882,0,0,0,1.924.026,8.459,8.459,0,0,0,1.857-.785.449.449,0,0,1,.485.742,5.086,5.086,0,0,1-3.778,1.094,4.346,4.346,0,0,1-3.02-1.711,4.879,4.879,0,0,1-.57-3.873" transform="translate(-292.185 -61.781)" fill="#141c39"/><path d="M387,95.792a2.437,2.437,0,0,1,1.01-.185c.3-.018.609-.025.913-.018a7.367,7.367,0,0,1,1.873.253.356.356,0,0,1-.135.69c-.585-.035-1.172-.089-1.759-.082-.279,0-.557.018-.835.046a3.387,3.387,0,0,1-.919.057.418.418,0,0,1-.368-.323.413.413,0,0,1,.219-.438" transform="translate(-297.97 -71.739)" fill="#141c39"/><path d="M394.885,97.4a.407.407,0,0,1,.515-.134.4.4,0,0,1,.207.49,3.044,3.044,0,0,0-.119.376,1.935,1.935,0,0,0-.027.306,1.8,1.8,0,0,0,.049.3c.035.111.051.15.059.188a.554.554,0,0,1-.056.415.379.379,0,0,1-.349.171.5.5,0,0,1-.307-.152.8.8,0,0,1-.114-.16,1.211,1.211,0,0,1-.1-.282,2.123,2.123,0,0,1-.06-.528,1.741,1.741,0,0,1,.3-.995" transform="translate(-303.837 -72.964)" fill="#141c39"/><path d="M454.4,55.468a2.386,2.386,0,0,1,1.068-.533,2.459,2.459,0,0,1,.6-.053,1.082,1.082,0,0,1,.606.151l.106.051a.355.355,0,0,1-.221.648,1.721,1.721,0,0,0-1.964,1.014c-.126.365.1,1.223-.409,1.3a.45.45,0,0,1-.518-.349,2.4,2.4,0,0,1,.737-2.229" transform="translate(-348.14 -41.189)" fill="#141c39"/><path d="M448.605,90.266c.311.033.568.3.84.438a3.757,3.757,0,0,0,.768.268,3.5,3.5,0,0,0,1.6-.016.39.39,0,0,1,.452.3.394.394,0,0,1-.3.452,3.921,3.921,0,0,1-2,.076,3.855,3.855,0,0,1-.875-.309c-.347-.17-.761-.367-.889-.756a.387.387,0,0,1,.4-.459" transform="translate(-344.065 -67.745)" fill="#141c39"/><path d="M359.784,20.258a19.067,19.067,0,0,0,1.829,5.249,11.38,11.38,0,0,0,6.1,5.453c.283.388.553.783.809,1.19a1.342,1.342,0,0,1,.092.165c.329-.263.658-.533.98-.809.27-.224.533-.46.8-.691.079-.072.223-.158.256-.263s-.039-.309-.059-.428c-.119-.586-.289-1.19-.375-1.8a8.513,8.513,0,0,0-2.473.217.445.445,0,0,0-.263.171,5.7,5.7,0,0,1-1.96-.822,3.347,3.347,0,0,1-1.145-2.868,5,5,0,0,1,.6-2.835,2.667,2.667,0,0,1,4.065-.224c.908.987,1.493,2.375,3,2.486a.5.5,0,0,0,.48-.717q-.76-1.746-1.52-3.5c-.322-.737-.612-1.283-.237-2.059a7.206,7.206,0,0,0,.533-1.164c.493-1.8-.276-3.651-1.085-5.256C373.644,9.6,377.38,7.629,381.57,8a24.3,24.3,0,0,1,3.907,3.309.465.465,0,0,0,.645.052,2.448,2.448,0,0,0-.283-3.808,4.143,4.143,0,0,0-5.229-4.111C380.432,1.992,379.945.5,378.36.1,376.7-.324,375.2.624,374,1.669a23.794,23.794,0,0,1-4.631,3.282c-1.592.835-3.249,1.572-4.782,2.519-2.6,1.618-5.045,3.993-5.348,7.2a19.3,19.3,0,0,0,.546,5.584" transform="translate(-277.27 0.005)" fill="#141c39"/><path d="M459.29,58.387a.6.6,0,0,1,.76-.358.715.715,0,0,1,.084.047.724.724,0,0,1,.167.093,1.388,1.388,0,0,1,.41.525,2.29,2.29,0,0,1,.152.445.888.888,0,0,1-.015.605.562.562,0,0,1-.711.253,1.306,1.306,0,0,1-.433-.307,1.63,1.63,0,0,1-.409-.743.978.978,0,0,1-.005-.561" transform="translate(-352.368 -43.528)" fill="#141c39"/><path d="M449.115,46.785a2.832,2.832,0,0,1,1.215-1.194,3.174,3.174,0,0,1,3.509.52c.283.265-.076.742-.415.616-1.008-.375-2.171-.713-3.044.151-.726.72-.459,2-.235,2.894a2.884,2.884,0,0,0,.589,1.214,3.709,3.709,0,0,0,1.185.715c1.1.589.969,1.75.526,2.737-.263.587-1.219.272-.955-.321.213-.479.553-1.18-.03-1.519a5.655,5.655,0,0,1-1.42-.868,5.262,5.262,0,0,1-1.16-3.054,3.181,3.181,0,0,1,.236-1.892" transform="translate(-344.552 -33.981)" fill="#141c39"/><path d="M533.609,441.161a.425.425,0,0,1-.114.594c-1.143.706-2.235,1.491-3.391,2.173a17.072,17.072,0,0,1-3.431,1.369,6.825,6.825,0,0,0-1.77.9,5.267,5.267,0,0,1-1.581.883,2.453,2.453,0,0,1-.536.075.353.353,0,0,1-.429.051c-.077-.045-.16-.079-.239-.116a1.787,1.787,0,0,1-.707-.354c-.5-.234-1-.452-1.512-.645a4.12,4.12,0,0,0-2.319.4c-.787.4-1.4,1.068-2.161,1.518a3.834,3.834,0,0,1-1.3.494.529.529,0,0,1-.654.2.8.8,0,0,1-.3-.206.345.345,0,0,1-.191-.264,1.14,1.14,0,0,1-.129-.5,1.032,1.032,0,0,1,.054-.7,2.542,2.542,0,0,1,1.085-1.016,33.415,33.415,0,0,1,4.046-1.839c.341-.159.77-.2,1.124-.349.135-.053.129-.536.272-.574-.093-.061-.226-.149-.254-.164-.132-.064-.262-.122-.393-.173a5.02,5.02,0,0,0-.836-.247,5.658,5.658,0,0,0-.768-.1.424.424,0,0,1-.351.241c-1.5.141-2.729,1.1-4.087,1.654-.537.215-1.19.824-1.777.7s-.873-1.08-1.038-1.639a1.168,1.168,0,0,1-1.093-1.142c.009-.908.9-1.624,1.579-2.1,1.557-1.079,3.451-1.477,5.126-2.319a5.485,5.485,0,0,0-3.588.659,7.9,7.9,0,0,1-1.616,1c-.061.048-.13.094-.193.15-.2.16-.4.441-.641.53-.615.223-1.127-.442-1.151-1-.028-.74.582-1.214,1.137-1.618a7.048,7.048,0,0,1,2.149-1.715c.259-.169.523-.328.789-.482a.571.571,0,0,1,.231-.063,4.181,4.181,0,0,1,2.252-.471,6.6,6.6,0,0,1,2.575.964c1,.573,1.982,1.193,2.971,1.791.745-.768,1.48-1.531,2.22-2.3a21.884,21.884,0,0,1,2.033-2.08c.621-.487,1.172-.239,1.825.044a20.748,20.748,0,0,1,2.321,1.131,9.682,9.682,0,0,1,3.646,3.671c.345.608,1.243,2.016,1.124,2.975" transform="translate(-389.207 -325.026)" fill="#fff"/><path d="M575.116,466.167c.025.055.039.111.06.169.058.189.12.382.166.572-1.433.766-2.926,1.439-4.361,2.169l-5.433,2.745-1.429.719a2.8,2.8,0,0,1-.389-.112,4.322,4.322,0,0,1-.591-.262c.292-.144.576-.289.869-.433q3.456-1.744,6.9-3.488c1.381-.691,2.826-1.337,4.2-2.078" transform="translate(-430.339 -349.87)" fill="#141c39"/><path d="M537.314,477.227l-1.429.719a2.79,2.79,0,0,1-.389-.112,4.342,4.342,0,0,1-.591-.262,6.487,6.487,0,0,0-1.918-.83,4.438,4.438,0,0,0-2.785.792c-1.008.577-3.264,2.328-4.363,1.012-1.2-1.441,1.321-2.762,2.275-3.277a17.669,17.669,0,0,1,5.569-1.895c.389-.066.419.527.047.6a18.339,18.339,0,0,0-6.169,2.44c-.411.257-.973.55-1.169,1.014-.389.932.581.9,1.137.722a23.114,23.114,0,0,0,2.824-1.527,5,5,0,0,1,2.275-.63,4.782,4.782,0,0,1,2.264.769,4.928,4.928,0,0,0,.882.38,3.053,3.053,0,0,0,1.54.088" transform="translate(-402.105 -355.276)" fill="#141c39"/><path d="M517.478,452.754c-.19,0-.382.011-.569.018a8.159,8.159,0,0,0-.814.109,10.211,10.211,0,0,0-2.785.913c-.666.322-1.3.7-1.932,1.08-.587.359-1.458.755-1.789,1.392-.159.308-.2.806.188.973a1.132,1.132,0,0,0,.813-.089c.687-.264,1.335-.671,2-.993a38.5,38.5,0,0,1,4.71-1.862.393.393,0,0,1,.258.741,36.7,36.7,0,0,0-5.268,2.14c-.874.436-2.2,1.392-3.145.6a1.474,1.474,0,0,1-.382-1.572,2.768,2.768,0,0,1,1.263-1.412c.19-.122.377-.25.569-.368.3-.193.6-.387.922-.572a12.374,12.374,0,0,1,3.582-1.558,6.153,6.153,0,0,1,1.281-.182,5.769,5.769,0,0,1,1.126.067.292.292,0,0,1-.029.576" transform="translate(-389.47 -339.318)" fill="#141c39"/><path d="M519.453,470.925c-.923.373-1.8.844-2.707,1.247a2,2,0,0,1-1.353.225c-.456-.132-.777-.768-.239-1.035.306-.152.049-.637-.261-.527a1.158,1.158,0,0,0-.281,1.994,2.4,2.4,0,0,0,2.642-.048,30.836,30.836,0,0,1,3.167-1.405c.756-.261,2.764-1,3.063.225.115.469.818.22.708-.244-.486-2.043-3.514-.928-4.739-.433" transform="translate(-393.584 -352.877)" fill="#141c39"/><path d="M520.193,442.353c-1.036-.437-2.012-1.036-3.01-1.552a16.75,16.75,0,0,0-2.9-1.354c-2.161-.613-4.108.782-5.571,2.22-.323.321-.89.725-1.066,1.158-.2.483.232.82.689.861,1.022.1,1.966-1.252,2.777-1.741a3.356,3.356,0,0,1,3.865.008,2.582,2.582,0,0,1,.477.538.255.255,0,0,1,.052.122,8.147,8.147,0,0,0-.815.109,1.776,1.776,0,0,0-1-.588,2.721,2.721,0,0,0-1.707.193,9.031,9.031,0,0,0-1.875,1.365,4.572,4.572,0,0,1-.8.52,1.126,1.126,0,0,1-.122.052c-1.034.4-2.708-.162-2.321-1.525.222-.771,1.116-1.435,1.678-1.957a9.791,9.791,0,0,1,2.177-1.591,5.216,5.216,0,0,1,4.617-.154c.914.393,1.793.889,2.668,1.356.849.456,1.748.877,2.548,1.413.324.219-.044.681-.363.548" transform="translate(-388.063 -329.159)" fill="#141c39"/><path d="M561.52,433.077c-.287.274-.568.558-.841.843-.445.461-.883.925-1.328,1.386-.157.167-.322.333-.486.491l-.084.086a5.526,5.526,0,0,1-1.954,1.437.288.288,0,0,1-.251-.51,13.187,13.187,0,0,0,1.5-1.256c.207-.2.41-.4.609-.607.6-.619,1.168-1.256,1.765-1.874.021-.018.039-.042.06-.06a5.9,5.9,0,0,1,1.01.064" transform="translate(-425.322 -324.986)" fill="#141c39"/><path d="M347.4,329.04c-.288.477-.624.919-.954,1.367.168.35.344.7.533,1.037a13.455,13.455,0,0,0,2.335-3.737,13.105,13.105,0,0,0,1.192-5.02,11.406,11.406,0,0,0-.967-4.943,10.4,10.4,0,0,0-1.234-2.04c-.61-.806-1.283-1.6-.442-2.482a.475.475,0,0,0-.393-.82c-1.535.273-1.185,2.3-.568,3.225a19.968,19.968,0,0,1,1.535,2.335,9.729,9.729,0,0,1,.827,2.678,11.5,11.5,0,0,1-.589,5.777,14.615,14.615,0,0,1-1.276,2.622" transform="translate(-267.649 -234.46)" fill="#1d8ed1"/><path d="M384.5,137.006a6.516,6.516,0,0,0,1.312,1.754q1.794,2.2,3.554,4.4c1.208,1.51,2.364,3.084,3.641,4.53a.7.7,0,0,0,.1.087,1.118,1.118,0,0,0,.244.18.4.4,0,0,0,.6-.2c.389-1.527.784-3.049,1.254-4.553.43-1.365.935-2.7,1.382-4.054a1.248,1.248,0,0,0,.116.07.335.335,0,0,0,.372-.558c-1.638-1.307-3.409-2.451-5.053-3.752a15.21,15.21,0,0,1-2.747-2.451,3.777,3.777,0,0,1-.476-.761,2.976,2.976,0,0,1-.3-1.434.4.4,0,0,0-.256-.4.469.469,0,0,0-.3-.017,1.874,1.874,0,0,0-.128-.424.347.347,0,0,0-.238.2c-.4.807-.79,1.626-1.162,2.445-.169.354-.331.708-.494,1.068-.256.558-.511,1.121-.761,1.678-.279.615-.912,1.493-.674,2.2" transform="translate(-296.225 -97.133)" fill="#141c39"/><path d="M430.909,144.941q3.685,4.373,7.382,8.741a.4.4,0,0,0,.7-.238,69.989,69.989,0,0,0-.7-9.35c-.378-2.41-1.156-4.815-3.113-6.4-.273-.221-.674.227-.412.465.07.064.134.139.2.209-.041.238-.076.464-.11.691-.006.023-.012.052-.017.081-.012.052-.035.1-.047.157a.237.237,0,0,0-.151.163,5.71,5.71,0,0,1-1.04,1.951c-.134.186-.267.366-.395.546-.3.436-.6.877-.894,1.312-.261.383-.505.8-.8,1.173a.394.394,0,0,0-.61.5" transform="translate(-331.025 -103.297)" fill="#141c39"/><path d="M89.407,436.988a.382.382,0,0,0,.193.508c1.121.448,2.208.972,3.338,1.4a15.3,15.3,0,0,0,3.248.68,6.145,6.145,0,0,1,1.706.52,4.724,4.724,0,0,0,1.536.537,2.209,2.209,0,0,0,.485-.017.317.317,0,0,0,.387-.021c.061-.052.129-.095.193-.14a1.61,1.61,0,0,0,.571-.423c.4-.284.814-.555,1.238-.805a3.7,3.7,0,0,1,2.114,0c.758.23,1.408.727,2.148,1.008a3.459,3.459,0,0,0,1.231.235.476.476,0,0,0,.609.076.721.721,0,0,0,.237-.229.31.31,0,0,0,.128-.264,1.022,1.022,0,0,0,.037-.46.923.923,0,0,0-.156-.61,2.281,2.281,0,0,0-1.117-.731,29.951,29.951,0,0,0-3.866-1c-.326-.088-.713-.059-1.048-.135-.127-.026-.2-.454-.33-.466.073-.068.177-.167.2-.185.107-.077.213-.149.321-.214a4.508,4.508,0,0,1,.7-.349,5.079,5.079,0,0,1,.665-.2.381.381,0,0,0,.347.159c1.345-.108,2.585.547,3.872.829.508.107,1.181.544,1.681.343s.6-1.091.664-1.611a1.05,1.05,0,0,0,.79-1.18c-.148-.8-1.052-1.3-1.722-1.611-1.545-.713-3.283-.771-4.9-1.257a4.925,4.925,0,0,1,3.277.026,7.092,7.092,0,0,0,1.585.633c.062.033.129.063.194.1a2.545,2.545,0,0,0,.649.369c.579.1.929-.565.864-1.063-.09-.66-.7-.984-1.257-1.256a6.33,6.33,0,0,0-2.167-1.184c-.255-.109-.513-.209-.773-.3a.513.513,0,0,0-.214-.02A3.76,3.76,0,0,0,105,428.6a5.926,5.926,0,0,0-2.128,1.253c-.8.662-1.569,1.363-2.351,2.046-.778-.564-1.547-1.125-2.32-1.688a19.636,19.636,0,0,0-2.122-1.526c-.625-.334-1.074-.03-1.608.322a18.6,18.6,0,0,0-1.878,1.36,8.7,8.7,0,0,0-2.656,3.813,5.509,5.509,0,0,0-.533,2.807" transform="translate(-74.742 -321.588)" fill="#fff"/><path d="M89.245,463.992c-.014.053-.017.1-.026.159-.022.176-.047.357-.058.532,1.387.456,2.812.82,4.2,1.243l5.233,1.586,1.375.415a2.515,2.515,0,0,0,.327-.159,3.886,3.886,0,0,0,.482-.324c-.281-.082-.555-.167-.836-.248q-3.328-1.006-6.65-2.016c-1.329-.4-2.708-.745-4.042-1.186" transform="translate(-74.604 -348.238)" fill="#141c39"/><path d="M126.952,466.147l1.375.415a2.521,2.521,0,0,0,.327-.159,3.93,3.93,0,0,0,.482-.324,5.826,5.826,0,0,1,1.568-1.032,3.984,3.984,0,0,1,2.587.269c.981.354,3.249,1.554,4.017.219.841-1.461-1.6-2.239-2.522-2.546a15.871,15.871,0,0,0-5.221-.813c-.354,0-.289.531.052.535a16.47,16.47,0,0,1,5.837,1.2,2.463,2.463,0,0,1,1.191.716c.489.764-.373.89-.894.815a20.728,20.728,0,0,1-2.736-.913,4.5,4.5,0,0,0-2.111-.2,4.3,4.3,0,0,0-1.884,1.032,4.43,4.43,0,0,1-.721.473,2.741,2.741,0,0,1-1.348.317" transform="translate(-102.968 -346.874)" fill="#141c39"/><path d="M146.351,441.041c.168-.028.34-.049.506-.073a7.346,7.346,0,0,1,.738-.03,9.175,9.175,0,0,1,2.606.376c.639.182,1.26.414,1.877.656a4.147,4.147,0,0,1,1.8.954c.188.248.3.683-.015.89a1.017,1.017,0,0,1-.733.047c-.649-.127-1.285-.387-1.924-.568a34.516,34.516,0,0,0-4.457-.917.353.353,0,0,0-.113.7,32.974,32.974,0,0,1,4.993,1.077c.841.25,2.159.891,2.876.043a1.325,1.325,0,0,0,.095-1.451,2.487,2.487,0,0,0-1.336-1.053c-.187-.079-.372-.163-.561-.237-.3-.124-.594-.249-.9-.363a11.118,11.118,0,0,0-3.411-.823,5.522,5.522,0,0,0-1.162.038,5.208,5.208,0,0,0-.986.234.262.262,0,0,0,.115.505" transform="translate(-117.316 -330.419)" fill="#141c39"/><path d="M145.238,456.07c.874.187,1.722.468,2.589.684a1.8,1.8,0,0,0,1.232-.01c.383-.188.568-.8.051-.953-.294-.087-.142-.556.149-.507a1.04,1.04,0,0,1,.557,1.721,2.16,2.16,0,0,1-2.345.368,27.687,27.687,0,0,0-3.02-.752c-.709-.113-2.6-.452-2.675.674-.029.433-.689.322-.664-.106.113-1.883,2.965-1.365,4.126-1.117" transform="translate(-113.595 -341.699)" fill="#141c39"/><path d="M130.961,431.59c.848-.548,1.62-1.229,2.423-1.84a15.04,15.04,0,0,1,2.358-1.648c1.817-.877,3.756.055,5.274,1.1a4.062,4.062,0,0,1,1.123.859c.25.4-.079.761-.476.868-.889.243-1.933-.8-2.727-1.11a3.015,3.015,0,0,0-3.419.606,2.315,2.315,0,0,0-.338.55.228.228,0,0,0-.027.116c.249-.019.492-.035.738-.03a1.6,1.6,0,0,1,.79-.674,2.445,2.445,0,0,1,1.54-.094,8.1,8.1,0,0,1,1.871.917,4.122,4.122,0,0,0,.788.336.948.948,0,0,0,.116.027c.977.195,2.371-.564,1.817-1.709-.316-.648-1.21-1.1-1.788-1.472a8.791,8.791,0,0,0-2.173-1.07,4.685,4.685,0,0,0-4.11.579c-.748.489-1.449,1.065-2.15,1.614-.681.535-1.411,1.047-2.035,1.645-.253.244.145.6.407.428" transform="translate(-105.611 -320.543)" fill="#141c39"/><path d="M114.828,428.914c.3.2.589.405.875.616.466.339.925.681,1.39,1.02.165.124.337.244.506.359l.087.064a4.968,4.968,0,0,0,1.952.968.259.259,0,0,0,.143-.49,11.852,11.852,0,0,1-1.521-.879c-.215-.147-.425-.293-.633-.443-.623-.455-1.229-.93-1.852-1.385-.021-.013-.041-.031-.063-.044a5.293,5.293,0,0,0-.884.213" transform="translate(-93.868 -321.751)" fill="#141c39"/><path d="M62.954,266.556,62,264.187a.845.845,0,0,0-1.51-.262l-1.841,2.137c-1.87,2.753-1.827,8.112-.228,10.589L37.995,297.923s-6.293-7.03-7.09-20.906C28.723,239.023,65.769,230.7,65.769,230.7Z" transform="translate(-30.812 -173.144)" fill="#005ea9"/><path d="M553.5,419.836c-.4,2.156,1.235,3.918,3.684,6.539,2.98,3.189,5.594,4.9,7.4,5.118a6.518,6.518,0,0,0,6.545-4.551c1.032-3.714-4.362-7.039-7.172-8.816-2.265-1.433-4.463-2.777-6.875-2.019a5.246,5.246,0,0,0-3.586,3.73" transform="translate(-423.059 -312.134)" fill="#e54e20"/><path d="M557.517,421.574a.825.825,0,0,1-.644-.307c-3.527-4.364-.672-9.649-.549-9.872a.827.827,0,0,1,1.447.8c-.107.2-2.429,4.549.388,8.034a.826.826,0,0,1-.643,1.346" transform="translate(-424.318 -308.442)" fill="#e3edf4"/><path d="M152.8,364.215c.321-.073.644-.156.957-.242.1-.382.191-.768.274-1.149a43.4,43.4,0,0,0,1.081-7.518c.082-1.52.1-3.048.027-4.564a14.739,14.739,0,0,0-.456-4.155c-.147-.405-.73-.22-.768.144a12.734,12.734,0,0,0,.111,2.2c.036.7.067,1.4.081,2.1.028,1.395,0,2.8-.1,4.19a49.555,49.555,0,0,1-1.163,7.917c-.054.193-.1.389-.143.578a.569.569,0,0,0,.1.5" transform="translate(-122.274 -259.95)" fill="#1d8ed1"/><path d="M444.381,677.6a.825.825,0,0,0,.8-.619l1.791-6.923,4.257-.88a.825.825,0,0,0-.334-1.617l-4.76.984a.826.826,0,0,0-.632.6l-1.92,7.421a.826.826,0,0,0,.8,1.032" transform="translate(-340.587 -501.011)" fill="#fff"/><path d="M235.725,689.853a.824.824,0,0,1-.8-1.025l4.082-16.276a.824.824,0,0,1,1.6.4l-4.082,16.276a.825.825,0,0,1-.8.623" transform="translate(-183.986 -504.3)" fill="#133653"/></g></g></svg>