<svg xmlns="http://www.w3.org/2000/svg" xmlns:xlink="http://www.w3.org/1999/xlink" width="101.46" height="101.46" viewBox="0 0 101.46 101.46"><defs><clipPath id="a"><path d="M52.575,0A50.73,50.73,0,1,0,103.3,50.729,50.73,50.73,0,0,0,52.575,0Z" transform="translate(-1.845)" fill="none"/></clipPath></defs><g transform="translate(-7132.845 -907)"><path d="M103.3,50.729A50.73,50.73,0,1,1,52.574,0,50.731,50.731,0,0,1,103.3,50.729" transform="translate(7131 907)" fill="#1b90d2"/><path d="M103.3,45.879a50.73,50.73,0,1,1-101.459,0c0-6.515,22.712-28.087,50.729-28.087S103.3,33.7,103.3,45.879" transform="translate(7131 911.85)" fill="#e64e20"/><path d="M67.308,21.521A12.386,12.386,0,1,1,54.922,9.136,12.385,12.385,0,0,1,67.308,21.521" transform="translate(7142.093 909.491)" fill="#e297c1"/><path d="M60.777,52.029l9.6-2.947c2.7-.83,5.528-1.5,8.155-2.54,3.566-1.418,7.979-4.738,6.521-9.116-1.508-4.524-6.68-4.975-10.634-3.808-4.891,1.444-9.72,3.28-14.559,4.889L35,46.78c-1.144.381-2.375.677-3.481,1.158-.613.267-.284-.12.055.135a6.831,6.831,0,0,0-1.481-.6q-5.731-2.308-11.464-4.613a.969.969,0,0,0-1.078.438Q15.578,46.056,13.6,48.81a.963.963,0,0,0,.342,1.306L25.5,56.729q.113-.872.228-1.745l-4.963,1.41a.966.966,0,0,0-.667,1.175l2.253,6.777a.968.968,0,0,0,1.175.667L47.37,56.87c1.156-.395.659-2.239-.508-1.84L23.014,63.172q.588.332,1.175.667l-2.253-6.778-.667,1.175,4.962-1.411a.966.966,0,0,0,.229-1.745L14.9,48.467q.172.653.342,1.306,1.98-2.755,3.958-5.508l-1.078.439,9.606,3.865a17.111,17.111,0,0,0,3.362,1.353,3.755,3.755,0,0,0,1.668-.386l21.344-7.1c5.411-1.8,10.834-3.574,16.236-5.4,2.75-.932,5.57-2.264,8.547-2.062,2.485.169,5.117,2.149,4.459,4.936-.487,2.06-2.648,3.442-4.4,4.351-2.521,1.307-5.48,1.881-8.175,2.708l-10.5,3.225c-1.171.359-.671,2.2.508,1.84" transform="translate(7134.167 916.016)" fill="#fff"/><path d="M39.3,45.376,25.539,33.239l.246.929a2.749,2.749,0,0,1,2.543-2.525c1.836.043,3.973,1.535,5.561,2.351,4.445,2.283,8.829,4.69,13.2,7.106q1.684.93,3.364,1.867c1.073.6,2.036-1.049.963-1.648-6.572-3.675-13.145-7.512-19.986-10.662-1.844-.85-3.949-1.456-5.694-.057a4.874,4.874,0,0,0-1.83,3.314c.047.848,1.317,1.591,1.876,2.085L30.1,39.8l7.85,6.926c.919.809,2.274-.536,1.35-1.35" transform="translate(7137.015 915.115)" fill="#fff"/><path d="M40.984,48.274,35.726,73.293A2.063,2.063,0,0,0,36.821,75.9c2.507,1.625,5.006.3,6.427-2.057,1.357-2.249,2.316-4.831,3.451-7.2q2.159-4.5,4.35-8.989,3.276-6.727,6.581-13.441c.541-1.1-1.1-2.067-1.648-.963-4.546,9.229-9.156,18.44-13.463,27.785-.635,1.376-1.546,3.79-3.4,3.719a3.025,3.025,0,0,1-1.97-1.049l.246.929q2.371-11.284,4.743-22.567.346-1.644.69-3.286c.252-1.2-1.587-1.712-1.84-.508" transform="translate(7140.209 918.658)" fill="#fff"/><g transform="translate(7132.845 907)" clip-path="url(#a)"><path d="M49.186,68.676h41.5s-.949-7.492-5.14-7.647A63.952,63.952,0,0,0,74.981,62s-2.214-6.427-8.381-6.835a9.408,9.408,0,0,0-8.794,4.426s-13.476-1.018-8.619,9.085" transform="translate(10.773 15.032)" fill="#e297c1"/><path d="M.779,29.375h30.6s-.7-5.524-3.791-5.639a47.169,47.169,0,0,0-7.79.716s-1.634-4.739-6.181-5.041a6.937,6.937,0,0,0-6.484,3.264s-9.938-.751-6.357,6.7" transform="translate(-2.348 5.287)" fill="#e297c1"/></g></g></svg>