<?xml version="1.0" encoding="utf-8"?>
<!-- Generator: Adobe Illustrator 26.5.0, SVG Export Plug-In . SVG Version: 6.00 Build 0)  -->
<svg version="1.1" id="Calque_1" xmlns="http://www.w3.org/2000/svg" xmlns:xlink="http://www.w3.org/1999/xlink" x="0px" y="0px"
	 viewBox="0 0 286.6 127.7" style="enable-background:new 0 0 286.6 127.7;" xml:space="preserve">
<style type="text/css">
	.st0{fill:#333333;}
	.st1{fill:#FE5101;}
</style>
<g>
	<path class="st0" d="M45.4,69.8H14.5v34.6c0,2.8-3.2,4.3-6.6,4.3s-6.6-1.5-6.6-4.3V22.3c0-3,3.3-4.2,6.6-4.2s6.6,1.2,6.6,4.2v37
		h30.9v-37c0-3,3.4-4.2,6.6-4.2s6.6,1.2,6.6,4.2v82.1c0,2.8-3.2,4.3-6.6,4.3s-6.6-1.5-6.6-4.3V69.8L45.4,69.8z"/>
	<path class="st1" d="M80.7,22.3c0-2.2,1.7-4.2,4.3-4.2h23.6c15.6,0,28.5,6.1,28.5,25.3c0,14.8-7.6,22.1-17.5,24.6l17.4,32.6
		c0.4,0.6,0.5,1.4,0.5,1.9c0,3.3-4.2,6.7-7.9,6.7c-2.2,0-4-1.5-5.2-3.8l-18.1-35.5H93.7v34.6c0,2.8-3.2,4.3-6.6,4.3
		s-6.4-1.5-6.4-4.3L80.7,22.3L80.7,22.3z M93.7,29.8v29.5h14.9c9.3,0,15.4-4,15.4-14.8s-6.1-14.8-15.4-14.8
		C108.6,29.8,93.7,29.8,93.7,29.8z"/>
	<path class="st1" d="M188.2,72.2c0,10.3-5.7,10.7-11.3,10.7h-26.2v2.8c0,8.3,6.6,13.5,16.1,13.5c8.8,0,11.8-4.7,15.1-4.7
		c3.1,0,5.1,3.6,5.1,5.8c0,3.7-8.1,9.4-20.6,9.4c-16.9,0-28.8-9.9-28.8-24.7V73.3c0-13,11.5-24,25.8-24
		C176.8,49.2,188.2,58.7,188.2,72.2L188.2,72.2z M171.3,74.8c3.6,0,4.6-0.7,4.6-3.7c0-6.6-5.5-11.9-12.5-11.9s-12.6,4.8-12.6,11.7v4
		L171.3,74.8L171.3,74.8z M158,36.8c-0.5,0.2-1,0.4-1.5,0.4c-2.5,0-4.3-2.7-4.3-5.1c0-1.4,0.5-2.5,1.9-3.2l15.4-7.8
		c0.5-0.1,1-0.2,1.4-0.2c2.5,0,4.2,2.7,4.2,5.1c0,1.4-0.5,2.7-2,3.4L158,36.8L158,36.8z"/>
	<path class="st1" d="M222.7,93c0-13-29.9-5.3-29.9-25.9c0-8.6,5.6-17.8,21.2-17.8c9.3,0,18.6,3.3,18.6,7.3c0,1.9-1.9,6.3-5,6.3
		c-2.6,0-6.5-3.6-13.4-3.6c-7.3,0-10,4.1-10,7.2c0,10.9,30.1,3.7,30.1,26c0,10.5-7.8,17.2-21.8,17.2c-12.3,0-21.3-5.2-21.3-9.9
		c0-2.2,1.9-5.8,4.5-5.8c3.2,0,5.8,5.7,16.5,5.7C220.4,99.7,222.7,96.4,222.7,93L222.7,93z"/>
	<path class="st1" d="M286.6,73.3v31.1c0,2.4-2.7,4.3-6.3,4.3c-3.4,0-6-2-6-4.3v-4.3c-4.3,5.1-10.3,9.7-18.7,9.7
		c-9,0-16.5-5.2-16.5-16.4c0-14,11.8-17.7,29-17.7h5.5v-2.2c0-6.3-3.2-13.4-12.3-13.4c-9.1,0-11.3,3.7-13.8,3.7
		c-3.1,0-4.7-3.6-4.7-6.6c0-4.5,10.3-7.9,18.7-7.9C279.8,49.2,286.6,60.9,286.6,73.3L286.6,73.3z M273.6,82.8h-3.1
		c-9.4,0-18.2,1-18.2,8.9c0,5.6,3.5,8.1,8.1,8.1c6.2,0,13.3-6.4,13.3-12.4L273.6,82.8L273.6,82.8z"/>
</g>
<path class="st0" d="M65.7,59.3h7.8c1.5,0,2.7,1.2,2.7,2.7v5.1c0,1.5-1.2,2.7-2.7,2.7h-7.8c-1.5,0-2.7-1.2-2.7-2.7V62
	C63,60.5,64.2,59.3,65.7,59.3z"/>
</svg>
