<svg xmlns="http://www.w3.org/2000/svg" width="555.83" height="692.252" viewBox="0 0 555.83 692.252"><g transform="translate(-1833.098 -2845.187)"><path d="M1900.678,2856.706c61.144,105.87,25.462,240.928-79.7,301.661s-239.973,24.14-301.117-81.73-25.462-240.928,79.7-301.661,239.973-24.141,301.116,81.73" transform="translate(450.998 296.088)" fill="#44a8d3"/><path d="M1621.7,2845.234c-.115,1.608,4.455,4.154,9.08,1.483s6.49-4.783,11.33-.852,12,22.564,18.287,27.214,13.15,5.86,14.6.364-4.312-14.586-1.417-19.363,12.934-22.993,9.223-31.2-12.469-10.91-26.855-4.671-33.4,15.149-34.249,27.025" transform="translate(409.97 274.55)" fill="#005ea9"/><path d="M1664.445,3139.713a6.236,6.236,0,0,0-.218,6.833c4.064,6.332,10.691,24.132,7.93,32.634-3.516,10.827,6.049,21.155,8.706,26.019,5.4,9.879,8.946,13.612,23.27,11.548s19.032-4.43,25.273,4.385,28.359,44.016,37.185,51.339,24.892,18.224,30.787,19.476,16.066-2.033,2.844-11.991-20.255-14.176-18.049-25.281,3.119-34.4.171-41.5-1.311-13.215,1.688-15.982,8.981-9.326,9.791-12.9-7.308-7.68-11.964-12.754-6.671-8.566,1.413-19.445-4.707-21.085-21.375-16.116-29.976,2.824-32.511-5.544-13.721-.873-22.633-.383-11.872-5.116-21.055-3.3c-12.413,2.456-18.489,8.747-21.254,12.954" transform="translate(397.008 177.485)" fill="#005ea9"/><path d="M1926.239,2877.745c-6.081-3.029-10.16-11.03-8.177-26.346,1.557-12.031-12.416-15.094-18.482-15.853a1.236,1.236,0,0,1-.569-2.227c4.886-3.617,18.037-8.853,39.068,15.241,27.2,31.165,22.962,17.262,24.255,11.064s-9.952-9.883-7.677-21.729c1.434-7.467-.573-15.993-2.882-22.557a221.522,221.522,0,0,0-174.977-67.475c3.608,6.078,14.457,28.246-15.425,33.778,0,0-19.677,1.552,1.209,29.28s15.06-11.422,16.787-14.054,7.28-8.02,16,13.649c0,0,3.607,7.183-9.687,13.226s-12.189,13.58-10.3,16.85,8.064,11.149,4.7,21.267,7.875,24.885,14.143,14.179,3.087-31.216,10.668-37.775,21.669.023,28.136-7.529-5.212-19.337-1.153-21.682,17.306.906,19.629,7.741-8.61,16.964-1.113,22.446,12.982-.958,17.845,2.775-4.012,16.489-17.3,15.985-9.715,9.426-16.947,8.152-12.6-9.623-17.845-2.775-6,14.914-12.576,24.159-10.81,18.78-7.505,24.5,10.094,9.978,13.663,19.908,14.89,36.095,41.289,14.309,31.479-4.554,32.422-2.919,12.813,23.124,17.78,25.161,17.6,8.913,16.288,28.2,20.282,48.244,26.448,39.232,5.485-29.875,11.319-44.146-.087-58.272-12.55-65.791-3.041-24.952-5.261-33.482-5.156-11.739-11.236-14.768" transform="translate(369.078 295.564)" fill="#005ea9"/><path d="M1490.731,2969.972c4.1,6.71,14.61-6.033,14.249,3.436-1.089,28.572,5.387,38.8,16.213,60.495s61.191,41.862,70.665,41.565,5.259-10.171,1-17.543-12.454-14.431-21.64-20.511-12.322-11.513-13.063-15.742,3.694-8.342,9.114-6.815,15.392-.1,18.062-4.553c3.283-5.474-4.663-14.89-4.979-19.364s7.7-12.21,7.273-21.793,4.16-16.375,9.8-24.291,11.552-13.4,11.485-16.464-4.908-7.515-6.367-14.952-.61-17.759-4.531-19.634-13.215-3.234-20.646,11.407-10.41,16.361-17.175,12.506-8.273-23.166,6.619-31.766,15.182-14.977,13.59-18.715-8.513-4.915-14.067-2.742-4.836,5.379-21.628,25.427c-11.206,13.38-26.077,18.094-33.614,20.6-5.906,12.1-16.623,46.759-20.363,59.448" transform="translate(450.765 259.403)" fill="#005ea9"/><path d="M2100.633,2964.622c-3.248,1.018,1.48,7.728-1.613,11.23s-3.575,6.356,1.473,12.883,8.838,16.78,7.048,22.535-5.739,11.467-1.04,20.34,1.54,21.855-1.583,27.52-7.871,14.416-3.6,21.817c2.753,4.765,6.146,10.93,9.952,14.979a221.446,221.446,0,0,0-.819-122.656c-3.494-4.318-7.965-9.231-9.821-8.649" transform="translate(262.013 227.891)" fill="#005ea9"/><path d="M1945.2,3085.169a.979.979,0,0,1-.471-.148.99.99,0,0,1-.317-1.362,220.3,220.3,0,0,0,3.412-226.927c-60.056-103.987-189.276-141.1-294.182-84.487l-5.6,3.125c-.815.471-1.639.955-2.459,1.446a.989.989,0,1,1-1.013-1.7q1.241-.742,2.5-1.467l5.622-3.139a218.944,218.944,0,0,1,165.1-17.761,223.26,223.26,0,0,1,128.3,331.953.988.988,0,0,1-.891.465" transform="translate(402.994 296.556)" fill="#1d8ed1"/><path d="M1524.623,2894.172a.988.988,0,0,1-.828-1.438c11.824-23.062,27.073-44.033,44.1-60.646a.988.988,0,1,1,1.38,1.415c-16.874,16.467-31.992,37.26-43.72,60.133a.989.989,0,0,1-.932.536" transform="translate(440.5 269.247)" fill="#1d8ed1"/><path d="M1497.532,2971.319a1.1,1.1,0,0,1-.186-.027.991.991,0,0,1-.725-1.2,230.3,230.3,0,0,1,18.735-50.041.988.988,0,0,1,1.759.9,228.286,228.286,0,0,0-18.573,49.611.989.989,0,0,1-1.01.751" transform="translate(448.939 241.926)" fill="#1d8ed1"/><path d="M1922.91,3330.685c-10.14-6.515-24.448-30.937-18.281-43.818,4.18-8.73,14.2-17.3,22.589-15.659,8.232,1.607,10.385,12.158,16.222,11.729,5.143-.378,4.307-10.582,10.691-15.285,10.014-7.379,34.456.076,37.057,10.827.879,3.63,1.174,9.314-2.788,13.41-14.541,15.033-31.55,29.114-50.411,36.5-4.067,1.592-11.675,4.486-15.079,2.3" transform="translate(322.304 134.408)" fill="#005ea9"/><path d="M1542.3,3231.148a.983.983,0,0,1-.719-.368,225.806,225.806,0,0,1-41.97-82.452.989.989,0,0,1,1.91-.513,223.854,223.854,0,0,0,41.6,81.725.989.989,0,0,1-.82,1.607" transform="translate(448.01 171.041)" fill="#1d8ed1"/><path d="M1958.346,3342.775a.989.989,0,0,1-.408-1.864c2.733-1.428,5.474-2.936,8.147-4.48a220.1,220.1,0,0,0,24.185-16.186.989.989,0,0,1,1.207,1.566,222.509,222.509,0,0,1-24.4,16.333c-2.7,1.558-5.463,3.078-8.22,4.52a1,1,0,0,1-.509.111" transform="translate(305.399 117.167)" fill="#1d8ed1"/><path d="M1756.51,2549.772a42.88,42.88,0,0,1,4.057-3.031c1.318-.956,1.257-2.019.957-3.485-.251-1.229-.482-2.463-.627-3.71-.432-3.736-.221-7.7,1.905-10.931,1.993-3.03,5.277-4.771,8.471-6.264,3.648-1.706,7.039-3.4,9.906-6.312,3.606-3.662,6.373-8.212,9-12.6,2.791-4.646,5.256-9.444,7.706-14.273.488-.962,2.1-.155,1.7.84a108.863,108.863,0,0,1-12.61,22.753,33.2,33.2,0,0,1-8.057,8.334c-2.815,1.913-6.023,3.064-9.009,4.66-3.425,1.831-6.019,4.4-6.625,8.389a20.646,20.646,0,0,0,.149,6.183c.266,1.748,1.12,3.808.7,5.573a5.317,5.317,0,0,1-2.6,3.046,26.749,26.749,0,0,0-4.307,3.423,23.228,23.228,0,0,0-5.688,9.694c-1.18,3.989-1.765,9.352,1.578,12.464,2.828,2.634,7.13,3.334,10.8,3.874,1.5.219,1.356,2.583-.15,2.361-6.407-.946-14.3-2.977-15.324-10.544-1.006-7.469,2.623-15.444,8.05-20.448" transform="translate(370.536 376.11)" fill="#131c38"/><path d="M1755.01,2558.086a20.676,20.676,0,0,1,7.584-13.882c1.347-1.075,2.952-2.074,3.709-3.709.726-1.59.576-3.467.635-5.162a13.191,13.191,0,0,1,2.256-7.387c3.179-4.587,8.478-6.994,12.807-10.294a39.213,39.213,0,0,0,12.216-15.577c2.362-5.465,3.709-11.384,6.858-16.486a21.826,21.826,0,0,1,13.927-9.644c12.519-3.012,27.719,1.348,35.8,11.642,4.284,1.483,11.732,5.949,9.325,11.187-1.06,2.331-3.936,3.118-6.268,3.3a13.431,13.431,0,0,1-7.342-1.6,5.484,5.484,0,0,1-4.313,3.027,8.3,8.3,0,0,1-4.466-.817c-1.6-.7-3.724-2.513-5.48-2.135-1.65.364-3.27,2.028-4.753,2.877a31.111,31.111,0,0,1-5.238,2.331c-2.982,1.015-7.115,2.241-10.248,1.424a.98.98,0,0,1-.091-1.817,5.978,5.978,0,0,0-.953-1.347,3.288,3.288,0,0,0-.514-.152c-.213-.06-.439-.09-.667-.135a7.129,7.129,0,0,0-7.6,4.36,14.7,14.7,0,0,0,.048,3.787,15.137,15.137,0,0,0,.321,1.543c.72.785,1.59,1.391,1.813,2.51.258,1.257-.423,2.679-.786,3.845a62.755,62.755,0,0,1-3.164,8.538,25.929,25.929,0,0,1-4.768,6.858c-2.044,2.043-4.557,3.542-6.782,5.358a13.08,13.08,0,0,0-4.814,7.8c-.711,3.24-1.2,6.51-2.043,9.734a87.747,87.747,0,0,1-7.388,18.756c.182-.015.379-.045.561-.061a1.237,1.237,0,0,1,1.438.969,4.782,4.782,0,0,1-1.619,4.541,1.219,1.219,0,0,1-1.877-.394,4.633,4.633,0,0,1-.333-1.756c-10.718-1.272-19-11.082-17.787-22.026" transform="translate(368.481 380.386)" fill="#131c38"/><path d="M1798.127,2477.424c.687,3.908,3.067,8.058,6.628,9.969,3.536,1.9,7.728,1.968,11.57,1.107a25.156,25.156,0,0,0,6.049-2.182c1.148-.595,2.493-1.345,2.874-2.564.143-.058.289-.1.43-.165a10.289,10.289,0,0,0,3.845-1.272,10.394,10.394,0,0,0,4.042-4.572,11.63,11.63,0,0,0-.7-11.187,14.6,14.6,0,0,0-10.567-6.268c-4.693-.575-9.371,1.166-13.125,3.876-.631.456-1.271.955-1.9,1.493a18.783,18.783,0,0,0-3.96,2.075c-3.245,2.242-5.925,5.537-5.195,9.689m2.623-3.168a8.215,8.215,0,0,1,2.145-3.019,8.45,8.45,0,0,0-.7,4.086c.364,4.3,3.664,7.842,7.615,9.295a19.207,19.207,0,0,0,8.929.793c-.315.1-.628.216-.948.305a21.365,21.365,0,0,1-6.27.837c-4.3-.1-7.76-2.014-9.663-5.936-.912-1.879-1.873-4.277-1.111-6.361" transform="translate(355.051 385.005)" fill="#131c38"/><path d="M1836.5,2749.312s-20.062,7.474-27.93,1.18,12.195-16.915,16.915-16.128,11.015,14.948,11.015,14.948" transform="translate(352.324 299.613)" fill="#133653"/><path d="M1983.222,2982.991l-18.882,33.044-10.228-14.162,16.522-32.257Z" transform="translate(306.425 226.32)" fill="#fff"/><path d="M1983.222,2982.991l-18.882,33.044-10.228-14.162,16.522-32.257Z" transform="translate(306.425 226.32)" fill="none" stroke="#141c38" stroke-miterlimit="10" stroke-width="5"/><path d="M1959.584,3019.125c-4.979,10.264-17.583,35.161-29.729,47.094a5.411,5.411,0,0,1-9.029-2.456c-3.8-14.373-6.333-44.318,7.829-67.921,0,0,6.733-.787,19.322,1.573l-2.8,11.8,1.546-1.1a6.215,6.215,0,0,1,7.657.339l3.627,3.109a6.326,6.326,0,0,1,1.576,7.565" transform="translate(317.72 218.191)" fill="#e54e20"/><path d="M1929.747,3064.385a1.782,1.782,0,0,1-1.667-1.15c-11.145-29.454,3.348-62.882,3.97-64.292a1.782,1.782,0,0,1,3.26,1.439c-.146.333-14.517,33.522-3.9,61.591a1.781,1.781,0,0,1-1.666,2.412" transform="translate(315.842 217.516)" fill="#040506"/><path d="M1962.745,3048.707a1.78,1.78,0,0,1-.968-.287l-9.441-6.124a1.782,1.782,0,0,1,1.939-2.99l9.442,6.125a1.782,1.782,0,0,1-.972,3.277" transform="translate(307.232 204.701)" fill="#040506"/><path d="M1956.246,3060.652a1.77,1.77,0,0,1-1.083-.368l-8.655-6.644a1.781,1.781,0,1,1,2.169-2.826l8.655,6.643a1.781,1.781,0,0,1-1.086,3.194" transform="translate(309.011 201.143)" fill="#040506"/><path d="M2063.7,2998.9l12.243,29.527,15.839-1.268c-10.268-22.421-14.112-31.074-15.55-34.525Zm15.235-8.719h0Z" transform="translate(272.291 219.913)" fill="#fff"/><path d="M2063.7,2998.9l12.243,29.527,15.839-1.268c-10.268-22.421-14.112-31.074-15.55-34.525Zm15.235-8.719h0Z" transform="translate(272.291 219.913)" fill="none" stroke="#141c38" stroke-miterlimit="10" stroke-width="5"/><path d="M2073.2,3032.018s3.934-9.441,14.162-4.721c0,0,18.775,27.119,25.752,49.512a7.737,7.737,0,0,1-10.574,9.31c-14.148-6.388-36.324-19.8-49.01-44.66,0,0,3.934-10.229,10.229-14.949Z" transform="translate(275.459 208.765)" fill="#e54e20"/><path d="M2108.731,3087.622c-5.42,0-25.133-2.678-50.6-37.776a1.782,1.782,0,0,1,2.884-2.093c27.949,38.525,48.456,36.286,48.663,36.26a1.781,1.781,0,0,1,.509,3.526,10.456,10.456,0,0,1-1.459.083" transform="translate(274.129 202.21)" fill="#040506"/><path d="M2107.572,3070.944a1.782,1.782,0,0,1-.9-3.321l9.441-5.508a1.782,1.782,0,0,1,1.8,3.078l-9.441,5.508a1.776,1.776,0,0,1-.9.242" transform="translate(259.179 197.583)" fill="#040506"/><path d="M2100.716,3060.66a1.781,1.781,0,0,1-.846-3.35l10.228-5.508a1.781,1.781,0,1,1,1.69,3.136l-10.228,5.508a1.773,1.773,0,0,1-.844.213" transform="translate(261.315 200.787)" fill="#040506"/><path d="M1921.665,2713.651s51.279,9.157,88.234,47.905a37.294,37.294,0,0,1,8.622,36.768c-8.209,26.484-26.081,74.852-55.943,111.23l-22.816-19.669s5.507-45.632,20.456-73.955-72.381-89.691-72.381-89.691Z" transform="translate(327.07 306.051)" fill="#040506"/><path d="M2006.6,2908.637l-26.75,7.867s-48.78-103.065-62.941-118.014-41.7-39.338-70.809-47.992-29.11-30.684-29.11-30.684l49.566-14.162s69.234,29.9,92.051,63.727,47.992,139.257,47.992,139.257" transform="translate(349.139 308.543)" fill="#040506"/><path d="M1781.576,2596.909c3.889-7.779,5.708-14.27,7.695-19.092a27.13,27.13,0,0,1,23.338-16.757l26.393-1.7c11.809-.8,24.363,6.5,29.026,17.375l34.7,80.97s-7.081,18.882-38.552,22.03-53.106,1.18-63.334,13.768c-6.743,8.3-6.529-47.049-2.652-90.827Z" transform="translate(360.169 354.131)" fill="#1b90d2"/><path d="M1970.351,2681.9H1902.11l50.59-77.8a8.689,8.689,0,0,1,7.295-3.905h55.382a4.336,4.336,0,0,1,3.777,6.653Z" transform="translate(322.624 341.394)" fill="#214464"/><path d="M2014.47,2637.019c-2.218,3.41-6.987,6.175-10.652,6.175s-4.838-2.764-2.621-6.175,6.986-6.175,10.652-6.175,4.839,2.764,2.621,6.175" transform="translate(292.108 331.845)" fill="#e54e20"/><path d="M1947.87,2724.488H1836.1a1.643,1.643,0,0,1-1.643-1.643v-4.711h115.059v4.711a1.643,1.643,0,0,1-1.643,1.643" transform="translate(343.698 304.655)" fill="#214464"/><path d="M1817.221,2648.226c-1.1,4.663.025,9.652.92,14.259.487,2.512.894,5.12,1.622,7.568a2.026,2.026,0,0,0,3.14,1.383c3.743-1.781,6.962-4.549,10.371-6.87a30.683,30.683,0,0,1,5.648-3.146,28.1,28.1,0,0,1,6.977-1.618c2.72-.389,5.437-.766,8.158-1.155,1.9-.266,4.331-.238,5.671-1.829,1.39-1.629,2.09-4.162,2.533-6.2a19.256,19.256,0,0,0,.313-6.563.663.663,0,0,0-.735-.561c-1.228-2.025-3.517-3.169-5.523-4.245-4.595-2.461-9.513-4.659-14.837-4.439-4.909.193-9.035,3.06-13.21,5.349q-3.589,1.981-7.191,3.92c-1.911,1.01-3.339,1.933-3.858,4.149" transform="translate(349.208 330.615)" fill="#fff"/><path d="M1847.013,2640.935a8.3,8.3,0,0,0,4.416.626c.737-.054,1.489-.3,2.225-.3,1.67-.015,1.947,1.191,2.567,2.441a49.942,49.942,0,0,0,2.821,5.545c.671,1.016,1.068,2.726,2.364,2.644,3.181-.207,3.616-4.871,4.685-7.036a4.135,4.135,0,0,0,6.838-2.012c1.517.715,2.691,1.034,3.992-.187,2.377-2.244,1.836-6.855.6-9.6-1.167-2.611-2.288-4.649-4.941-5.71-3.146-1.266-6.767-.8-10.04-.5a42.871,42.871,0,0,0-10.385,2.076c-2.8,1-6.022,2.517-7.26,5.423a4.99,4.99,0,0,0,2.116,6.6" transform="translate(340.594 333.199)" fill="#fff"/><path d="M1848.8,2635.478c3.83-1.562,7.719-2.775,11.69-.906a12.921,12.921,0,0,1,6.829,8.668,16.6,16.6,0,0,1,.369,5.863c-.21,1.9-.741,3.986-2.293,5.247a4.085,4.085,0,0,1-4.8.43c-1.6-1.09-1.916-3.1-2.039-4.883-.138-1.973-.553-3.592-2.318-4.692-1.65-1.029-3.165-.753-4.941-.378a.855.855,0,0,1-.7-1.483c1.989-1.661,5.374-.866,7.264.57a6.486,6.486,0,0,1,2.306,3.164c.52,1.627.143,3.5.874,5.053.914,1.944,3.038,1.069,3.828-.493a10.5,10.5,0,0,0,.729-5.144,11.964,11.964,0,0,0-4.313-8.908,9.664,9.664,0,0,0-5.36-2.133,17.9,17.9,0,0,0-6.526,1.313c-.845.285-1.463-.936-.6-1.289" transform="translate(339.361 330.979)" fill="#131c38"/><path d="M1847.875,2630.38c3.641-2.329,7.5-4.661,11.939-4.835a24.4,24.4,0,0,1,6.579.854,10.883,10.883,0,0,1,5.246,2.6,10.357,10.357,0,0,1,2.492,5.551,25.622,25.622,0,0,1,.526,6.874,5.727,5.727,0,0,1-2.563,4.784,3.551,3.551,0,0,1-4.384-.494c-1.539-1.7-1.424-4.512-1.931-6.619-.57-2.373-2.284-5.364-5.185-4.614-1.131.293-1.441-1.494-.315-1.789a5.29,5.29,0,0,1,5.048,1.583,10.55,10.55,0,0,1,2.532,5.8,17.8,17.8,0,0,0,.761,3.6,1.777,1.777,0,0,0,3.063.544c1.88-1.736,1.152-5.708.825-7.928-.365-2.477-.85-5.188-3.054-6.7-2-1.376-4.719-1.788-7.075-2.118-5.192-.729-9.569,1.643-13.924,4.163-.781.452-1.311-.787-.582-1.253" transform="translate(339.625 333.499)" fill="#131c38"/><path d="M1872.242,2626.112a19.635,19.635,0,0,1,7.5-.381,8.524,8.524,0,0,1,5.625,3.931c2.247,3.544,3.648,9.028.917,12.7a3.786,3.786,0,0,1-2.857,1.747,2.065,2.065,0,0,1-2.26-1.874c-.011-.731.915-.834,1.336-.43.326.313.559.613,1.061.538a2.136,2.136,0,0,0,1.188-.862,5.836,5.836,0,0,0,1.187-2.932,12.063,12.063,0,0,0-1.274-6.506,7.843,7.843,0,0,0-4.663-4.55c-2.406-.747-5.077-.385-7.524-.054a.672.672,0,0,1-.233-1.322" transform="translate(332.094 333.509)" fill="#131c38"/><path d="M1833.788,2658.813c3.75.632,6.642-2.019,9.006-4.586,2.436-2.645,4.9-5.57,8.589-6.343.969-.2,1.2,1.245.264,1.5-3.751,1.014-5.937,4.562-8.478,7.2-2.475,2.565-6.024,5.039-9.769,4.054a.941.941,0,0,1,.387-1.818" transform="translate(344.216 326.543)" fill="#131c38"/><path d="M1817.917,2643.812c.175.64.345,1.292.516,1.943q2.323-1.472,4.685-2.893c5.648-3.383,11.529-6.372,17.236-9.634a.672.672,0,0,0-.562-1.221,139.161,139.161,0,0,0-17.932,9.4c-1.322.782-2.64,1.593-3.944,2.406" transform="translate(348.849 331.502)" fill="#131c38"/><path d="M1772.337,2625.108a152.139,152.139,0,0,0-3.4,18.475c-.022.125-.044.25-.054.378-.085.724-.163,1.463-.236,2.19a28.828,28.828,0,0,0-.041,4.948,20.769,20.769,0,0,0,1.814,7.072c4.5,9.755,16.617,10.516,26.1,7.623a52.633,52.633,0,0,0,11.184-5.053q.836-.453,1.61-.964c-.171-.651-.357-1.294-.541-1.95-.264-.927-.515-1.85-.752-2.783q-1.059-4.136-2.085-8.3c-1.008-4.063-1.849-8.21-2.893-12.282-.172-.651-.342-1.3-.516-1.943-.383.247-.765.48-1.137.73.224-.842.42-1.679.628-2.513.1-.4.19-.812.291-1.217a66.637,66.637,0,0,0,1.9-13.6c.187-6.77-.868-14.769-7.175-18.657-5.9-3.643-12.631-.525-16.31,4.712-2.229,3.164-3.507,6.912-4.738,10.541q-2.086,6.222-3.649,12.592" transform="translate(364.237 342.797)" fill="#1b90d2"/><path d="M1826.989,2681.149c.183.655.37,1.3.541,1.949,5.763-3.508,11.188-7.676,16.734-11.3.675-.44-.057-1.525-.744-1.18-5.284,2.738-10.089,6.384-15.078,9.612-.481.311-.959.609-1.452.916" transform="translate(346.023 319.476)" fill="#131c38"/><path d="M1802.868,2654.537a36.128,36.128,0,0,1,5.414-3.038,37.128,37.128,0,0,1,5.7-2.343c.771-.219,1.024.922.4,1.27-1.743.969-3.585,1.756-5.343,2.7s-3.456,2-5.213,2.941a.936.936,0,0,1-1.305-.681.858.858,0,0,1,.348-.853" transform="translate(353.649 326.149)" fill="#fff"/><path d="M1824.693,2523.152c.969,3.012,3.482,4.375,5.495,6.539,1.257,1.347,1.408,3.618,1.756,5.39.3,1.559.605,3.133.923,4.708a50.608,50.608,0,0,0,2.422,8.553,21.142,21.142,0,0,0,4.829,7.357,7.818,7.818,0,0,0,.848.7l-.091.635c-.211,1.3,1.8,1.62,2.195.438.121-.348.242-.711.348-1.06a1.557,1.557,0,0,0,.3-1.922.83.83,0,0,0-.136-.212c.621-3.906,1.257-7.811,1.877-11.717,5.949,1.529,13.231,2.513,17.636-2.664,2.528-2.953,3.436-7.009,4.329-10.7.485-1.953.893-3.936,1.257-5.919a35.114,35.114,0,0,0,1.12-7.463,1.042,1.042,0,0,0-.984-1.135c.076-.454.136-.893.2-1.346.106-.758-.818-1.136-1.363-.849a1.045,1.045,0,0,0-.529.152,8.958,8.958,0,0,1-6.586,1.029c-1.771-.439-3.285-1.62-5.147-1.65-1.816-.03-3.422.909-5,1.7a60.638,60.638,0,0,1-5.768,2.483,58.508,58.508,0,0,1-6.388,1.952c-2.058.515-3.814,1.166-5.45-.56-1.665-1.787-3.724-2.5-5.9-1.014a5.7,5.7,0,0,0-2.195,6.585" transform="translate(346.831 368.861)" fill="#fff"/><path d="M1813.44,2564.813c.68,2.467,3.088,4.148,5.04,5.646,3.392,2.589,6.842,5.117,10.341,7.553a52.65,52.65,0,0,0,9.506,5.813c5.087,2.1,12.549,1.529,14.835-4.39,2.044-5.284-2.028-9.765-6.6-12.216-3.905-.8-7.8-1.635-11.7-2.453a47.775,47.775,0,0,0-21.42.046" transform="translate(350.244 352.799)" fill="#fff"/><path d="M1824.376,2517.634a6.071,6.071,0,0,1,6.666-1.458c2.431,1.094,3.664,3.683,4.3,6.13.282,1.081-1.344,1.345-1.671.327a7.691,7.691,0,0,0-2.773-4.213,3.931,3.931,0,0,0-4.829.532c-2.689,2.49-1.74,6.8.757,9.007a7.182,7.182,0,0,0,2.2,1.333,13.46,13.46,0,0,0,2.81.464,1,1,0,0,1,.127,1.966,5.9,5.9,0,0,1-3.35-.3,9.034,9.034,0,0,1-2.841-1.548,9.257,9.257,0,0,1-3.4-5.579,7.866,7.866,0,0,1,2.009-6.66" transform="translate(347.496 367.705)" fill="#131c38"/><path d="M1829.5,2522.712a.865.865,0,0,1,.823-.483,4.094,4.094,0,0,1,2.088.961,10.034,10.034,0,0,1,1.616,1.522,9.679,9.679,0,0,1,1.97,3.833.847.847,0,0,1-.663.985.859.859,0,0,1-.985-.663,6.962,6.962,0,0,0-.295-.774,8.608,8.608,0,0,0-.419-.82c-.27-.427-.359-.554-.452-.677a8.925,8.925,0,0,0-.592-.706c-.1-.113-.213-.222-.323-.329a9.221,9.221,0,0,0-.943-.758c-.253-.173-.513-.339-.778-.492-.145-.084-.294-.158-.44-.239a2.575,2.575,0,0,1-.494-.418.855.855,0,0,1-.112-.941" transform="translate(345.27 365.678)" fill="#131c38"/><path d="M1831.593,2528.7c.061-.107.126-.213.189-.319.14-.236.278-.473.419-.708.277-.461.58-.91.871-1.363a.863.863,0,0,1,1.563.317,1.022,1.022,0,0,1-.132.648c-.239.477-.469.96-.719,1.433-.124.236-.255.468-.382.7q-.089.163-.178.326a1.226,1.226,0,0,1-.575.536.884.884,0,0,1-.775-.011.846.846,0,0,1-.481-.618,1.4,1.4,0,0,1,.2-.942" transform="translate(344.656 364.524)" fill="#131c38"/><path d="M1879.405,2530.765c.192-.344.307-.437.441-.507,0,0,.108-.108.213-.214a2.685,2.685,0,0,0,.251-.372,2.377,2.377,0,0,0,.122-.362,2.3,2.3,0,0,0,.027-.293.82.82,0,0,1,.283-.567.849.849,0,0,1,.479-.188.832.832,0,0,1,.353.067.912.912,0,0,1,.3.01.886.886,0,0,1,.531.3.927.927,0,0,1,.224.668,4.044,4.044,0,0,1-.412,1.212,2.755,2.755,0,0,1-.713.8,1.185,1.185,0,0,1-.326.178c-.1.078-.212.148-.322.218a1.031,1.031,0,0,1-.892.187.922.922,0,0,1-.525-.463.911.911,0,0,1-.042-.678" transform="translate(329.711 363.799)" fill="#131c38"/><path d="M1872.571,2533.935c.956-.187,1.208-1.166,1.252-2.02.053-1.02-.049-2.041,0-3.062a13.393,13.393,0,0,1,1.431-5.674c1.632-3.067,5.4-5.2,8.818-3.756,1,.422.5,1.992-.542,1.615a4.982,4.982,0,0,0-4.5.745,7.281,7.281,0,0,0-2.8,4.244,20.988,20.988,0,0,0-.394,5.608c0,1.788-.8,4.075-2.89,4.25-1.244.1-1.667-1.7-.381-1.95" transform="translate(332.068 366.695)" fill="#131c38"/><path d="M1849.1,2520.18a12.56,12.56,0,0,1,12.86-.157c.766.478.14,1.819-.716,1.451a12.154,12.154,0,0,0-11.27.519,1.015,1.015,0,0,1-1.343-.47,1.03,1.03,0,0,1,.469-1.342" transform="translate(339.312 366.893)" fill="#131c38"/><path d="M1860.708,2528.325c.222-.488.388-.918.555-1.35.253-.315.282-.4.359-.454a.849.849,0,0,1,.538-.149.918.918,0,0,1,.814.715,2.254,2.254,0,0,1,.041.749,2.481,2.481,0,0,1-.188.734,3.39,3.39,0,0,1-.227.434,3.107,3.107,0,0,1-.313.379,1.609,1.609,0,0,1-.195.186,1.633,1.633,0,0,1-.647.279.9.9,0,0,1-.551-.081.836.836,0,0,1-.4-.4,1.046,1.046,0,0,1-.085-.436.906.906,0,0,1,.3-.609" transform="translate(335.615 364.388)" fill="#131c38"/><path d="M1861.264,2543.21c.435,0,.678.323.958.6.22.2.3.273.386.339a8.109,8.109,0,0,0,1.2.771c.257.116.368.163.479.206a7.107,7.107,0,0,0,.677.226c.215.061.433.118.652.167.347.06.479.076.61.089a.8.8,0,1,1-.1,1.606,7.157,7.157,0,0,1-3.084-.733,8.3,8.3,0,0,1-1.425-.855c-.242-.185-.472-.387-.695-.594a1.238,1.238,0,0,1-.548-1.033.861.861,0,0,1,.892-.785" transform="translate(335.626 359.142)" fill="#131c38"/><path d="M1842.1,2539.743a22.326,22.326,0,0,0,5.887,3.557,20.737,20.737,0,0,0,6.783,1.938,17.49,17.49,0,0,0,12.065-3.739,21.123,21.123,0,0,0,7.13-10.763c.647-2.181,4.26-20.153,1.861-20.33-1.694-.12-2.591,10.62-2.749,11.835-.781,6.012-1.792,11.826-6.424,16.246a15.362,15.362,0,0,1-11.172,4.42,18.392,18.392,0,0,1-6.494-1.725c-1.983-.895-3.769-2.271-5.8-3.044-.893-.348-1.816.909-1.089,1.6" transform="translate(341.397 369.361)" fill="#131c38"/><path d="M1850.376,2568.123a30.316,30.316,0,0,1,1.109-4.611l1.386-5.017c.328-1.188,2.161-.567,1.874.6q-.586,2.4-1.177,4.792c1.734.391,3.471.774,5.176,1.276a.806.806,0,0,1-.307,1.566c-1.78-.292-3.537-.7-5.3-1.1q-.141.577-.284,1.156a5.9,5.9,0,0,0-.151,3.3c.249.7.976,1.556,1.843,1.47,1.428-.14,1.865,1.971.429,2.1a4.019,4.019,0,0,1-3.56-1.477,5.345,5.345,0,0,1-1.043-4.059" transform="translate(338.752 354.58)" fill="#131c38"/><path d="M1794.859,2553.972c.056,0,.258-.015.274-.013.12-.011.238-.023.357-.039a9.592,9.592,0,0,1-.123-1.251,5.2,5.2,0,0,1-.64-2.881c.117-1.78,1.39-4,3.2-4.339a1.329,1.329,0,0,1,.562-.31,13.452,13.452,0,0,1,1.3-2.13,35.088,35.088,0,0,1,14.563-11.082,23.958,23.958,0,0,1-1.816-4.223c-.258-.893,1.256-1.408,1.559-.515a17.324,17.324,0,0,0,2.5,4.845c.772,1.028,2.861,3.738,4.405,2.558.62-.484,1.86-.106,1.7.83-1.229,7.031,10.817,31.677-6.427,28.528-2.859-.522-5.2-2.244-7.607-3.784a18.868,18.868,0,0,1-5.383-2.434c-.573-.158-1.15-.314-1.727-.486a11.442,11.442,0,0,1-1.118-.416,20.632,20.632,0,0,1-3.835.477,1.511,1.511,0,0,1-.873,0c-.359,0-.717,0-1.075-.025a1.678,1.678,0,0,1-1.548-1.759,1.7,1.7,0,0,1,1.76-1.548" transform="translate(356.582 364.277)" fill="#131c38"/><path d="M1855.577,2524.608a4.153,4.153,0,0,1,.542-.276,8.581,8.581,0,0,1,1.139-.447,4.7,4.7,0,0,1,2.128-.16,3.805,3.805,0,0,1,1.927.937,2.567,2.567,0,0,1,.771,1.811.8.8,0,0,1-.75.745.82.82,0,0,1-.841-.642,3.519,3.519,0,0,0-.417-.52,4.051,4.051,0,0,0-1.073-.416,3.722,3.722,0,0,0-.663.056c-.283.054-.555.143-.831.225-.4.136-.532.188-.668.242a1.387,1.387,0,0,1-1.4.046.848.848,0,0,1-.379-.771,1.12,1.12,0,0,1,.51-.83" transform="translate(337.279 365.23)" fill="#131c38"/><path d="M1878.106,2528.024a1.411,1.411,0,0,1,.353-.569,3,3,0,0,1,.363-.251,2.3,2.3,0,0,1,.46-.224,3.292,3.292,0,0,1,1.4-.2,3.4,3.4,0,0,1,1.334.416,2.847,2.847,0,0,1,1.007.992.825.825,0,0,1,.039.623.856.856,0,0,1-.336.424.82.82,0,0,1-1.077-.147,2.016,2.016,0,0,0-.466-.41,5.281,5.281,0,0,0-1.921.367.842.842,0,0,1-.918-.135.832.832,0,0,1-.243-.889" transform="translate(330.115 364.262)" fill="#131c38"/><path d="M1854.836,2563.97c1.362,1.408,3.255,1.544,5.011,2.135a9.96,9.96,0,0,1,4.36,3.209c1.241,1.408,2.74,2.831,4.708,3,3.391.273,5.253-3.421,4.587-6.358-.878-3.83-4.663-6.146-5.283-10.067a.936.936,0,0,0-1.847.121,4.972,4.972,0,0,0,.03,1.256,2.74,2.74,0,0,0-2.18.651c-.258.015-.5.045-.757.045-1.166-.03-2.316-.272-3.482-.394-2.043-.226-4.284.137-5.54,1.953a3.47,3.47,0,0,0,.394,4.45" transform="translate(337.668 355.423)" fill="#131c38"/><path d="M1806.715,2571.392a12.291,12.291,0,0,1,8.36,3.964,13.378,13.378,0,0,1,3.176,9.259,105.092,105.092,0,0,1-1.217,12.2c-.538,4.512-.827,9.151-1.741,13.6-.177.869-1.63.836-1.6-.11.114-3.7.721-7.408,1.142-11.079.436-3.8.927-7.594,1.308-11.4.327-3.267.41-6.851-1.391-9.742a10.286,10.286,0,0,0-7.921-4.786c-1.212-.083-1.344-1.994-.115-1.91" transform="translate(352.607 350.365)" fill="#fff"/><path d="M2036.039,2916.282c-1.031-4.317-25.513-106.128-48.249-139.839-11.5-17.056-34.231-32.94-54.329-44.668a1.824,1.824,0,0,0-1.841,3.15c19.826,11.58,42.181,27.149,53.217,43.51,20.827,30.881,44.026,123.52,47.337,137.031l-23.661,6.958c-6.089-12.812-49.14-102.886-62.6-117.1a210.91,210.91,0,0,0-37.507-31.2,1.6,1.6,0,0,0-2.16.335,1.541,1.541,0,0,0,.393,2.192,227.335,227.335,0,0,1,36.687,31.118c13.807,14.574,62.137,116.524,62.624,117.552a1.782,1.782,0,0,0,2.113.948l26.751-7.867a1.784,1.784,0,0,0,1.23-2.124" transform="translate(321.429 300.483)" fill="#fff"/><path d="M1564.525,3402.377a1.159,1.159,0,0,1-1.046-1.657l4.25-8.937a1.159,1.159,0,0,1,2.094,1l-4.25,8.937a1.159,1.159,0,0,1-1.047.661" transform="translate(428.14 95.025)" fill="#fff"/><path d="M1573,3176.26a.374.374,0,0,0,.213.1c.62.118,1.241.237,1.866.363-.07-.1-.135-.2-.213-.3-.528-.056-1.054-.1-1.575-.143l-.292-.02" transform="translate(425.139 161.953)" fill="#131c38"/><g transform="translate(-52.619 -36.888)"><path d="M1431.094,3355.3c-34.685-31.973-16.731-52.595-16.731-52.595s15.494-25.1,69.869,7.714,107.006,20.616,118.909,15.7,53.491-35.84,76.927-37.577c13.042-.967,28.65,8.838,14.957,35.342-28.318,54.81-105.219,61.062-105.219,61.062s-37.28,7-75.574.219c0,0-48.451,2.109-83.137-29.863" transform="translate(476 164.574)" fill="#005ea9"/><path d="M1534.238,3368.489l21.786,12.8-15.971,8.7-10.166-6.509Z" transform="translate(463.201 156.053)" fill="#fff"/><path d="M1534.238,3368.489l21.786,12.8-15.971,8.7-10.166-6.509Z" transform="translate(463.201 156.053)" fill="none" stroke="#141c38" stroke-miterlimit="10" stroke-width="5"/><path d="M1541.225,3385.421l3.255-3.3a3.6,3.6,0,0,1,4.43-.548l2.316,1.4,1.216-1.8a2.4,2.4,0,0,1,3.083-1.336c13.806,6.632,31.384,11.7,39.638,17.816,9.761,7.232,2.829,23.324-14.2,21.683-13.493-1.3-31.934-16.347-39.005-22.537a2.52,2.52,0,0,1,.651-4.2l.017-.007-1.8-2.591a3.6,3.6,0,0,1,.4-4.588" transform="translate(462.104 154.863)" fill="#131c38"/><path d="M1582.825,3417.364a21.122,21.122,0,0,1-5.84-.867,1.5,1.5,0,1,1,.829-2.891c7.8,2.233,13.033-.976,15.151-4.407,1.609-2.606,1.589-5.441-.05-7.224a1.5,1.5,0,1,1,2.214-2.036c2.577,2.8,2.732,7.056.4,10.84a14.658,14.658,0,0,1-12.7,6.583" transform="translate(458.301 152.754)" fill="#fff"/><path d="M1574.166,3409.214a1.5,1.5,0,0,1-1.235-2.359l8.044-11.62a1.5,1.5,0,1,1,2.474,1.712l-8.045,11.62a1.5,1.5,0,0,1-1.239.648" transform="translate(458.645 153.273)" fill="#fff"/><path d="M1591.792,3373.459l-34.156,14.185,7.879,11.194,38.079-11.194Z" transform="translate(460.246 155.523)" fill="#fff"/><path d="M1591.792,3373.459l-34.156,14.185,7.879,11.194,38.079-11.194Z" transform="translate(460.246 155.523)" fill="none" stroke="#141c38" stroke-miterlimit="10" stroke-width="5"/><path d="M1566.035,3391.562l-2.67-3.785a3.6,3.6,0,0,0-4.279-1.271l-3.939,1.734-.313-1.145a2.517,2.517,0,0,0-2.821-1.825c-7.736,1.225-32.05,4.816-41.2,9.488-10.82,5.525-6.631,22.539,10.433,23.724,13.523.939,32.25-9.1,40.029-14.369,2.555-1.732.765-4.97.765-4.97l3.627-2.991a3.6,3.6,0,0,0,.365-4.591" transform="translate(465.866 154.268)" fill="#131c38"/><path d="M1546.107,3407.674a1.505,1.505,0,0,1-1.446-1.091l-3.529-12.347a1.5,1.5,0,0,1,2.892-.827l3.53,12.347a1.5,1.5,0,0,1-1.033,1.859,1.526,1.526,0,0,1-.414.058" transform="translate(462.01 153.514)" fill="#fff"/><path d="M1522.259,3416.266a1.486,1.486,0,0,1-.487-.082c-5.985-2.05-9.466-4.955-10.348-8.636-1.175-4.9,2.808-9.078,2.979-9.253a1.5,1.5,0,0,1,2.162,2.091c-.031.032-3.01,3.191-2.212,6.475.624,2.57,3.527,4.811,8.393,6.478a1.5,1.5,0,0,1-.487,2.927" transform="translate(465.191 152.926)" fill="#fff"/><g transform="translate(1927.739 3289.263)"><path d="M1593.258,3365.506a1.5,1.5,0,0,1-1.129-.509l-1.8-2.045a1.505,1.505,0,0,1,.151-2.138l9.079-7.77a255.674,255.674,0,0,1,45.524-31.122l6.536-3.5a1.5,1.5,0,0,1,1.42,2.652l-6.536,3.5a252.674,252.674,0,0,0-44.987,30.756l-7.92,6.777.794.9a1.5,1.5,0,0,1-1.128,2.5" transform="translate(-1470.935 -3127.859)" fill="#194a98"/><path d="M1527.4,3361.423a1.577,1.577,0,0,1-.3-.03,1.5,1.5,0,0,1-1.177-1.771l.453-2.242c-5.972-4.351-45.213-32.439-67.13-35.686a1.5,1.5,0,1,1,.441-2.975c24.392,3.613,67.431,35.457,69.251,36.81a1.5,1.5,0,0,1,.577,1.5l-.643,3.183a1.5,1.5,0,0,1-1.472,1.207" transform="translate(-1456.877 -3127.908)" fill="#194a98"/><path d="M1640.918,3264.031c-1.782-7.982-12.421-32.2-21.005-53.879-6.85-17.3-25.643-32.752-45.358-35.261a228.12,228.12,0,0,0-45.881-1.039c-25.507,2.009-47.415,15.39-55.852,37.774-7.6,20.158-15.882,44.908-16.069,57.445-.2,13.356,7.87,26.118,16.677,36.029a67.162,67.162,0,0,0,44.073,21.883c24.45,2.265,62.6,4.535,79.934-1.127,26.577-8.683,47.8-42.51,43.483-61.825" transform="translate(-1456.748 -3112.407)" fill="#e54e20"/><path d="M1619.594,3243H1514.828a8.608,8.608,0,0,0-8.609,8.608v69.271a8.608,8.608,0,0,0,8.609,8.607h104.767a8.607,8.607,0,0,0,8.608-8.607v-69.271a8.608,8.608,0,0,0-8.608-8.608" transform="translate(-1462.017 -3119.845)" fill="#194a98"/><path d="M1625.875,3340.263H1505.441a5.419,5.419,0,1,0,0,10.839h120.434a5.419,5.419,0,1,0,0-10.839" transform="translate(-1461.357 -3130.205)" fill="#131c38"/><path d="M1578.072,3286.512a6.275,6.275,0,1,1-6.275-6.275,6.275,6.275,0,0,1,6.275,6.275" transform="translate(-1468.333 -3123.811)" fill="#e3edf4"/><g transform="translate(71.185)"><path d="M1537.112,3169.985c4.919,8.4,15.068,11.993,24.221,13.488,4.309.7,9.376.085,11.415-4.36,1.957-4.273-1.357-7.261-4.939-8.848a3.57,3.57,0,0,0,.052-.935,35.244,35.244,0,0,0,5.891-2.864c6.716-3.481,10.8-10.092,12.906-17.181a66.713,66.713,0,0,0,2.309-12.237c.323-3.291,1.211-7.728-2.025-9.912a1.3,1.3,0,0,0-2.007.68c-2.662-2.437-6.793-3.02-10.356-3.229-10.195-.614-23.056-2.658-31.285,4.969a15.8,15.8,0,0,0-5.041,12.5c.3,4.21,3.133,8.442,7.554,8.481a8.388,8.388,0,0,1,.006,1.872q-.113,2.418-.226,4.836c-.039.875-.084,1.738-.117,2.6-.164,1.218-.312,2.442-.476,3.661-.111.9-.217,1.8-.34,2.7a1.433,1.433,0,0,1-.534,1.037c-1.078.165-2.366.114-2.951.17a.888.888,0,0,0-.76.641c-.839.094-1.689.166-2.544.226a1.093,1.093,0,0,0-.75,1.71" transform="translate(-1536.474 -3107.157)" fill="#fff"/><path d="M1542.767,3164.4c.066-2.327.194-4.67.426-6.994a41.134,41.134,0,0,1,1.035-6.939.889.889,0,0,1,.439-.573,1,1,0,0,1-.847-.038c-.407-.2-.82-.446-1.22-.694a12.439,12.439,0,0,1-4.577-5.02,8.22,8.22,0,0,1-.606-5.48,10.249,10.249,0,0,1,.56-1.621,1.012,1.012,0,0,1-.472-.69c-1.508-6.769-1.952-13.561,2.057-19.255,3.667-5.207,9.58-8.517,15.5-10.349a31.78,31.78,0,0,1,19.231-.174,26.141,26.141,0,0,1,14.631,12.279,21.263,21.263,0,0,1,2.626,10.35c-.054,4.059-1.349,8.32-2.429,12.206a52.961,52.961,0,0,0-1.7,6.094c-.354,2.372-.193,4.445-1.121,6.752a22.812,22.812,0,0,1-4.929,6.981,29.814,29.814,0,0,1-9.906,6.918c-1.984.845-3.6,1.127-5.577.107a46.294,46.294,0,0,1-6.007-3.836,55.422,55.422,0,0,1-11.866-11.859.972.972,0,0,1,1.572-1.143,56.406,56.406,0,0,0,12.018,11.748c1.238.876,2.5,1.712,3.812,2.485,1.279.76,2.464,1.579,4,1.063a22.069,22.069,0,0,0,6.2-3.456,28.852,28.852,0,0,0,8-8.871c2.2-3.971,1.834-8.371,3.469-12.516.195-.485.412-.981.65-1.459.047-.1.105-.212.158-.333a14.073,14.073,0,0,1,.4-2.946,34.936,34.936,0,0,0,1.129-7.758,11.69,11.69,0,0,0-.6-1.783,39.2,39.2,0,0,1-24.964,0q-1.588-.521-3.125-1.189c-.441-.187-.876-.392-1.312-.6-.337-.168-1.32-.905-1.691-.853-.884.115-1.675,2.373-2.035,3.085q-.838,1.7-1.511,3.48c-.463,1.248-.827,2.505-1.19,3.79-.066.208-.127.426-.2.639a11.784,11.784,0,0,1-.691,5.732,2.025,2.025,0,0,1-1.376,1.445,2.073,2.073,0,0,1-1.7-.59,4.214,4.214,0,0,1-1.157-3.142c0-.446.042-.957.049-1.463a4.227,4.227,0,0,0-7.68-.757,6.344,6.344,0,0,0-.459,5.788,10.515,10.515,0,0,0,4.216,4.714c.1.047.218.088.333.131.076.018.147.052.223.071.186.049.323.081.476.117.279.045.559.092.84.11.4.016.54.019.672.012a6.159,6.159,0,0,0,.839-.094,3.872,3.872,0,0,0,.4-.077,1.089,1.089,0,0,0,.211-.044c.543-.146.971-.305,1.427-.029a.686.686,0,0,1,.379.692,1.055,1.055,0,0,1-.494.775,2.675,2.675,0,0,1-.564.277,6.41,6.41,0,0,1-1.054.3,8.641,8.641,0,0,1-2,.107.834.834,0,0,1,.251.711c-.149,2.327-.618,4.638-.865,6.955s-.452,4.642-.558,6.975a.883.883,0,0,1-1.744-.272" transform="translate(-1536.418 -3105.165)" fill="#131c38"/><path d="M1587.446,3158.648c4.011.963,8.019-2.333,9.9-5.619a8.208,8.208,0,0,0,.641-6.837.674.674,0,0,0,.094-.667c-1.671-4.051-6.746-5.657-10.7-4.271-3.662,1.281-7.056,5.222-6.861,9.257a9.43,9.43,0,0,0,6.933,8.137m-5.09-9.7a8.867,8.867,0,0,1,6.957-6.449,7.127,7.127,0,0,1,4.949,1.122.531.531,0,0,0,.248.41c3.458,2.255,2.719,6.889.366,9.646-2.061,2.413-5.174,4.374-8.318,2.866-2.663-1.278-4.953-4.572-4.2-7.595" transform="translate(-1541.114 -3108.956)" fill="#131c38"/><path d="M1568.028,3156.326a10.454,10.454,0,0,0,7.761-8.628,7.816,7.816,0,0,0-4.67-7.989c-2.959-2.211-7.631-1.648-10.357.685a9.648,9.648,0,0,0-2.535,10.287,8.221,8.221,0,0,0,9.8,5.645m-8.6-7.761a7.188,7.188,0,0,1,10.291-7.869,7.807,7.807,0,0,1,1.135.638.738.738,0,0,0,.527.136,6.727,6.727,0,0,1,2.376,7.564,8.812,8.812,0,0,1-7.708,5.865c-3.554.109-6.147-3.031-6.621-6.334" transform="translate(-1538.685 -3108.696)" fill="#131c38"/><path d="M1548.185,3138.591a.707.707,0,0,1,.923-.349,40.286,40.286,0,0,1,8.565,5.35c.694.558-.142,1.521-.858,1.052-2.718-1.782-5.5-3.447-8.282-5.129a.722.722,0,0,1-.349-.923" transform="translate(-1537.665 -3108.681)" fill="#131c38"/><path d="M1576.473,3149.959a1.7,1.7,0,0,1,1.025-.879,2.838,2.838,0,0,1,1.049-.2,2.787,2.787,0,0,1,1.206.232,2.723,2.723,0,0,1,.943.749.665.665,0,0,1-.956.9,1.838,1.838,0,0,0-.164-.139,3.554,3.554,0,0,0-.646-.25c-.071-.012-.143-.021-.215-.027a2.415,2.415,0,0,0-.43.043,2.124,2.124,0,0,0-.239.085,5.226,5.226,0,0,1-.694.407.691.691,0,0,1-.747-.171.708.708,0,0,1-.131-.752" transform="translate(-1540.679 -3109.82)" fill="#131c38"/><path d="M1578.8,3156.619c.172-.195.406-.3.585-.485a1.6,1.6,0,0,0,.36-.581,3.746,3.746,0,0,0-.044-1.68q-.261-2.006-.5-4.013a.64.64,0,0,1,1.271-.146c.231,1.514.452,3.031.652,4.549a3.576,3.576,0,0,1-.206,2.033,2.365,2.365,0,0,1-1.539,1.394.666.666,0,0,1-.585-1.071" transform="translate(-1540.916 -3109.851)" fill="#131c38"/><path d="M1576.789,3162.377a.666.666,0,0,1,.727-.464c.354.028.7.117,1.059.15.089.009.178.015.266.02.32,0,.487,0,.654-.012a6.6,6.6,0,0,0,1.01-.153c.257-.069.342-.1.426-.125.17-.057.336-.121.5-.19a.654.654,0,0,1,.841.367.665.665,0,0,1-.367.842,7.173,7.173,0,0,1-2.291.6,7.693,7.693,0,0,1-1.219.008,3.881,3.881,0,0,1-1.253-.256.659.659,0,0,1-.355-.787" transform="translate(-1540.715 -3111.171)" fill="#131c38"/><path d="M1585.115,3150.866a3.716,3.716,0,0,1,2-2.964.687.687,0,0,1,.7.11.7.7,0,0,1,.248.65,4.616,4.616,0,0,1-1.273,2.547.8.8,0,0,1-.379.234c-.153.064-.251.124-.358.173a.689.689,0,0,1-.689-.107.722.722,0,0,1-.246-.643" transform="translate(-1541.604 -3109.711)" fill="#131c38"/><path d="M1568.626,3149.514a3.716,3.716,0,0,1,.375-1.113,2.949,2.949,0,0,1,1.023-1.331.69.69,0,0,1,.209-.084.78.78,0,0,1,.694-.144.742.742,0,0,1,.479.432,1.583,1.583,0,0,1-.466,1.91,2.38,2.38,0,0,1-1.019.992.656.656,0,0,1-.523.149.725.725,0,0,1-.515-.136.735.735,0,0,1-.258-.675" transform="translate(-1539.848 -3109.601)" fill="#131c38"/><path d="M1539.5,3173.134q2.159-.744,4.3-1.523c.717-.268.441-1.47-.318-1.319-1.61.305-3.218.676-4.815,1.1a14.454,14.454,0,0,0,.831,1.745" transform="translate(-1536.658 -3112.1)" fill="#131c38"/><path d="M1569.744,3179.427a12.418,12.418,0,0,1,.291-2.384,14.928,14.928,0,0,1,.666-2.607.674.674,0,0,1,1.273.2c.03,1.533-.511,3.016-.536,4.543a5.664,5.664,0,0,0,.282,1.859c.217.65.586,1.23.779,1.888a.718.718,0,0,1-1.113.811c-1.24-.883-1.654-2.871-1.643-4.31" transform="translate(-1539.967 -3112.502)" fill="#131c38"/><path d="M1543.008,3143.645a.683.683,0,0,1,.939-.1,12.929,12.929,0,0,1,2.218,1.893,12.716,12.716,0,0,1,.888,1.047,5.9,5.9,0,0,1,.837,1.3.7.7,0,0,1-1.2.661c-.286-.348-.491-.777-.761-1.142a11.91,11.91,0,0,0-.842-1.025,11.648,11.648,0,0,0-1.982-1.7.674.674,0,0,1-.095-.941" transform="translate(-1537.104 -3109.238)" fill="#131c38"/><path d="M1543.618,3148.231a.676.676,0,0,1,.054-.351,1.589,1.589,0,0,1,.078-.215c.033-.069.069-.135.1-.2q.1-.2.207-.405c.138-.27.276-.541.415-.811a.732.732,0,0,1,.379-.36.692.692,0,0,1,.9.392.7.7,0,0,1-.014.538l-.415.825a6.635,6.635,0,0,1-.522.936.669.669,0,0,1-.442.242.7.7,0,0,1-.424-.1.637.637,0,0,1-.273-.32c-.014-.055-.028-.111-.042-.168" transform="translate(-1537.184 -3109.497)" fill="#131c38"/></g></g></g></g></svg>