<svg id="linkedin_blue" data-name="linkedin blue" xmlns="http://www.w3.org/2000/svg" xmlns:xlink="http://www.w3.org/1999/xlink" width="25.077" height="25.206" viewBox="0 0 25.077 25.206">
  <defs>
    <clipPath id="clip-path">
      <rect id="Rectangle_449" data-name="Rectangle 449" width="25.077" height="25.206" fill="#3da0da"/>
    </clipPath>
  </defs>
  <g id="Groupe_1479" data-name="Groupe 1479" clip-path="url(#clip-path)">
    <path id="Tracé_3599" data-name="Tracé 3599" d="M25.077,12.6q0,5.363,0,10.726a1.81,1.81,0,0,1-1.483,1.839,2.338,2.338,0,0,1-.487.033q-10.571,0-21.141.006A1.876,1.876,0,0,1,.037,23.728a2.463,2.463,0,0,1-.03-.43Q.006,12.6,0,1.9A1.856,1.856,0,0,1,1.873,0c.05,0,.1,0,.15,0Q12.547,0,23.07,0a2.056,2.056,0,0,1,.968.183,1.78,1.78,0,0,1,1.039,1.692q0,4.255,0,8.51,0,1.108,0,2.217m-11.59-1.283c0-.525,0-.988,0-1.451,0-.128-.04-.156-.16-.155q-1.73.006-3.461,0c-.125,0-.18.024-.17.165.017.262.018.525.019.788.008,3.406.008,6.812-.024,10.218,0,.175.047.216.217.214q1.683-.011,3.366,0c.171,0,.215-.042.214-.214-.006-2.085,0-4.17,0-6.255a2.636,2.636,0,0,1,.057-.578A2.062,2.062,0,0,1,15.7,12.443a1.608,1.608,0,0,1,1.488,1,3.314,3.314,0,0,1,.28,1.388q.01,3.043,0,6.086c0,.15.041.184.186.184q1.7-.009,3.4,0c.166,0,.207-.04.207-.206-.006-2.079,0-4.157,0-6.236a8.035,8.035,0,0,0-.178-1.79,4.3,4.3,0,0,0-1.614-2.648,4.122,4.122,0,0,0-2.264-.76,3.883,3.883,0,0,0-2.944.931,5.239,5.239,0,0,0-.777.929M3.818,15.395c0,1.834,0,3.668,0,5.5,0,.172.049.2.208.2q1.7-.01,3.4,0c.15,0,.186-.042.186-.188q-.006-5.5,0-11c0-.162-.051-.2-.2-.194-1.128.006-2.256.008-3.384,0-.182,0-.21.059-.21.221q.008,2.732,0,5.464M5.707,8.162a2.766,2.766,0,0,0,.632-.075,1.907,1.907,0,0,0,1.5-1.652A1.936,1.936,0,0,0,6.807,4.47a2.526,2.526,0,0,0-1.445-.215A1.948,1.948,0,0,0,3.7,6.847,2,2,0,0,0,5.707,8.162" transform="translate(0 0)" fill="#3da0da"/>
  </g>
</svg>
