<svg xmlns="http://www.w3.org/2000/svg" xmlns:xlink="http://www.w3.org/1999/xlink" width="276.073" height="276.827" viewBox="0 0 276.073 276.827"><defs><clipPath id="a"><rect width="276.073" height="212.395" fill="none"/></clipPath><clipPath id="b"><rect width="111.559" height="154.348" fill="none"/></clipPath></defs><g transform="translate(-1107 -2223.307)"><g transform="translate(1107 2223.307)"><path d="M210.318,12.957,141.05,2.513,71.781,12.957,2.513,2.513V203.469l69.268,10.443,69.269-10.443,69.269,10.443,67.271-10.443V2.513Z" transform="translate(-2.015 -2.015)" fill="#e9f2f6"/><path d="M351.975,213.912l69.268-10.443V2.513L351.975,12.957Z" transform="translate(-282.208 -2.015)" fill="#44a8d3"/><path d="M1048.687,213.912l66.938-10.443V2.513l-66.938,10.443Z" transform="translate(-840.821 -2.015)" fill="#44a8d3"/><g clip-path="url(#a)"><path d="M69.841,212.392a.482.482,0,0,1-.075-.006L.424,201.946A.5.5,0,0,1,0,201.453V.5A.5.5,0,0,1,.572.005L69.767,10.438,138.961.005a.5.5,0,0,1,.148,0L208.3,10.437,275.5.006a.5.5,0,0,1,.575.492V201.453a.5.5,0,0,1-.422.492l-22.167,3.441a.5.5,0,0,1-.153-.984l21.745-3.376V1.079l-66.7,10.354a.5.5,0,0,1-.151,0L139.035,1,69.841,11.434a.5.5,0,0,1-.149,0L1,1.077V201.025L69.915,211.4a.5.5,0,0,1-.074.991" transform="translate(0 0)" fill="#fff"/><path d="M666.1,1025.267a.463.463,0,0,1-.075-.006l-68.756-10.432-25.178,3.8a.5.5,0,1,1-.148-.985l25.252-3.807a.494.494,0,0,1,.149,0l68.753,10.432,41.545-6.731a.5.5,0,1,1,.16.983l-41.623,6.744a.531.531,0,0,1-.08.006" transform="translate(-458.239 -812.872)" fill="#133653"/><path d="M246.246,558.339A2.9,2.9,0,0,0,244.4,560.9c-.113,3.486-2.308,11.941-5.47,14.565-8.618,7.153-3.631,19.784,2.281,22.737s8.293,3.277,8.354,8.282-.746,24.26.673,29.37,4.629,13.481,6.518,15.5,6.558,3.419,4.172-3.848-3.936-10.719-.233-14.394,10.076-12.355,10.805-15.841,2.928-5.4,4.771-5.677,5.786-1.224,7.015-2.38-.756-4.85-1.19-8.009-.287-5.023,5.564-7.075,3.691-9.3-3.854-11.754-11.986-6.751-10.771-10.617-4.926-3.919-8.4-6.06-3.133-5.06-7.052-6.764c-5.3-2.3-9.206-1.482-11.333-.594" transform="translate(-187.857 -446.945)" fill="#005ea9"/><path d="M144.628,124.02c1.171-2.89,1.467-6.959.645-8.512s-3.448-4.175-9-.875-6.862,3.2-8.145.308,2.476-9.867,9.047-9.364,8.059-1.618,8.378-3.27-1.6-3.661-3.824-4.2-2.7.724-12.378,3.708a25.619,25.619,0,0,1-12.52.68,4.309,4.309,0,0,1-3.124-2.513c-1.029-2.366-2.832-5.189-7.321-3.183-5.9,2.637-8.825,7.188-11.013,6.038s-2.512-4.264-3.382-5.876-9.37-7.6-15.981-5.014-17.8,7.2-16.307,9.986,6.008,3.268,13.054,2.4,4.81,4.019,5.527,5.759,2.655,2.45,2.511,6.09-.581,5.572-3.119,7.063a7.673,7.673,0,0,0-3.99,7.277c.586,20.093,13.6,31.653,17.181,33.191s4.572,1.614,6.247,3.848a.663.663,0,0,0,.135.133c2.523,4.454,5.049,7.886,6.256,8.716,3.046,2.1,3.884-2.27,4.161-5.787s-.754-7.84-2.311-12.056-1.353-6.808-.658-8.431a2.489,2.489,0,0,1,4.361-.225c1.371,1.781,4.864,3.535,6.681,2.627,2.232-1.117,1.8-6.19,2.679-7.8s5.1-2.4,7.066-5.791,8.435-1.931,12.16-2.618c4.632-.853,7.595-2.9,8.133-4.022,1.705-3.569-2.324-5.4-1.152-8.289" transform="translate(-47.763 -73.207)" fill="#005ea9"/><path d="M481.289,56.815a3.438,3.438,0,0,0-2.24,4.572,4.169,4.169,0,0,0,.968,1.565c1.241,1.079,6.513,2.061,7.3,4.174s-2.868,12.1.656,14.233c2.247,1.359,17.046-3.082,23.767-8.332s9.787-8.718,6.2-9.235-12.085.084-17.357-.9-13.825-5.817-16.567-6.311a5.91,5.91,0,0,0-2.725.233" transform="translate(-383.897 -45.309)" fill="#005ea9"/><path d="M566.216,201.33s-11.374,2.374-15.878-.486-.544-7.305-7.424-7.55-19.847-.738-23.794,10.231-3.672,15.926,2.688,20.608,16.4-.559,18.528,2.567,1.21,5.153,1.873,10.172c1.969,14.914,6.836,30.121,11.973,32.33,3.068,1.319,10.582-1.068,13.747-6.294s6.367-8.3,6.853-13.063c.379-3.717-3.983-7.036.506-11.222s10.838-5.5,10.832-8.375-2.124-3.648-4.772-4.425-9.274-6.241-8.753-10.157,1.906-5.876,3.172-4.633.852,4.98,1.908,6.638,2.961,6.636,6.535,4.76,4.625-3.124,6.729-3.544,3.145-6.027,1.458-7.684-3.37-.823-4.425-2.066-2.956-4.145.414-3.322,1.48,3.11,7.376,3.927,11.588,4.748,13.28,8.9,3.178,10.165,5.494,10.367,1.667-8.1,5.451-10.807,6.092-6.034,8.623-3.756,6.753,8.288,9.493,9.943,8.849,3.717,7.788-.225-6.122-8.5-3.178-10.165,10.319,2.052,12-1.9-.65-9.132-3.182-11.825-1.487-6.639,1.253-4.985,6.329,6.628,8.223,6.416-1.9-3.525.194-7.889,4.2-6.652,1.032-9.967-8.853-5.792-6.33-7.044,5.683-.22,8.63-.227,3.149-4.366,4.625-3.124,1.071,9.131,4.862,10.161-.223-6.02,2.719-8.725,6.3-6.865,3.983-8.313-10.315.231-12.634-1.632-6.322-3.307-13.9-2.459-19.361,2.742-24.629.263-2.745-4.353-9.064-6-19.79-.993-22.944.467-3.571,3.537-16.829,5.643-13.694-5.366-18.958-5.977-8.632-.6-15.149,3.979-10.09,6.873-7.142,7.489,3.371,1.445,8,.189,5.255-3.541,6.94-3.13,3.373,2.276-1.042,4.985-5.263.012-8,.848-1.467,3.117-3.78,4.576-2.529-1.447-5.681,1.466-3.147,5.4-4.407,6.86-3.793-2.067-5.472.635-.408,6.436,2.538,6.014,5.674-4.787,9.883-5.212,7.572-3.131,7.789-.018.224,6.642,1.907,6.223,1.04-6.022,2.514-5.818,3.166,4.352,6.116,5.591,6.527.608,9.266,2.055,6.834,2.745.167,7.711" transform="translate(-414.136 -124.905)" fill="#005ea9"/><path d="M955.275,704.888s-3.679-17.867,5.231-20.312,24.381-3.1,27.6-9.22c4.8-9.1,15.058-9.1,19.65-.45,4.4,8.293,13.611,16.282,10.986,21.944s-21.938,22.544-26.271,22.213-6.365-11.43-11.389-12.2-18.335-.33-21.631.3c-3.474.669-4.18-2.274-4.18-2.274" transform="translate(-765.322 -535.972)" fill="#005ea9"/><path d="M699.422,318.771a.5.5,0,0,1-.5-.5V284.61a.5.5,0,0,1,1,0v33.663a.5.5,0,0,1-.5.5" transform="translate(-560.387 -227.797)" fill="#133653"/><path d="M699.422,27.729a.5.5,0,0,1-.5-.5V.5a.5.5,0,0,1,1,0V27.231a.5.5,0,0,1-.5.5" transform="translate(-560.387 -0.001)" fill="#133653"/><path d="M699.422,627.113a.5.5,0,0,1-.5-.5V591.032a.5.5,0,0,1,1,0v35.583a.5.5,0,0,1-.5.5" transform="translate(-560.387 -473.481)" fill="#133653"/><path d="M349.959,637.1a.5.5,0,0,1-.5-.5V605.934a.5.5,0,0,1,1,0V636.6a.5.5,0,0,1-.5.5" transform="translate(-280.193 -485.43)" fill="#133653"/><path d="M349.959,395.675a.5.5,0,0,1-.5-.5V379.892a.5.5,0,1,1,1,0v15.285a.5.5,0,0,1-.5.5" transform="translate(-280.193 -304.192)" fill="#133653"/><path d="M349.959,77.286a.5.5,0,0,1-.5-.5v-23.6a.5.5,0,1,1,1,0v23.6a.5.5,0,0,1-.5.5" transform="translate(-280.193 -42.244)" fill="#133653"/><path d="M1048.883,80.974a.5.5,0,0,1-.5-.5V53.185a.5.5,0,1,1,1,0V80.476a.5.5,0,0,1-.5.5" transform="translate(-840.579 -42.244)" fill="#133653"/><path d="M231.672,316.571a.476.476,0,0,1-.424-.268l-.211-.422a.508.508,0,0,1,.2-.671.47.47,0,0,1,.645.213l.21.42a.509.509,0,0,1-.2.672.46.46,0,0,1-.221.056m-1.921-4a.477.477,0,0,1-.431-.282c-.539-1.164-1.088-2.384-1.631-3.625a.507.507,0,0,1,.237-.66.471.471,0,0,1,.634.247c.54,1.234,1.086,2.447,1.622,3.6a.508.508,0,0,1-.223.665.461.461,0,0,1-.207.049m-3.18-7.262a.478.478,0,0,1-.439-.3c-.507-1.224-1.008-2.465-1.487-3.688a.505.505,0,0,1,.262-.649.472.472,0,0,1,.624.273c.477,1.217.975,2.452,1.479,3.67a.506.506,0,0,1-.249.655.462.462,0,0,1-.189.041m-2.9-7.387a.479.479,0,0,1-.447-.32c-.46-1.246-.911-2.506-1.341-3.748a.5.5,0,0,1,.288-.638.474.474,0,0,1,.612.3c.428,1.235.877,2.489,1.335,3.728a.505.505,0,0,1-.275.644.462.462,0,0,1-.172.034m-2.6-7.506a.481.481,0,0,1-.453-.34c-.409-1.267-.806-2.549-1.179-3.808a.5.5,0,0,1,.316-.623.476.476,0,0,1,.6.329c.371,1.252.765,2.525,1.172,3.785a.5.5,0,0,1-.3.631.46.46,0,0,1-.152.026m-2.26-7.622a.482.482,0,0,1-.46-.363c-.351-1.3-.684-2.6-.988-3.868a.5.5,0,0,1,.348-.6.477.477,0,0,1,.58.362c.3,1.256.632,2.548.981,3.841a.5.5,0,0,1-.331.614.456.456,0,0,1-.13.019m-1.86-7.737a.484.484,0,0,1-.467-.392c-.278-1.327-.532-2.649-.755-3.928a.5.5,0,0,1,.385-.579.48.48,0,0,1,.556.4c.222,1.268.474,2.579.749,3.9a.5.5,0,0,1-.366.593.464.464,0,0,1-.1.011m-1.366-7.846a.485.485,0,0,1-.473-.428c-.184-1.347-.339-2.684-.461-3.976a.493.493,0,0,1,.43-.544.485.485,0,0,1,.523.447c.12,1.277.274,2.6.456,3.933a.5.5,0,0,1-.407.563.462.462,0,0,1-.068,0m-.74-7.931a.487.487,0,0,1-.477-.474c-.054-1.162-.081-2.319-.081-3.437q0-.287,0-.576a.488.488,0,0,1,.478-.494h0a.489.489,0,0,1,.474.5q0,.283,0,.567c0,1.1.027,2.244.081,3.39a.491.491,0,0,1-.455.522h-.023m.078-7.965h-.036a.492.492,0,0,1-.441-.534c.1-1.366.243-2.71.431-4a.481.481,0,0,1,.545-.417.5.5,0,0,1,.4.567c-.184,1.26-.326,2.579-.423,3.92a.487.487,0,0,1-.477.461m1.164-7.865a.46.46,0,0,1-.114-.014.5.5,0,0,1-.351-.6c.311-1.329.683-2.629,1.1-3.865a.474.474,0,0,1,.611-.3.5.5,0,0,1,.291.636c-.411,1.2-.773,2.471-1.077,3.767a.482.482,0,0,1-.464.38m2.572-7.486a.459.459,0,0,1-.211-.051.508.508,0,0,1-.218-.667,32.345,32.345,0,0,1,1.929-3.511.467.467,0,0,1,.663-.141.511.511,0,0,1,.135.69,31.349,31.349,0,0,0-1.868,3.4.476.476,0,0,1-.43.278m4.174-6.66a.465.465,0,0,1-.3-.113.512.512,0,0,1-.066-.7c.812-1.03,1.684-2.037,2.594-2.992a.465.465,0,0,1,.677,0,.513.513,0,0,1,0,.7c-.888.934-1.741,1.917-2.534,2.923a.469.469,0,0,1-.37.182m143.5-1.885q-1.445,0-2.92-.021a.5.5,0,0,1,.007-1h.007q1.934.027,3.817.019h0a.5.5,0,0,1,0,1l-.914,0m4.738-.059a.5.5,0,0,1-.011-1c1.288-.033,2.571-.08,3.813-.141a.5.5,0,0,1,.045.995c-1.249.061-2.539.109-3.835.142h-.012m-11.476-.048h-.014c-1.243-.038-2.532-.088-3.831-.147a.5.5,0,0,1,.042-1c1.294.059,2.578.108,3.817.147a.5.5,0,0,1-.014,1m19.12-.33a.487.487,0,0,1-.477-.462.492.492,0,0,1,.443-.533c1.285-.1,2.563-.211,3.8-.341a.483.483,0,0,1,.524.446.493.493,0,0,1-.428.546c-1.245.13-2.532.246-3.826.343h-.035m-26.765-.018h-.027c-1.246-.074-2.533-.158-3.824-.25a.5.5,0,0,1,.065-.994c1.288.092,2.57.176,3.812.25a.5.5,0,0,1-.027,1m-7.633-.544-.038,0q-1.9-.156-3.817-.326a.492.492,0,0,1-.436-.539.482.482,0,0,1,.517-.454q1.907.169,3.81.325a.492.492,0,0,1,.439.536.486.486,0,0,1-.476.459m42.01-.24a.485.485,0,0,1-.474-.433.5.5,0,0,1,.411-.559c1.277-.176,2.544-.374,3.767-.589a.482.482,0,0,1,.551.408.5.5,0,0,1-.392.574c-1.234.216-2.512.416-3.8.594a.463.463,0,0,1-.063,0m-49.639-.437-.044,0q-1.913-.182-3.82-.375a.493.493,0,0,1-.43-.544.483.483,0,0,1,.522-.448q1.9.193,3.815.375a.493.493,0,0,1,.433.541.486.486,0,0,1-.476.453m-7.628-.772-.049,0q-1.914-.2-3.811-.417a.493.493,0,0,1-.424-.548.483.483,0,0,1,.527-.442q1.894.212,3.807.416a.493.493,0,0,1,.427.546.486.486,0,0,1-.475.447m64.81-.12a.483.483,0,0,1-.468-.4.5.5,0,0,1,.37-.59c1.257-.274,2.5-.574,3.707-.894a.477.477,0,0,1,.582.36.5.5,0,0,1-.345.606c-1.216.323-2.477.627-3.748.9a.464.464,0,0,1-.1.011m-72.427-.732a.448.448,0,0,1-.054,0q-1.92-.224-3.807-.454a.494.494,0,0,1-.42-.552.484.484,0,0,1,.531-.437q1.886.229,3.8.453a.494.494,0,0,1,.422.55.486.486,0,0,1-.475.443m-93.234-.47a.469.469,0,0,1-.367-.178.512.512,0,0,1,.06-.7q.46-.4.949-.8c.694-.569,1.418-1.115,2.152-1.622a.467.467,0,0,1,.663.14.511.511,0,0,1-.134.69c-.712.492-1.415,1.022-2.089,1.574q-.477.391-.926.784a.464.464,0,0,1-.307.116m85.625-.454a.472.472,0,0,1-.058,0q-1.926-.242-3.8-.487a.5.5,0,0,1-.415-.556.485.485,0,0,1,.534-.432q1.875.244,3.8.486a.5.5,0,0,1,.418.554.485.485,0,0,1-.474.438m87.447-.318a.481.481,0,0,1-.457-.352.5.5,0,0,1,.317-.622c1.223-.391,2.435-.814,3.6-1.259a.473.473,0,0,1,.613.3.5.5,0,0,1-.285.639c-1.184.451-2.412.88-3.65,1.276a.462.462,0,0,1-.141.022m-95.049-.671a.5.5,0,0,1-.062,0q-1.937-.26-3.8-.517a.5.5,0,0,1-.412-.559.482.482,0,0,1,.537-.429q1.86.257,3.8.517a.494.494,0,0,1,.413.558.485.485,0,0,1-.474.434m-7.595-1.048a.452.452,0,0,1-.065,0q-1.955-.277-3.8-.546a.5.5,0,0,1-.407-.562.482.482,0,0,1,.54-.424q1.839.268,3.793.545a.5.5,0,0,1,.41.561.485.485,0,0,1-.473.431m109.825-1.021a.478.478,0,0,1-.439-.3.506.506,0,0,1,.25-.655c1.167-.525,2.324-1.089,3.438-1.676a.469.469,0,0,1,.643.22.508.508,0,0,1-.211.669c-1.131.6-2.306,1.168-3.491,1.7a.463.463,0,0,1-.19.041m-117.414-.084a.472.472,0,0,1-.069-.005q-1.991-.3-3.794-.574a.5.5,0,0,1-.4-.565.483.483,0,0,1,.543-.42q1.8.276,3.79.574a.5.5,0,0,1,.406.564.485.485,0,0,1-.473.428m-56.476-.8a.476.476,0,0,1-.427-.274.508.508,0,0,1,.211-.669,33.918,33.918,0,0,1,3.556-1.613.473.473,0,0,1,.615.294.5.5,0,0,1-.282.64,32.908,32.908,0,0,0-3.456,1.568.464.464,0,0,1-.216.053m48.895-.366a.466.466,0,0,1-.072-.006c-1.405-.221-2.674-.424-3.79-.6a.5.5,0,0,1-.4-.569.482.482,0,0,1,.546-.416c1.115.18,2.382.383,3.786.6a.5.5,0,0,1,.4.567.485.485,0,0,1-.473.424m-7.576-1.226a.46.46,0,0,1-.077-.007c-1.015-.17-1.6-.271-1.7-.288l-2.089-.365a.5.5,0,0,1-.393-.574.481.481,0,0,1,.551-.409l2.073.362.014,0c.1.017.683.118,1.7.287a.5.5,0,0,1,.4.571.485.485,0,0,1-.472.419m139.392-1.128a.474.474,0,0,1-.412-.245.51.51,0,0,1,.169-.682c1.088-.668,2.165-1.38,3.2-2.117a.467.467,0,0,1,.665.13.511.511,0,0,1-.125.692c-1.053.749-2.148,1.473-3.254,2.152a.461.461,0,0,1-.243.069m-173.555-.058a.482.482,0,0,1-.463-.374.5.5,0,0,1,.344-.607c1.218-.326,2.492-.6,3.788-.82a.48.48,0,0,1,.548.412.5.5,0,0,1-.4.571c-1.267.213-2.512.482-3.7.8a.463.463,0,0,1-.12.016m26.6-.107a.472.472,0,0,1-.074-.006c-1.366-.221-2.6-.406-3.776-.564a.494.494,0,0,1-.413-.558.482.482,0,0,1,.536-.43c1.184.159,2.427.345,3.8.567a.5.5,0,0,1,.4.569.485.485,0,0,1-.472.422m-7.592-1.008-.045,0c-1.3-.125-2.58-.218-3.794-.275a.5.5,0,0,1,.044-1c1.229.058,2.521.152,3.839.278a.493.493,0,0,1,.432.542.486.486,0,0,1-.476.452m-11.465-.168a.486.486,0,0,1-.476-.458.492.492,0,0,1,.438-.536c1.241-.1,2.538-.164,3.854-.181a.5.5,0,0,1,.484.492.489.489,0,0,1-.473.5c-1.295.016-2.57.076-3.789.177l-.039,0m172.323-3.15a.47.47,0,0,1-.376-.189.512.512,0,0,1,.079-.7c1.05-.863,2.012-1.729,2.86-2.573a.465.465,0,0,1,.677.016.513.513,0,0,1-.015.7c-.87.866-1.855,1.753-2.928,2.635a.465.465,0,0,1-.3.107m5.476-5.54a.464.464,0,0,1-.3-.106.512.512,0,0,1-.081-.7,18.452,18.452,0,0,0,2-3.265.47.47,0,0,1,.64-.23.508.508,0,0,1,.221.666,19.471,19.471,0,0,1-2.1,3.444.471.471,0,0,1-.376.19m3.232-7.129a.467.467,0,0,1-.08-.007.5.5,0,0,1-.392-.574c.065-.4.111-.808.138-1.214.019-.283.028-.57.028-.853a13.3,13.3,0,0,0-.116-1.748.5.5,0,0,1,.409-.561.483.483,0,0,1,.539.426,14.421,14.421,0,0,1,.125,1.884c0,.305-.01.615-.031.921-.029.439-.079.881-.149,1.312a.484.484,0,0,1-.471.415m-.972-7.789a.479.479,0,0,1-.442-.306,20.617,20.617,0,0,0-1.78-3.412.511.511,0,0,1,.133-.691.467.467,0,0,1,.663.138,21.642,21.642,0,0,1,1.867,3.58.506.506,0,0,1-.257.652.459.459,0,0,1-.184.039m-4.171-6.641a.47.47,0,0,1-.358-.167c-.793-.93-1.686-1.874-2.655-2.8a.512.512,0,0,1-.027-.7.465.465,0,0,1,.676-.029c.992.953,1.908,1.92,2.722,2.875a.513.513,0,0,1-.04.7.466.466,0,0,1-.317.125m-5.605-5.423a.465.465,0,0,1-.3-.107c-.95-.782-1.978-1.575-3.054-2.357a.511.511,0,0,1-.119-.693.466.466,0,0,1,.666-.124c1.092.793,2.135,1.6,3.1,2.392a.512.512,0,0,1,.078.7.47.47,0,0,1-.376.189m-6.273-4.574a.462.462,0,0,1-.254-.076c-.7-.46-1.438-.927-2.245-1.426q-.5-.307-1.019-.605a.509.509,0,0,1-.19-.676.469.469,0,0,1,.649-.2q.537.306,1.048.622c.814.5,1.555.974,2.265,1.439a.511.511,0,0,1,.151.687.474.474,0,0,1-.406.233m-6.727-3.794a.461.461,0,0,1-.191-.042c-1.1-.5-2.286-.991-3.529-1.46a.5.5,0,0,1-.287-.638.474.474,0,0,1,.612-.3c1.262.476,2.468.975,3.587,1.484a.506.506,0,0,1,.247.656.478.478,0,0,1-.438.3m-7.19-2.731a.46.46,0,0,1-.14-.022c-1.167-.372-2.4-.737-3.665-1.084a.5.5,0,0,1-.341-.608.476.476,0,0,1,.584-.355c1.277.35,2.523.719,3.7,1.095a.5.5,0,0,1,.317.622.481.481,0,0,1-.457.352m-7.4-2.039a.462.462,0,0,1-.107-.013c-1.2-.286-2.458-.564-3.732-.827a.5.5,0,0,1-.376-.586.482.482,0,0,1,.563-.392c1.282.265,2.547.545,3.758.833a.5.5,0,0,1,.36.6.483.483,0,0,1-.466.388m-7.51-1.557a.463.463,0,0,1-.082-.007c-1.23-.221-2.5-.434-3.77-.632a.5.5,0,0,1-.4-.566.482.482,0,0,1,.544-.419c1.279.2,2.555.413,3.791.635a.5.5,0,0,1,.39.576.485.485,0,0,1-.471.413m-7.573-1.183a.467.467,0,0,1-.062,0c-1.248-.167-2.524-.325-3.794-.468a.494.494,0,0,1-.424-.549.486.486,0,0,1,.527-.441c1.276.144,2.558.3,3.812.471a.494.494,0,0,1,.413.558.485.485,0,0,1-.474.435m-7.614-.863-.043,0c-1.269-.118-2.55-.225-3.808-.316a.492.492,0,0,1-.444-.532.487.487,0,0,1,.51-.462c1.264.092,2.552.2,3.827.318a.493.493,0,0,1,.434.541.486.486,0,0,1-.476.454m-7.64-.554h-.024c-1.306-.067-2.59-.117-3.816-.149a.489.489,0,0,1-.466-.51.479.479,0,0,1,.49-.485c1.233.032,2.525.083,3.839.15a.5.5,0,0,1-.023,1" transform="translate(-171.817 -129.159)" fill="#1d8ed1"/><path d="M263.893,454.838a9.252,9.252,0,0,0-9.282,9.222,13.913,13.913,0,0,0,1.45,5.009,94.893,94.893,0,0,0,7.464,12.764.446.446,0,0,0,.736,0c1.723-2.517,8.914-13.29,8.914-17.773a9.252,9.252,0,0,0-9.282-9.222" transform="translate(-204.143 -364.682)" fill="#e64e0f"/><path d="M289.072,479.82a4.061,4.061,0,1,1-4.061-4.047,4.054,4.054,0,0,1,4.061,4.047" transform="translate(-225.261 -381.468)" fill="#141c39"/><path d="M725.241,352.183a12.222,12.222,0,0,0-12.262,12.182,18.381,18.381,0,0,0,1.916,6.616c2.9,6.509,8.229,14.48,9.86,16.861a.589.589,0,0,0,.972,0C728,384.519,737.5,370.288,737.5,364.365a12.222,12.222,0,0,0-12.262-12.182" transform="translate(-571.656 -282.375)" fill="#e64e0f"/><path d="M758.5,391.873a5.365,5.365,0,1,1-5.365-5.346,5.355,5.355,0,0,1,5.365,5.346" transform="translate(-599.554 -309.912)" fill="#0c1a2a"/><path d="M852.2,24.138A12.222,12.222,0,0,0,839.941,36.32a18.379,18.379,0,0,0,1.916,6.616c2.9,6.509,8.229,14.48,9.859,16.861a.589.589,0,0,0,.972,0c2.276-3.325,11.776-17.557,11.776-23.479A12.222,12.222,0,0,0,852.2,24.138" transform="translate(-673.452 -19.353)" fill="#e64e0f"/><path d="M885.466,63.827a5.365,5.365,0,1,1-5.365-5.346,5.355,5.355,0,0,1,5.365,5.346" transform="translate(-701.35 -46.889)" fill="#0c1a2a"/></g></g><g transform="translate(1189.257 2345.786)"><g clip-path="url(#b)"><path d="M302.2,639.682c-.674-.574-5.215-11.41-5.215-11.41l-6.645,5.66L299,643.695Z" transform="translate(-248.191 -503.739)" fill="#fff"/><path d="M302.2,639.682c-.674-.574-5.215-11.41-5.215-11.41l-6.645,5.66L299,643.695Z" transform="translate(-248.191 -503.739)" fill="none" stroke="#141c38" stroke-miterlimit="10" stroke-width="5"/><path d="M266.792,679.838l4.705-.433a9.3,9.3,0,0,0,7.348-4.875l4.021-7.77a4.155,4.155,0,0,0-2.065-5.732c-2.032-.865-4.154-1.7-4.627-1.61-.961.176-.958,4.791-.958,4.791l-4.18.522s-1.331,8.795-3.07,9.931a8.035,8.035,0,0,0-2.645,2.965,1.508,1.508,0,0,0,1.471,2.211" transform="translate(-224.328 -528.707)" fill="#133653"/><path d="M271.9,694.265a.518.518,0,0,0,.074-.012l6.356-1.524a5.387,5.387,0,0,0,3.6-2.887l4.872-10a.5.5,0,0,0-.9-.437l-4.872,10a4.394,4.394,0,0,1-2.935,2.355l-6.356,1.524a.5.5,0,0,0,.158.981" transform="translate(-229.073 -544.517)" fill="#e54e20"/><path d="M311.7,709.245a.5.5,0,0,0,.046-.987l-3.672-.668a.5.5,0,0,0-.179.98l3.672.669a.5.5,0,0,0,.132.006" transform="translate(-261.542 -567.329)" fill="#e54e20"/><path d="M319.11,720.512a.5.5,0,0,0,.033-.989l-2.456-.382a.5.5,0,1,0-.153.984l2.456.382a.5.5,0,0,0,.12,0" transform="translate(-270.664 -576.592)" fill="#e54e20"/><path d="M425.13,671.525l-7.509,8.965-4.495-1.225,6.668-11.217Z" transform="translate(-395.458 -535.631)" fill="#fff"/><path d="M425.13,671.525l-7.509,8.965-4.495-1.225,6.668-11.217Z" transform="translate(-395.458 -535.631)" fill="none" stroke="#141c38" stroke-miterlimit="10" stroke-width="5"/><path d="M460.125,713.953a23.735,23.735,0,0,1,.292,6.642,3.626,3.626,0,0,1-3.3,3.123l-20.171,1.735a1.548,1.548,0,0,1-1.225-2.64c3.328-3.313,9.531-8.469,17.527-10.514l2.535,2.972Z" transform="translate(-435.26 -571.11)" fill="#133653"/><path d="M443.245,755.46l20.9-1.8a.5.5,0,0,0-.085-.993l-20.9,1.8a.5.5,0,0,0,.085.993" transform="translate(-440.797 -603.478)" fill="#e54e20"/><path d="M492.812,728.464a.493.493,0,0,0,.186-.054.5.5,0,0,0,.214-.671l-1.338-2.589a.5.5,0,1,0-.885.457l1.338,2.589a.5.5,0,0,0,.485.268" transform="translate(-479.018 -581.199)" fill="#e54e20"/><path d="M510.531,734.561a.5.5,0,0,0,.415-.693l-1.009-2.353a.5.5,0,0,0-.915.393l1.009,2.352a.5.5,0,0,0,.5.3" transform="translate(-500.314 -586.276)" fill="#e54e20"/><path d="M243.818,375.036s-37.939-1.142-48.276,9.488,22.04,49.73,22.04,49.73l8.527-7.538-11.167-28.644,33.874-12.848Z" transform="translate(-175.612 -300.669)" fill="#e3edf4"/><path d="M143.23,373.3c-5.307,2.2-14.877,5.279-28.539,6.267a10.221,10.221,0,0,0-8.741,6.336c-3.36,8.274-10.88,23.3-24.334,33.773L74.495,416.6,88.5,376a14.483,14.483,0,0,1,7.558-8.4l33.34-15.584s10.418-3.9,16.471,5.177c1.081,1.621,2.555-1.57,3.086-.233,1.822,4.586-1.169,14.446-5.727,16.336" transform="translate(-52.705 -281.578)" fill="#e3edf4"/><path d="M261.573,429.051a.5.5,0,0,0,.429-.334l6.329-18.345a14.061,14.061,0,0,1,7.3-8.108L291.6,394.8a.5.5,0,0,0-.422-.9l-15.966,7.463a15.061,15.061,0,0,0-7.818,8.685l-6.33,18.345a.5.5,0,0,0,.513.659" transform="translate(-232.063 -315.784)" fill="#0c1a2a"/><path d="M338.406,617.332a.5.5,0,0,0,.345-.183c1.442-1.783,2.848-3.685,4.178-5.654a.5.5,0,0,0-.825-.558c-1.315,1.945-2.7,3.825-4.127,5.585a.5.5,0,0,0,.43.81" transform="translate(-298.425 -489.664)" fill="#0c1a2a"/><path d="M328.743,599.737a.5.5,0,0,0,.37-.218c.654-.967,1.3-1.968,1.926-2.977a.5.5,0,1,0-.847-.524c-.618,1-1.259,1.988-1.9,2.944a.5.5,0,0,0,.455.775" transform="translate(-284.609 -477.689)" fill="#0c1a2a"/><path d="M245.605,224.093s-.724,30.283-22.74,34.154l25.52-1.83s7.793-19.936,7.536-27.415-10.316-4.909-10.316-4.909" transform="translate(-188.543 -179.333)" fill="#fff"/><path d="M87.252,114.54c-4.391-.642-6.187-.5-21.782,1.411-3.812.467-7.947,5.657-8.07,9.5,1.529,3.54,8.685,21.052.1,35.953a30.523,30.523,0,0,1-5.331,6.785,19.758,19.758,0,0,0,7.072,3.033c5.176,1.065,7.575-.774,11.653-1,10.787-.6,15.763,11.039,22.583,8.937,1.821-.561,4.156-2.22,6.044-7.274a75.051,75.051,0,0,0,1.905-14.364,77.6,77.6,0,0,0-6.617-33.792c-.968-2.324-2.384-8.426-7.56-9.182" transform="translate(-0.255 -91.56)" fill="#1d8ed1"/><path d="M248.763,172.331c1.987-9.291,8.911-39.636,14.954-41.632-2.257,6.661-1.744,16.925-.48,27.138l-.915,10-3.081,7.671a2.975,2.975,0,0,1-3.62,1.74l-4.807-1.449a2.974,2.974,0,0,1-2.051-3.47" transform="translate(-201.453 -104.793)" fill="#1d8ed1"/><path d="M212.718,390.73l48.847-4.2a2.949,2.949,0,0,0,2.685-3.191l-54.723,4.707a2.949,2.949,0,0,0,3.191,2.685" transform="translate(-194.234 -307.355)" fill="#0c1a2a"/><path d="M210.315,389.238l49.456-4.254a3.145,3.145,0,0,0,2.861-3.4l-.026-.3a.5.5,0,0,0-.539-.454l-54.723,4.707a.5.5,0,0,0-.454.539l.026.3a3.145,3.145,0,0,0,3.4,2.861m51.332-7.375a2.148,2.148,0,0,1-1.962,2.129l-49.456,4.254a2.148,2.148,0,0,1-2.3-1.763Z" transform="translate(-192.093 -305.34)" fill="#fff"/><path d="M339.719,276.413l31.313-2.693L358.565,245.29a3.284,3.284,0,0,0-2.874-1.235l-26.47,2.277a1.649,1.649,0,0,0-1.393,2.33c.191.4.394.786.566,1.19Z" transform="translate(-324.422 -195.67)" fill="#0c1a2a"/><path d="M337.746,274.892l31.313-2.693a.5.5,0,0,0,.413-.7L357,243.073a.5.5,0,0,0-.063-.106,3.764,3.764,0,0,0-3.31-1.426l-26.47,2.277a2.167,2.167,0,0,0-1.724,1.093,2.1,2.1,0,0,0-.075,1.951q.083.171.167.342c.14.283.272.551.389.827l11.326,26.561a.5.5,0,0,0,.5.3m30.535-3.626-30.261,2.6-11.184-26.23c-.128-.3-.273-.594-.412-.877l-.164-.334a1.088,1.088,0,0,1,.044-1.025,1.182,1.182,0,0,1,.944-.593l26.47-2.277a2.773,2.773,0,0,1,2.4,1Z" transform="translate(-322.406 -193.653)" fill="#fff"/><path d="M441.034,314.5a2.064,2.064,0,1,1-2.767-1.428,2.214,2.214,0,0,1,2.767,1.428" transform="translate(-416.294 -250.917)" fill="#e54e20"/><path d="M224.664,204.867l0,.009a.1.1,0,0,0,.2,0c.26-.945.491-1.9.739-2.838.52-1.947,1.026-3.89,1.5-5.846q.718-3.011,1.33-6.049c.187-.918.191-2.43.981-3.024a15.656,15.656,0,0,0,2.3-1.775.348.348,0,0,0-.416-.546,11.454,11.454,0,0,0-2.573,1.709,3.546,3.546,0,0,0-.946,2.32c-.4,2.081-.839,4.149-1.309,6.217-.48,2.119-.836,4.271-1.4,6.368-.165.607-.315,1.457-.47,2.182a2.422,2.422,0,0,0,.071,1.277" transform="translate(-164.756 -148.139)" fill="#005ea9"/><path d="M142.994,28.808a15.369,15.369,0,0,1-2.2,4.215c-.879,1.339-1.743,2.712-2.732,3.976a7.324,7.324,0,0,1-3.435,2.5,14.233,14.233,0,0,1-2.176.578,1.455,1.455,0,0,1-1.56-.8,9.448,9.448,0,0,1-1.48-3.8c-1.879-.16-4.017-.51-5.208-2.119a4.981,4.981,0,0,1-.833-2.827,17.246,17.246,0,0,1,.308-3.565c.114-.647.27-1.286.441-1.921a3.294,3.294,0,0,1,.506-1.282,2.6,2.6,0,0,1,1.282-.643,1.937,1.937,0,0,0,.864-.719c.521-.715.772-1.6,1.24-2.347a6.289,6.289,0,0,1,2.073-2.028,8.3,8.3,0,0,1,1.6-.749,4.109,4.109,0,0,1,3.184-.894c.936.076,1.853.278,2.788.327a7.075,7.075,0,0,1,2.054.3c1.419.517,1.533,1.933,2.188,3.1.346.624.753,1.21,1.054,1.856a5.418,5.418,0,0,1,.457,2.119,16.715,16.715,0,0,1-.418,4.729" transform="translate(-56.318 -13.121)" fill="#fff"/><path d="M115.662,20.7c-1.681,1.936-4.128,1.978-6.49,1.777-.156.445-.312.886-.468,1.332a.357.357,0,0,1-.388.194,3.444,3.444,0,0,0-1.434.08.349.349,0,0,1-.453-.308,18,18,0,0,0-1.042-4.892c-.152-.411.495-.628.647-.217.038.1.065.205.1.3a1.567,1.567,0,0,0,1.038.2.322.322,0,0,1,.206-.415c.555-.148,1.107-.27,1.67-.384a2.485,2.485,0,0,0,1.115-1.716,2.271,2.271,0,0,0,.019-.228.361.361,0,0,1-.24-.27,4.783,4.783,0,0,0-.654-1.735,4.687,4.687,0,0,1-1.157-.555,4.292,4.292,0,0,0-1.955-.152c-.19.03-.323-.148-.354-.312a3,3,0,0,1,1.529-3.1,3.554,3.554,0,0,1-.342-3.815,1.722,1.722,0,0,1-.83-1.853,5.642,5.642,0,0,1-1.841-.814c-.616-.358-1.617-.8-2.2-.164a.316.316,0,0,1-.282.1,1.8,1.8,0,0,0-.1.342c-.061.339-.548.228-.513-.1a2.1,2.1,0,0,1,1.917-1.841,1.915,1.915,0,0,1,1.522-2.1c1.332-.3,2.515.521,3.47,1.347,1.168,1,2.309,2.035,3.458,3.059,1.061.947,2.165,1.864,3.158,2.884a9.96,9.96,0,0,1,2.876,6.741,9.688,9.688,0,0,1-1.978,6.608" transform="translate(-26.156 0)" fill="#141c39"/><path d="M176.428,16.855a6.668,6.668,0,0,0-5.539.929A7.351,7.351,0,0,0,168.8,19.8c-.52.761-.808,1.634-1.263,2.429a2.644,2.644,0,0,1-.813.949c-.411.264-.918.177-1.331.421a1.521,1.521,0,0,0-.6,1.2c-.114.674-.226,1.348-.345,2.02-.35,1.972-.8,4.222.066,6.128,1.028,2.274,3.489,2.719,5.729,2.924.438.04.574-.637.132-.677-1.853-.167-4.043-.41-5.073-2.19-.943-1.632-.6-3.747-.291-5.506.1-.581.2-1.162.311-1.742.088-.47.068-1.443.614-1.577a4.145,4.145,0,0,0,1.125-.295,2.718,2.718,0,0,0,.838-.759A13.85,13.85,0,0,0,169.044,21a6.409,6.409,0,0,1,1.65-2.062,7.82,7.82,0,0,1,5.645-1.625.232.232,0,0,0,.089-.455" transform="translate(-97.557 -13.304)" fill="#141c39"/><path d="M194.179,46.164a.287.287,0,0,0-.125-.211.26.26,0,0,0-.237-.033,1.41,1.41,0,0,0-.841,1.16.328.328,0,0,0,.027.181.276.276,0,0,0,.131.133.3.3,0,0,0,.344-.072l.194-.228a.9.9,0,0,0,.508-.931" transform="translate(-120.883 -36.805)" fill="#141c39"/><path d="M187.96,46.314c-.019-.052-.047-.1-.071-.153a3.922,3.922,0,0,0-.2-.369,1.762,1.762,0,0,0-.522-.557,1.014,1.014,0,0,0-1.342.124.212.212,0,0,0,.278.313.988.988,0,0,1,.189-.071,1.172,1.172,0,0,1,.31.018,1.525,1.525,0,0,1,.2.091,1.379,1.379,0,0,1,.167.135,1.994,1.994,0,0,1,.245.336c.023.04.045.082.067.123a1.043,1.043,0,0,0,.273.434.261.261,0,0,0,.422-.147.583.583,0,0,0-.02-.275" transform="translate(-113.253 -36.114)" fill="#141c39"/><path d="M176.333,35.226c-.026-.08-.055-.158-.088-.235a3.265,3.265,0,0,0-.273-.518,3.548,3.548,0,0,0-1.766-1.381,2.591,2.591,0,0,0-.558-.143c-.1-.011-.2-.016-.3-.018a.612.612,0,0,0-.307.087c-.15.075-.094.289.025.355a1.819,1.819,0,0,0,.493.141,3.358,3.358,0,0,1,.452.127,2.972,2.972,0,0,1,.819.475,2.934,2.934,0,0,1,.626.7,2.71,2.71,0,0,1,.216.406q.045.106.08.216a.652.652,0,0,0,.186.269c.137.143.354.021.4-.139a.526.526,0,0,0,0-.347" transform="translate(-99.087 -26.404)" fill="#141c39"/><path d="M211.229,69.4a1.088,1.088,0,0,0-.375.105l-.355.131c-.228.085-.455.172-.682.259l-1.39.528c-.3.115-.146.589.161.479l1.4-.5c.229-.082.458-.163.687-.247l.355-.131a1.125,1.125,0,0,0,.359-.162.255.255,0,0,0-.157-.462" transform="translate(-141.211 -55.646)" fill="#141c39"/><path d="M144.442,70.083a2.854,2.854,0,0,0-2.3-1.741,3.39,3.39,0,0,0-1.711.217c-.484.2-1.09.614-.9,1.22.065.21.427.264.506.032.241-.712,1.245-.865,1.9-.795a2.218,2.218,0,0,1,1.784,1.152,1.945,1.945,0,0,1-.077,1.985,3.055,3.055,0,0,1-2.017,1.106,2.367,2.367,0,0,1-1.481-.162,1.475,1.475,0,0,1-.726-.913.328.328,0,0,0-.636.125,2.206,2.206,0,0,0,2.359,1.683,4.011,4.011,0,0,0,2.892-1.218,2.593,2.593,0,0,0,.41-2.692" transform="translate(-60.594 -54.773)" fill="#141c39"/><path d="M150.519,78.486l-1.646.075c-.27.012-.539.023-.808.042l-.4.029c-.061,0-.125,0-.186.013a.262.262,0,0,0-.131.045q-.091.07-.039.039a.2.2,0,0,0,.025.378c-.032.008-.017.022.047.042a.2.2,0,0,0,.1.023,1.71,1.71,0,0,0,.221,0l.374,0c.28,0,.56-.013.84-.023l1.648-.058a.3.3,0,0,0-.039-.605" transform="translate(-68.445 -62.929)" fill="#141c39"/><path d="M156.188,79.283a.264.264,0,0,0-.324.136c-.076.225-.151.45-.219.677l-.093.307-.05.165a.317.317,0,0,0,0,.229.238.238,0,0,0,.413.145.308.308,0,0,0,.109-.122.97.97,0,0,0,.037-.117l.048-.166.088-.308c.061-.213.117-.427.172-.642a.266.266,0,0,0-.179-.3" transform="translate(-75.633 -63.558)" fill="#141c39"/><path d="M264.584,327.071c.2.015.4.024.6.03.126-.2.246-.41.361-.615a26.213,26.213,0,0,0,1.954-4.153c.316-.864.6-1.744.823-2.632a8.918,8.918,0,0,0,.471-2.482c-.013-.26-.383-.257-.469-.053a7.709,7.709,0,0,0-.325,1.29c-.1.413-.209.821-.324,1.226-.231.811-.5,1.615-.8,2.4a29.95,29.95,0,0,1-2.073,4.369c-.065.1-.125.208-.185.309a.344.344,0,0,0-.03.309" transform="translate(-209.675 -254.18)" fill="#005ea9"/><path d="M1.978,392.513c-.2-1.065-.3-2.15-.447-3.223-.052-.4-.262-1.006.042-1.329a1.288,1.288,0,0,1,.532-.267c.219-.081.439-.16.659-.239a8.622,8.622,0,0,1,2.8-.587,6.5,6.5,0,0,1,.754.062.7.7,0,0,0,.507-.163,1.288,1.288,0,0,1,1.138-.329.444.444,0,0,1,.312.389.357.357,0,0,1,.2.46,4,4,0,0,0-.163,1.225c-.017.35-.027.7-.026,1.054,0,.591.028,1.179.077,1.769.191.062.38.134.566.214.892.268,1.793.5,2.7.7a.231.231,0,0,1,.119.063c.751.051,1.511.076,2.263.194a6.266,6.266,0,0,1,1.278.324,2.461,2.461,0,0,1,1.135.727,2.212,2.212,0,0,1,.266,1.476,4.216,4.216,0,0,1-.271,1.429.243.243,0,0,1-.066.094,5.342,5.342,0,0,1-.04,1.254c-.04.268-.089.567-.356.681a.527.527,0,0,1-.345.015c-.051-.013-.128-.056-.2-.073-.005.059-.012.121-.02.182a.681.681,0,0,1-.326.869.833.833,0,0,1-.707.175.716.716,0,0,1-.407-.207.112.112,0,0,1-.014-.021c-.063-.027-.124-.059-.184-.092a.9.9,0,0,1-.053.259.248.248,0,0,1,.063.152.673.673,0,0,1-1.076.5,1.96,1.96,0,0,1-.594-.712c-.2-.351-.388-.707-.579-1.059a12.534,12.534,0,0,0-1.292-2.028l-.726-.564a.259.259,0,0,1-.181,0q-.46-.167-.923-.319a3.062,3.062,0,0,1-.925-.145.336.336,0,0,1-.217-.2L7.2,395.2a.236.236,0,0,1-.16.049,8.987,8.987,0,0,1-2.481-.5c-.244-.077-.487-.156-.728-.246a.329.329,0,0,1-.128.052c-1.1.157-1.559-1.135-1.726-2.034" transform="translate(94.575 -309.807)" fill="#fff"/><path d="M15.285,403.75c-.112-.63-.167-1.272-.252-1.907-.076-.558-.156-1.118-.24-1.674.125-.022.249-.049.375-.077q.135.872.251,1.746c.084.616.133,1.24.245,1.851a2,2,0,0,0,.692,1.333,5.312,5.312,0,0,0,1.61.617,14.016,14.016,0,0,0,1.608.355,10.464,10.464,0,0,1,3.08.673,5.5,5.5,0,0,1,2.045,1.9,10.474,10.474,0,0,1,.743,1.293c.225.461.445,1.084.961,1.258s.75-.29.729-.754a3.784,3.784,0,0,0-.357-1.257,7.158,7.158,0,0,0-3.753-4.159c-.169-.067-.118-.342.064-.293,2.129.593,3.589,2.817,4.282,4.9.23.691.3,1.855-.6,2-1.122.184-1.558-1.342-2-2.126a5.794,5.794,0,0,0-2.182-2.349,11.576,11.576,0,0,0-3.458-.754,14.285,14.285,0,0,1-1.795-.459,3.344,3.344,0,0,1-1.448-.731,2.673,2.673,0,0,1-.6-1.388" transform="translate(81.108 -320.789)" fill="#141c39"/><path d="M6.866,419.725c.685.4,1.454.636,2.143,1.038a3.487,3.487,0,0,1,1.481,1.635,16.936,16.936,0,0,1,.791,2.3,1.383,1.383,0,0,1,0,1.139c-.287.422-.841.192-1.03-.171-.126-.241-.4.037-.285.278a1.1,1.1,0,0,0,.911.545.881.881,0,0,0,.862-.584,2.007,2.007,0,0,0-.036-1.327c-.15-.531-.321-1.058-.5-1.578a4.5,4.5,0,0,0-1.518-2.3,6.8,6.8,0,0,0-1.272-.653,14.461,14.461,0,0,0-1.443-.6c-.159-.049-.239.194-.1.277" transform="translate(98.378 -336.302)" fill="#141c39"/><path d="M1.758,418.5a6.569,6.569,0,0,1,2.123.469,3.31,3.31,0,0,1,1.705,1.042A4,4,0,0,1,6,421.07a7.88,7.88,0,0,1,.244,1c.071.441.157,2.043-.621,1.8-.212-.067-.329.268-.133.375.82.451,1.183-.751,1.218-1.366a6.463,6.463,0,0,0-.55-2.664,2.763,2.763,0,0,0-1.783-1.5,5.4,5.4,0,0,0-2.676-.564c-.2.031-.128.341.054.349" transform="translate(104.526 -335.244)" fill="#141c39"/><path d="M.016,409.158c-.008-.171-.01-.342-.014-.514,0-.036,0-.072,0-.107.108.058.218.111.329.164a12.53,12.53,0,0,0,2.738.9c1.287.281,2.628.278,3.9.654a2.178,2.178,0,0,1,1.675,1.452,5.4,5.4,0,0,1-.2,2.66.218.218,0,0,1-.423-.11,5.992,5.992,0,0,0,.246-2.133,1.42,1.42,0,0,0-.414-.922,2.413,2.413,0,0,0-.811-.451,9.426,9.426,0,0,0-1.927-.406c-1.071-.157-2.137-.366-3.2-.583a8.264,8.264,0,0,1-1.62-.473c-.1-.039-.191-.084-.283-.131" transform="translate(102.82 -327.559)" fill="#141c39"/><path d="M42.052,396.622c0-.007,0-.017,0-.024-.008-.172-.01-.342-.014-.514,0-.036,0-.072,0-.108-.029-1.006-.04-2.011-.051-3.016.153-.028.311-.055.468-.089q-.007,1.635-.088,3.269c0,.039,0,.075,0,.114-.007.158-.016.316-.025.474,0,.005,0,.012,0,.017-.095-.037-.19-.079-.282-.124" transform="translate(60.785 -314.999)" fill="#141c39"/><path d="M53.472,177.994a2.824,2.824,0,0,0,3.08-2.829c-.058-9.853-.333-39.956-1.536-43.768-1.79-5.67-7.085-8.462-11.124-9.8a2.824,2.824,0,0,0-3.651,3.3c2.822,12.343,5.295,41.126,7.463,50.621a2.819,2.819,0,0,0,2.5,2.175Z" transform="translate(47.046 -97.378)" fill="#1d8ed1"/><path d="M78.028,361.738c-.2-.016-.4-.038-.593-.062-.093-.22-.18-.443-.263-.664a26.215,26.215,0,0,1-1.294-4.4c-.18-.9-.32-1.814-.41-2.727a8.917,8.917,0,0,1-.085-2.524c.053-.255.418-.195.472.02a7.69,7.69,0,0,1,.123,1.324c.039.424.08.843.132,1.261.1.837.243,1.672.422,2.5a29.964,29.964,0,0,0,1.377,4.635c.049.111.091.225.136.334a.344.344,0,0,1-.018.309" transform="translate(18.556 -281.578)" fill="#005ea9"/><path d="M97.426,209.032l-.134.231a.171.171,0,0,1-.318-.073c-.07-.906-.116-1.816-.181-2.709-.149-2.009-.284-4.013-.381-6.023-.1-2.061-.162-4.123-.181-6.191-.013-.937.265-2.423-.4-3.153a15.675,15.675,0,0,1-1.926-2.171.348.348,0,0,1,.51-.459,11.452,11.452,0,0,1,2.21,2.158,3.543,3.543,0,0,1,.5,2.456c.007,2.12.052,4.233.129,6.352.077,2.171.181,4.336.343,6.5.046.589.092,1.174.136,1.761a2.292,2.292,0,0,1-.3,1.32" transform="translate(-4.778 -151.07)" fill="#005ea9"/></g></g></g></svg>