<?xml version="1.0" encoding="utf-8"?>
<!-- Generator: Adobe Illustrator 26.5.0, SVG Export Plug-In . SVG Version: 6.00 Build 0)  -->
<svg version="1.1" id="Calque_1" xmlns="http://www.w3.org/2000/svg" xmlns:xlink="http://www.w3.org/1999/xlink" x="0px" y="0px"
	 viewBox="0 0 406.7 127.6" style="enable-background:new 0 0 406.7 127.6;" xml:space="preserve">
<style type="text/css">
	.st0{fill:#333333;}
	.st1{fill:#FE5101;}
</style>
<g>
	<path class="st0" d="M62.1,9.5c-0.4,0-0.8,0-1.1,0.1c-3,0.4-4.9,2.4-5.5,4.1L35.5,82.6L15.3,13.7c-0.6-1.8-2.3-3.9-5.8-4.1
		C9.3,9.5,9,9.5,8.8,9.5c-3.2,0-6.5,1.2-6.5,4.2v81.7c0,2.8,3.3,4.3,6.5,4.3s6.5-1.5,6.5-4.3v-38l11.9,38.7c1,3,4.6,4.4,8.3,4.4
		s7.4-1.5,8.3-4.4l11.8-38.7v38c0,2.8,3.3,4.3,6.5,4.3s6.5-1.5,6.5-4.3V13.7C68.7,10.8,65.4,9.5,62.1,9.5L62.1,9.5z"/>
	<path class="st0" d="M91.4,19.8c0,3.6-3.3,6.8-7.5,6.8s-7.5-3.2-7.5-6.8s3.3-6.8,7.5-6.8S91.4,16.1,91.4,19.8z M90.4,45.4v50
		c0,2.1-2.8,4.3-6.5,4.3s-6.4-2.2-6.4-4.3v-50c0-2.5,2.7-4.2,6.4-4.2S90.4,43,90.4,45.4z"/>
	<path class="st0" d="M127.8,84.1c0-13-29.8-5.3-29.8-25.8c0-8.5,5.6-17.8,21.1-17.8c9.3,0,18.5,3.3,18.5,7.3c0,1.8-1.9,6.3-4.9,6.3
		c-2.6,0-6.4-3.6-13.3-3.6c-7.3,0-10,4.1-10,7.2c0,10.9,30,3.7,30,25.9c0,10.5-7.8,17.2-21.7,17.2c-12.2,0-21.2-5.2-21.2-9.9
		c0-2.2,1.9-5.8,4.4-5.8c3.2,0,5.8,5.7,16.4,5.7C125.4,90.8,127.8,87.4,127.8,84.1L127.8,84.1z"/>
	<path class="st0" d="M171.4,88.7h-4.3c-6.4,0-8.6-2.2-8.6-8.2V52h13.7c2.6,0,4.9-2.6,4.9-5.8s-2.4-5.7-4.9-5.7h-13.7v-27
		c0-2.5-3.3-4.2-6.5-4.2s-6.4,1.7-6.4,4.2v67c0,13.5,7.5,19.3,21.6,19.3h4.3c3.7,0,5.6-2.7,5.6-5.6S175.2,88.7,171.4,88.7
		L171.4,88.7z"/>
	<path class="st0" d="M229.3,63.3c0,10.2-5.7,11.7-11.2,11.7h-26v1.8c0,8.3,6.5,13.5,16,13.5c8.8,0,11.7-4.7,15.1-4.7
		c3.1,0,5.1,3.6,5.1,5.8c0,3.7-8,9.4-20.5,9.4c-16.8,0-28.6-9.9-28.6-24.6V64.5c0-13,11.5-24,25.7-24
		C218,40.5,229.3,49.9,229.3,63.3L229.3,63.3z M212.5,64.9c3.6,0,4.6,0.3,4.6-2.7c0-6.5-5.4-11.8-12.5-11.8s-12.6,4.8-12.6,11.6v2.9
		L212.5,64.9L212.5,64.9z"/>
	<path class="st0" d="M264.6,52c-7.5,0-14.9,6.9-14.9,18.1v25.3c0,2.1-3,4.3-6.7,4.3s-6.3-2.2-6.3-4.3v-50c0-2.5,2.6-4.2,6.3-4.2
		c3.2,0,5.9,1.7,5.9,4.2v5.4c2.6-5.2,8.4-10.4,15.7-10.4h4c2.6,0,4.9,2.6,4.9,5.7s-2.4,5.8-4.9,5.8L264.6,52L264.6,52z"/>
	<path class="st1" d="M323.4,9.5h-38.2c-2.8,0-5.8,1.5-5.8,4.3v81.6c0,3,3.3,4.3,6.5,4.3s6.5-1.4,6.5-4.3V52h24.4
		c2.6,0,4.9-2.6,4.9-5.8s-2.3-5.7-4.9-5.7l-24.4,0V21.1h30.9c2.7,0,4.2-2.7,4.2-5.9C327.6,12.5,326.4,9.5,323.4,9.5L323.4,9.5z"/>
	<path class="st1" d="M345.9,13.7v81.7c0,2.1-3,4.3-6.5,4.3c-3.8,0-6.4-2.2-6.4-4.3V13.7c0-2.5,2.6-4.2,6.4-4.2
		C343,9.5,345.9,11.2,345.9,13.7z"/>
	<path class="st1" d="M353.5,48.3c-0.4-0.5-0.5-1-0.5-1.7c0-3.3,5.1-6.2,8.5-6.2c1.7,0,3.3,0.7,4,2.3L381,82.8l13.3-40.1
		c0.7-1.6,2.2-2.3,3.7-2.3c3.1,0,8.6,2.7,8.6,6.4c0,0.5,0,1.1-0.2,1.5l-18.3,48.3c-5.6,14.6-11.6,31-29.1,31c-3.3,0-6-0.9-6-5.6
		c0-3,1-5.6,3.6-5.6c6.3,0,15.9-6.3,17.7-20.2L353.5,48.3L353.5,48.3z"/>
</g>
</svg>
