<svg xmlns="http://www.w3.org/2000/svg" width="101.275" height="101.275" viewBox="0 0 101.275 101.275"><g transform="translate(-7283 -865)"><path d="M101.275,50.637A50.637,50.637,0,1,1,50.637,0a50.638,50.638,0,0,1,50.638,50.637" transform="translate(7283 865)" fill="#0c1a2a"/><path d="M16.69,44.467V35.275c0-2.734-.668-7.149,3.26-7.366,4.32-.238,8.719,0,13.043,0,13.169,0,26.38-.321,39.546,0,1.626.039,3.3.376,3.863,2.125a11.779,11.779,0,0,1,.189,3.562V44.162a.953.953,0,0,0,1.905,0v-9.9c0-3.492.109-7.272-4.252-8.089A23.232,23.232,0,0,0,69.968,26H35.124c-5.033,0-10.105-.182-15.136,0-4.192.151-5.2,3.683-5.2,7.171V44.467a.953.953,0,0,0,1.905,0" transform="translate(7286.997 872.007)" fill="#fff"/><path d="M22.031,41.566c0-1.756-.227-4.062,1.582-5.1,1.087-.622,2.523-.429,3.725-.429h6.4a19.242,19.242,0,0,1,3.476.113,3,3,0,0,1,2.776,2.792,23.078,23.078,0,0,1,.013,2.316.953.953,0,0,0,1.905,0c0-2.2.1-4.732-1.992-6.123-1.507-1-3.369-1-5.105-1H27.747c-1.58,0-3.276-.179-4.748.511-2.768,1.3-2.872,4.3-2.872,6.919a.953.953,0,0,0,1.905,0" transform="translate(7288.44 874.221)" fill="#fff"/><path d="M44.176,41.566c0-1.756-.227-4.062,1.582-5.1,1.087-.622,2.523-.429,3.725-.429h6.4a19.242,19.242,0,0,1,3.476.113,3,3,0,0,1,2.776,2.792,23.077,23.077,0,0,1,.013,2.316.953.953,0,0,0,1.905,0c0-2.2.1-4.732-1.992-6.123-1.507-1-3.369-1-5.105-1H49.892c-1.58,0-3.276-.179-4.748.511-2.768,1.3-2.872,4.3-2.872,6.919a.953.953,0,0,0,1.905,0" transform="translate(7294.426 874.221)" fill="#fff"/><path d="M83.855,62.364V50.934c0-3.176,1-8.769-2.581-10.46-1.869-.882-4.056-.682-6.064-.682H33.94c-5.8,0-11.656-.224-17.455,0a5.174,5.174,0,0,0-5.067,4.518,19.8,19.8,0,0,0-.1,3.515V62.669a.966.966,0,0,0,.953.953l23.924-.1,37.954-.164,8.756-.038a.953.953,0,0,0,0-1.905l-23.922.1-37.955.164-8.756.038.953.953V45.9c0-1.918.685-3.943,2.91-4.191a39.285,39.285,0,0,1,4.29-.014H60.539c5.823,0,11.679-.184,17.5,0,2.059.065,3.74.882,3.911,3.14.127,1.668,0,3.392,0,5.063V62.364a.953.953,0,0,0,1.905,0" transform="translate(7286.051 875.729)" fill="#fff"/><path d="M12.387,49.009H82.568a.953.953,0,0,0,0-1.905H12.387a.953.953,0,0,0,0,1.905" transform="translate(7286.099 877.732)" fill="#fff"/><path d="M45.532,16.862c.689-.067,1.378-.127,2.066-.2a11.941,11.941,0,0,0,2.974-.6A3.413,3.413,0,0,0,52.081,15a3.007,3.007,0,0,0,.452-.974,11.125,11.125,0,0,0,.4-1.93c.112-.851.213-1.7.32-2.553a4.076,4.076,0,0,1,.074-.469c.025.217.052.434.077.652.089.753.174,1.507.267,2.259a11.293,11.293,0,0,0,.384,1.946c.075.24.174.473.267.706a2.245,2.245,0,0,0,1.222,1.212,7.1,7.1,0,0,0,1.881.531c.641.1,1.287.185,1.931.269.522.067,1.045.122,1.568.184a.767.767,0,0,1,.194.044c-.357.042-.715.081-1.072.126-.769.1-1.54.174-2.3.293-.522.08-1.038.206-1.551.333a2.753,2.753,0,0,0-1.767,1.46,5.634,5.634,0,0,0-.591,1.822c-.136.824-.241,1.655-.354,2.483-.058.422-.1.846-.173,1.27-.033-.347-.064-.692-.1-1.038a19.548,19.548,0,0,0-.551-3.567,6.179,6.179,0,0,0-.325-.843,2.818,2.818,0,0,0-1.486-1.367,7.218,7.218,0,0,0-1.98-.541c-.95-.144-1.9-.253-2.858-.376-.159-.02-.32-.036-.48-.053l.006-.02" transform="translate(7295.306 867.454)" fill="#e64e20"/><path d="M22.341,69.47c.689-.067,1.378-.127,2.066-.2a11.941,11.941,0,0,0,2.974-.6,3.413,3.413,0,0,0,1.509-1.058,3.007,3.007,0,0,0,.452-.974,11.125,11.125,0,0,0,.4-1.93c.112-.851.213-1.7.32-2.553a4.075,4.075,0,0,1,.074-.469c.025.217.052.434.077.652.089.753.174,1.507.267,2.259a11.3,11.3,0,0,0,.384,1.946c.075.24.174.473.267.706a2.245,2.245,0,0,0,1.222,1.212,7.1,7.1,0,0,0,1.881.531c.642.1,1.287.185,1.931.269.522.067,1.045.122,1.568.184a.767.767,0,0,1,.194.044c-.357.042-.715.081-1.072.126-.769.1-1.54.174-2.3.293-.522.08-1.038.206-1.551.333a2.753,2.753,0,0,0-1.767,1.46,5.634,5.634,0,0,0-.591,1.822c-.136.824-.241,1.655-.354,2.483-.058.422-.1.846-.173,1.27-.033-.347-.064-.692-.1-1.038a19.549,19.549,0,0,0-.551-3.567,6.18,6.18,0,0,0-.325-.843,2.818,2.818,0,0,0-1.486-1.367,7.218,7.218,0,0,0-1.98-.541c-.95-.144-1.9-.253-2.858-.376-.159-.02-.32-.036-.48-.053Z" transform="translate(7289.037 881.674)" fill="#e64e20"/><path d="M22.191,16.127c.29-.028.579-.053.869-.085a5.009,5.009,0,0,0,1.25-.252,1.44,1.44,0,0,0,.634-.445,1.248,1.248,0,0,0,.191-.41,4.638,4.638,0,0,0,.168-.81c.047-.358.09-.715.135-1.073a1.512,1.512,0,0,1,.032-.2c.01.091.022.182.032.273.038.316.074.634.113.95a4.731,4.731,0,0,0,.161.818c.03.1.072.2.112.3a.947.947,0,0,0,.513.509,3.075,3.075,0,0,0,.791.224c.269.043.541.077.812.113.22.028.44.051.659.076a.377.377,0,0,1,.081.019c-.15.018-.3.034-.451.053-.323.039-.647.074-.968.123-.22.034-.437.086-.653.14a1.162,1.162,0,0,0-.743.614,2.365,2.365,0,0,0-.248.766c-.057.347-.1.7-.149,1.044-.025.178-.043.356-.074.534-.013-.145-.027-.291-.041-.436a8.177,8.177,0,0,0-.231-1.5,2.569,2.569,0,0,0-.137-.356,1.186,1.186,0,0,0-.625-.574,3.02,3.02,0,0,0-.832-.227c-.4-.061-.8-.107-1.2-.159l-.2-.022,0-.009" transform="translate(7288.997 868.475)" fill="#e64e20"/><path d="M49.851,64.958c.29-.028.579-.053.869-.085a5.01,5.01,0,0,0,1.25-.252,1.44,1.44,0,0,0,.634-.445,1.248,1.248,0,0,0,.191-.41,4.637,4.637,0,0,0,.168-.81c.047-.358.09-.715.135-1.073a1.513,1.513,0,0,1,.032-.2c.01.091.022.182.032.273.038.318.074.634.113.95a4.731,4.731,0,0,0,.161.818c.03.1.072.2.112.3a.947.947,0,0,0,.513.509,3.075,3.075,0,0,0,.791.224c.269.043.541.077.812.113.22.028.44.051.659.076a.377.377,0,0,1,.081.019c-.15.018-.3.034-.451.053-.323.039-.647.074-.968.123-.22.034-.437.086-.653.14a1.162,1.162,0,0,0-.743.614,2.366,2.366,0,0,0-.248.766c-.057.347-.1.7-.149,1.044-.025.178-.043.356-.074.534-.013-.145-.027-.291-.041-.436a8.177,8.177,0,0,0-.231-1.5,2.569,2.569,0,0,0-.137-.356,1.186,1.186,0,0,0-.625-.574,3.019,3.019,0,0,0-.832-.227c-.4-.061-.8-.107-1.2-.159l-.2-.022Z" transform="translate(7296.474 881.674)" fill="#e64e20"/><path d="M71.875,38.123c.29-.028.579-.053.869-.084a4.955,4.955,0,0,0,1.25-.253,1.428,1.428,0,0,0,.634-.443,1.255,1.255,0,0,0,.191-.412,4.624,4.624,0,0,0,.168-.809c.047-.359.09-.716.135-1.073a1.444,1.444,0,0,1,.032-.2c.01.091.022.18.032.272.038.318.074.634.113.95a4.708,4.708,0,0,0,.161.818c.03.1.072.2.112.3a.949.949,0,0,0,.513.508,3.028,3.028,0,0,0,.791.225c.269.043.541.077.812.113.22.028.44.05.659.075a.47.47,0,0,1,.081.019c-.15.018-.3.034-.451.053-.323.041-.647.075-.968.123-.22.034-.437.086-.653.14a1.16,1.16,0,0,0-.743.615,2.356,2.356,0,0,0-.248.766c-.057.347-.1.7-.149,1.043-.025.178-.043.356-.074.534-.013-.145-.027-.291-.041-.436a8.212,8.212,0,0,0-.231-1.5,2.554,2.554,0,0,0-.137-.354,1.181,1.181,0,0,0-.625-.574,3.067,3.067,0,0,0-.832-.229c-.4-.061-.8-.105-1.2-.159l-.2-.02,0-.01" transform="translate(7302.427 874.42)" fill="#e64e20"/><path d="M3.708,36.9c.29-.028.579-.053.869-.085a5.009,5.009,0,0,0,1.25-.252,1.44,1.44,0,0,0,.634-.445,1.248,1.248,0,0,0,.191-.41,4.638,4.638,0,0,0,.168-.81c.047-.358.09-.715.135-1.073a1.512,1.512,0,0,1,.032-.2c.01.091.022.182.032.273.038.318.074.634.113.95a4.731,4.731,0,0,0,.161.818c.03.1.072.2.112.3a.947.947,0,0,0,.513.509,3.075,3.075,0,0,0,.791.224c.269.043.541.077.812.113.22.028.44.051.659.076a.377.377,0,0,1,.081.019c-.15.018-.3.034-.451.053-.323.039-.647.074-.968.123-.22.034-.437.086-.653.14a1.162,1.162,0,0,0-.743.614A2.365,2.365,0,0,0,7.2,38.6c-.057.347-.1.7-.149,1.044-.025.178-.043.356-.074.534-.013-.145-.027-.291-.041-.436a8.177,8.177,0,0,0-.231-1.5,2.57,2.57,0,0,0-.137-.356,1.186,1.186,0,0,0-.625-.574,3.02,3.02,0,0,0-.832-.227c-.4-.061-.8-.107-1.2-.159l-.2-.022,0-.009" transform="translate(7284.001 874.09)" fill="#e64e20"/></g></svg>